<svg width="502" height="285" viewBox="0 0 502 285" fill="none" xmlns="http://www.w3.org/2000/svg">
<path d="M1.32996 52.6807C1.32996 51.5204 1.79088 50.4076 2.61133 49.5872C3.43178 48.7667 4.54456 48.3058 5.70486 48.3058H113.619C114.779 48.3058 115.892 48.7667 116.713 49.5872C117.533 50.4076 117.994 51.5204 117.994 52.6807V92.536C117.994 93.6963 117.533 94.8091 116.713 95.6296C115.892 96.45 114.779 96.9109 113.619 96.9109H5.70486C4.54456 96.9109 3.43178 96.45 2.61133 95.6296C1.79088 94.8091 1.32996 93.6963 1.32996 92.536V52.6807Z" fill="white" stroke="#3A414A"/>
<path d="M35.8319 64.1399C39.7477 64.1849 44.4287 63.4648 44.4287 67.5156C44.4287 71.0263 40.963 71.1163 37.3172 70.9363V75.3022H35.8319V64.1399ZM37.3172 69.7661C39.8827 69.7661 42.8984 70.2612 42.8984 67.5156C42.8984 64.8601 39.8377 65.4002 37.3172 65.3552V69.7661Z" fill="#3A414A"/>
<path d="M51.6302 73.6819C50.955 74.6271 50.2349 75.5272 48.5696 75.4822C46.9492 75.4372 45.959 74.537 45.959 72.9167C45.914 70.0361 48.7946 70.0811 51.5852 70.0811C51.7202 68.5058 51.1801 67.6506 49.7398 67.6506C48.6596 67.6956 47.8944 67.9657 47.8494 69.0459L46.3641 68.9109C46.5891 67.2455 47.8494 66.5704 49.7848 66.5704C51.8102 66.5704 53.0255 67.4706 53.0255 69.451V73.1418C52.9805 74.0419 53.3405 74.5821 54.2857 74.357V75.2572C52.8904 75.6623 51.5402 75.1672 51.6302 73.6819ZM47.4443 72.9167C47.4443 73.8169 47.9844 74.402 48.8846 74.402C50.73 74.267 51.7202 73.0967 51.5852 71.0713C49.6498 71.1613 47.4443 70.8463 47.4443 72.9167Z" fill="#3A414A"/>
<path d="M56.9412 73.1868C56.8512 74.267 57.7514 74.4921 58.6516 74.177V75.2572C57.1663 75.7073 55.5009 75.4823 55.5009 73.5018V67.7857H54.5107V66.7505H55.591L55.996 64.8151H56.9412V66.7505H58.5166V67.7857H56.9412V73.1868Z" fill="#3A414A"/>
<path d="M59.8669 64.9051V63.5548H61.3072V64.9051H59.8669ZM59.8669 75.3022V66.7504H61.3072V75.3022H59.8669Z" fill="#3A414A"/>
<path d="M66.8434 66.5704C69.6789 66.5704 70.7142 68.4608 70.6241 71.3414H64.5479C64.5479 73.1418 65.178 74.357 66.9334 74.402C68.1036 74.447 68.8688 73.8619 69.1388 73.0967L70.3991 73.4568C69.904 74.7171 68.7337 75.4822 66.9334 75.4822C64.3228 75.4822 62.9726 73.8169 63.0176 70.9813C63.0626 68.2357 64.1878 66.5704 66.8434 66.5704ZM69.1838 70.2162C69.4539 67.5156 65.7631 66.7504 64.8179 68.9559C64.6829 69.271 64.5479 69.7211 64.5479 70.2162H69.1838Z" fill="#3A414A"/>
<path d="M76.6104 66.5704C80.6162 66.3904 78.9959 71.7915 79.311 75.3022H77.8707V69.8561C77.8707 68.4608 77.5106 67.6506 76.1153 67.6957C72.8747 67.7857 74.1349 72.2866 73.9099 75.3022H72.4696L72.4246 66.7505H73.7748C73.8198 67.2006 73.7298 67.8307 73.8649 68.1908C74.36 67.2006 75.1701 66.6154 76.6104 66.5704Z" fill="#3A414A"/>
<path d="M83.0017 73.1868C82.9116 74.267 83.8118 74.4921 84.712 74.177V75.2572C83.2267 75.7073 81.5614 75.4823 81.5614 73.5018V67.7857H80.5712V66.7505H81.6514L82.0565 64.8151H83.0017V66.7505H84.577V67.7857H83.0017V73.1868Z" fill="#3A414A"/>
<path d="M384.666 30.3177C384.666 29.1574 385.127 28.0446 385.947 27.2242C386.768 26.4037 387.88 25.9428 389.041 25.9428H496.955C498.115 25.9428 499.228 26.4037 500.048 27.2242C500.869 28.0446 501.33 29.1574 501.33 30.3177V70.1803C501.33 71.3406 500.869 72.4534 500.048 73.2738C499.228 74.0943 498.115 74.5552 496.955 74.5552H389.041C387.88 74.5552 386.768 74.0943 385.947 73.2738C385.127 72.4534 384.666 71.3406 384.666 70.1803V30.3177Z" fill="white" stroke="#3A414A"/>
<path d="M412.164 35.2467V45.1488H410.634V35.2467H406.808V33.9865H415.99V35.2467H412.164Z" fill="#3A414A"/>
<path d="M420.851 37.8123C417.34 37.0921 418.465 41.9081 418.285 45.1488H416.845L416.8 36.597H418.15C418.195 37.1371 418.105 37.9023 418.24 38.3524C418.51 37.1371 419.276 36.1469 420.851 36.507V37.8123Z" fill="#3A414A"/>
<path d="M425.577 36.417C428.412 36.417 429.448 38.3074 429.358 41.1879H423.281C423.281 42.9883 423.911 44.2036 425.667 44.2486C426.837 44.2936 427.602 43.7085 427.872 42.9433L429.132 43.3034C428.637 44.5636 427.467 45.3288 425.667 45.3288C423.056 45.3288 421.706 43.6635 421.751 40.8279C421.796 38.0823 422.921 36.417 425.577 36.417ZM427.917 40.0627C428.187 37.3622 424.497 36.597 423.551 38.8025C423.416 39.1175 423.281 39.5676 423.281 40.0627H427.917Z" fill="#3A414A"/>
<path d="M436.424 43.5284C435.749 44.4736 435.029 45.3738 433.363 45.3288C431.743 45.2838 430.753 44.3836 430.753 42.7633C430.708 39.8827 433.588 39.9277 436.379 39.9277C436.514 38.3524 435.974 37.4972 434.533 37.4972C433.453 37.5422 432.688 37.8122 432.643 38.8925L431.158 38.7574C431.383 37.0921 432.643 36.417 434.579 36.417C436.604 36.417 437.819 37.3171 437.819 39.2976V42.9883C437.774 43.8885 438.134 44.4286 439.079 44.2036V45.1037C437.684 45.5088 436.334 45.0137 436.424 43.5284ZM432.238 42.7633C432.238 43.6635 432.778 44.2486 433.678 44.2486C435.524 44.1135 436.514 42.9433 436.379 40.9179C434.443 41.0079 432.238 40.6928 432.238 42.7633Z" fill="#3A414A"/>
<path d="M441.735 43.0333C441.645 44.1136 442.545 44.3386 443.445 44.0235V45.1038C441.96 45.5539 440.295 45.3288 440.295 43.3484V37.6322H439.305V36.597H440.385L440.79 34.6616H441.735V36.597H443.31V37.6322H441.735V43.0333Z" fill="#3A414A"/>
<path d="M453.032 37.5422C450.017 37.6773 451.322 42.2682 451.052 45.1488H449.657V39.7027C449.657 38.3974 449.432 37.4522 448.081 37.5422C445.111 37.7223 446.371 42.2232 446.101 45.1488H444.706L444.661 36.597H446.011C446.056 37.0471 445.966 37.6773 446.101 38.0373C446.551 36.0569 450.557 35.7869 450.917 38.0373C451.412 37.0921 452.132 36.462 453.528 36.417C457.353 36.327 455.643 41.7731 456.003 45.1488H454.608V39.7027C454.608 38.3974 454.383 37.4972 453.032 37.5422Z" fill="#3A414A"/>
<path d="M461.539 36.417C464.375 36.417 465.41 38.3074 465.32 41.1879H459.244C459.244 42.9883 459.874 44.2036 461.629 44.2486C462.799 44.2936 463.565 43.7085 463.835 42.9433L465.095 43.3034C464.6 44.5636 463.43 45.3288 461.629 45.3288C459.019 45.3288 457.668 43.6635 457.713 40.8279C457.758 38.0823 458.884 36.417 461.539 36.417ZM463.88 40.0627C464.15 37.3622 460.459 36.597 459.514 38.8025C459.379 39.1175 459.244 39.5676 459.244 40.0627H463.88Z" fill="#3A414A"/>
<path d="M471.306 36.417C475.312 36.2369 473.692 41.6381 474.007 45.1488H472.566V39.7027C472.566 38.3074 472.206 37.4972 470.811 37.5422C467.57 37.6322 468.831 42.1332 468.606 45.1488H467.165L467.12 36.597H468.471C468.516 37.0471 468.426 37.6772 468.561 38.0373C469.056 37.0471 469.866 36.462 471.306 36.417Z" fill="#3A414A"/>
<path d="M477.698 43.0333C477.608 44.1136 478.508 44.3386 479.408 44.0235V45.1038C477.923 45.5539 476.257 45.3288 476.257 43.3484V37.6322H475.267V36.597H476.347L476.752 34.6616H477.698V36.597H479.273V37.6322H477.698V43.0333Z" fill="#3A414A"/>
<path d="M396.613 54.6908V64.5928H395.083V54.6908H391.257V53.4305H400.439V54.6908H396.613Z" fill="#3A414A"/>
<path d="M403.455 55.861C406.29 55.861 407.326 57.7514 407.236 60.632H401.159C401.159 62.4324 401.789 63.6476 403.545 63.6926C404.715 63.7376 405.48 63.1525 405.75 62.3874L407.011 62.7474C406.515 64.0077 405.345 64.7729 403.545 64.7729C400.934 64.7729 399.584 63.1075 399.629 60.2719C399.674 57.5264 400.799 55.861 403.455 55.861ZM405.795 59.5068C406.065 56.8062 402.375 56.0411 401.429 58.2465C401.294 58.5616 401.159 59.0117 401.159 59.5068H405.795Z" fill="#3A414A"/>
<path d="M417.408 56.9862C414.392 57.1213 415.697 61.7122 415.427 64.5928H414.032V59.1467C414.032 57.8414 413.807 56.8962 412.457 56.9862C409.486 57.1663 410.746 61.6672 410.476 64.5928H409.081L409.036 56.041H410.386C410.431 56.4911 410.341 57.1213 410.476 57.4813C410.926 55.5009 414.932 55.2309 415.292 57.4813C415.787 56.5361 416.507 55.906 417.903 55.861C421.728 55.771 420.018 61.2171 420.378 64.5928H418.983V59.1467C418.983 57.8414 418.758 56.9412 417.408 56.9862Z" fill="#3A414A"/>
<path d="M425.914 55.861C428.705 55.816 429.74 57.5264 429.74 60.317C429.785 63.1525 428.525 64.7729 425.869 64.7729C423.214 64.7729 422.134 63.0175 422.089 60.317C422.089 57.3463 423.349 55.861 425.914 55.861ZM425.869 63.6926C427.85 63.7377 428.255 62.2974 428.255 60.317C428.255 58.3816 427.895 56.9413 425.959 56.9413C424.024 56.9413 423.574 58.3816 423.574 60.317C423.574 62.2523 424.024 63.6476 425.869 63.6926Z" fill="#3A414A"/>
<path d="M430.82 64.5928V63.5126L436.042 57.1213H431.135V56.0411H437.617V57.1213L432.396 63.5126H437.932V64.5928H430.82Z" fill="#3A414A"/>
<path d="M443.018 55.861C445.808 55.816 446.844 57.5264 446.844 60.317C446.889 63.1525 445.628 64.7729 442.973 64.7729C440.317 64.7729 439.237 63.0175 439.192 60.317C439.192 57.3463 440.452 55.861 443.018 55.861ZM442.973 63.6926C444.953 63.7377 445.358 62.2974 445.358 60.317C445.358 58.3816 444.998 56.9413 443.063 56.9413C441.128 56.9413 440.677 58.3816 440.677 60.317C440.677 62.2523 441.128 63.6476 442.973 63.6926Z" fill="#3A414A"/>
<path d="M448.599 64.5928V52.8454H450.039V64.5928H448.599Z" fill="#3A414A"/>
<path d="M455.575 55.861C458.366 55.816 459.401 57.5264 459.401 60.317C459.446 63.1525 458.186 64.7729 455.53 64.7729C452.875 64.7729 451.795 63.0175 451.75 60.317C451.75 57.3463 453.01 55.861 455.575 55.861ZM455.53 63.6926C457.511 63.7377 457.916 62.2974 457.916 60.317C457.916 58.3816 457.556 56.9413 455.62 56.9413C453.685 56.9413 453.235 58.3816 453.235 60.317C453.235 62.2523 453.685 63.6476 455.53 63.6926Z" fill="#3A414A"/>
<path d="M469.528 56.9862C466.513 57.1213 467.818 61.7122 467.548 64.5928H466.153V59.1467C466.153 57.8414 465.928 56.8962 464.577 56.9862C461.607 57.1663 462.867 61.6672 462.597 64.5928H461.202L461.157 56.041H462.507C462.552 56.4911 462.462 57.1213 462.597 57.4813C463.047 55.5009 467.053 55.2309 467.413 57.4813C467.908 56.5361 468.628 55.906 470.023 55.861C473.849 55.771 472.139 61.2171 472.499 64.5928H471.104V59.1467C471.104 57.8414 470.879 56.9412 469.528 56.9862Z" fill="#3A414A"/>
<path d="M474.614 54.1957V52.8454H476.055V54.1957H474.614ZM474.614 64.5928V56.0411H476.055V64.5928H474.614Z" fill="#3A414A"/>
<path d="M480.916 55.861C482.311 55.861 483.076 56.4461 483.616 57.3463L483.571 52.8454H485.012L485.057 64.5928H483.706C483.616 64.1427 483.706 63.5576 483.571 63.1975C483.121 64.2327 482.311 64.7729 480.916 64.7729C478.53 64.7729 477.81 63.0175 477.765 60.3619C477.765 57.3913 478.8 55.861 480.916 55.861ZM481.321 56.9412C479.52 56.9412 479.25 58.4716 479.25 60.3169C479.25 62.1173 479.52 63.6476 481.276 63.6476C483.166 63.6476 483.571 62.2073 483.571 60.2269C483.571 58.3365 483.166 56.8962 481.321 56.9412Z" fill="#3A414A"/>
<path d="M490.593 55.861C493.428 55.861 494.463 57.7514 494.373 60.632H488.297C488.297 62.4324 488.927 63.6476 490.683 63.6926C491.853 63.7376 492.618 63.1525 492.888 62.3874L494.148 62.7474C493.653 64.0077 492.483 64.7729 490.683 64.7729C488.072 64.7729 486.722 63.1075 486.767 60.2719C486.812 57.5264 487.937 55.861 490.593 55.861ZM492.933 59.5068C493.203 56.8062 489.512 56.0411 488.567 58.2465C488.432 58.5616 488.297 59.0117 488.297 59.5068H492.933Z" fill="#3A414A"/>
<path d="M217.945 81.4672C217.851 80.396 215.236 80.27 215.204 81.4672C215.677 83.137 218.828 81.8453 218.954 84.3028C219.08 86.7603 214.228 86.6343 214.007 84.5548L214.889 84.3973C215.015 85.5315 217.945 85.8151 217.977 84.3973C217.662 82.6329 214.417 83.9247 214.259 81.5617C214.133 79.7659 216.843 79.5768 218.103 80.2385C218.481 80.459 218.765 80.8371 218.859 81.3412" fill="#3A414A"/>
<path d="M221.222 84.4918C221.159 85.248 221.789 85.4055 222.419 85.185V85.9411C221.38 86.2562 220.214 86.0987 220.214 84.7124V80.711H219.521V79.9864H220.277L220.56 78.6316H221.222V79.9864H222.325V80.711H221.222V84.4918Z" fill="#3A414A"/>
<path d="M226.956 84.8384C226.484 85.5 225.98 86.1302 224.814 86.0987C223.68 86.0672 222.986 85.437 222.986 84.3028C222.955 82.2864 224.971 82.3179 226.925 82.3179C227.019 81.2152 226.641 80.6165 225.633 80.6165C224.877 80.648 224.341 80.8371 224.31 81.5932L223.27 81.4987C223.428 80.333 224.31 79.8604 225.664 79.8604C227.082 79.8604 227.933 80.4905 227.933 81.8768V84.4603C227.901 85.0905 228.154 85.4685 228.815 85.311V85.9411C227.838 86.2247 226.893 85.8781 226.956 84.8384ZM224.026 84.3028C224.026 84.9329 224.404 85.3425 225.034 85.3425C226.326 85.248 227.019 84.4288 226.925 83.011C225.57 83.074 224.026 82.8535 224.026 84.3028Z" fill="#3A414A"/>
<path d="M232.407 80.8371C229.949 80.333 230.737 83.7042 230.611 85.9726H229.603L229.571 79.9864H230.516C230.548 80.3645 230.485 80.9001 230.579 81.2152C230.769 80.3645 231.304 79.6713 232.407 79.9234V80.8371Z" fill="#3A414A"/>
<path d="M234.423 84.4918C234.36 85.248 234.99 85.4055 235.621 85.185V85.9411C234.581 86.2562 233.415 86.0987 233.415 84.7124V80.711H232.722V79.9864H233.478L233.762 78.6316H234.423V79.9864H235.526V80.711H234.423V84.4918Z" fill="#3A414A"/>
<path d="M238.866 79.8604C240.85 79.8604 241.575 81.1837 241.512 83.2001H237.259C237.259 84.4603 237.7 85.311 238.929 85.3425C239.748 85.374 240.283 84.9644 240.472 84.4288L241.355 84.6809C241.008 85.5631 240.189 86.0987 238.929 86.0987C237.101 86.0987 236.156 84.9329 236.188 82.948C236.219 81.0261 237.007 79.8604 238.866 79.8604ZM240.504 82.4124C240.693 80.522 238.109 79.9864 237.448 81.5302C237.353 81.7508 237.259 82.0658 237.259 82.4124H240.504Z" fill="#3A414A"/>
<path d="M244.694 79.8604C245.671 79.8604 246.207 80.27 246.585 80.9001L246.553 77.7495H247.561L247.593 85.9726H246.648C246.585 85.6576 246.648 85.248 246.553 84.9959C246.238 85.7206 245.671 86.0987 244.694 86.0987C243.025 86.0987 242.52 84.8699 242.489 83.011C242.489 80.9316 243.214 79.8604 244.694 79.8604ZM244.978 80.6165C243.718 80.6165 243.529 81.6878 243.529 82.9795C243.529 84.2398 243.718 85.311 244.946 85.311C246.27 85.311 246.553 84.3028 246.553 82.9165C246.553 81.5932 246.27 80.585 244.978 80.6165Z" fill="#3A414A"/>
<path d="M254.776 85.9727L253.894 83.7042H250.334L249.452 85.9727H248.349L251.531 78.1591H252.729L255.848 85.9727H254.776ZM253.579 82.8535L252.098 78.9782C251.72 80.396 251.122 81.5618 250.649 82.8535H253.579Z" fill="#3A414A"/>
<path d="M257.738 84.4918C257.675 85.248 258.305 85.4055 258.935 85.185V85.9411C257.896 86.2562 256.73 86.0987 256.73 84.7124V80.711H256.037V79.9864H256.793L257.076 78.6316H257.738V79.9864H258.841V80.711H257.738V84.4918Z" fill="#3A414A"/>
<path d="M260.069 81.1207V79.9864H261.141V81.1207H260.069ZM260.069 85.9727V84.8384H261.141V85.9727H260.069Z" fill="#3A414A"/>
<path d="M268.513 78.0645C271.097 77.844 271.443 80.8056 269.868 82.2234L267.915 83.9562C267.568 84.3028 267.19 84.6494 267.001 85.122H271.065V85.9727H265.898C265.961 82.8535 269.931 83.011 269.931 80.2385C269.931 79.3563 269.427 78.8837 268.513 78.8837C267.6 78.8837 267.064 79.3563 266.969 80.1755L265.961 80.0809C266.15 78.7892 267.032 78.1906 268.513 78.0645Z" fill="#3A414A"/>
<path d="M272.483 85.9726V85.122H274.499V79.1357L272.735 80.3645V79.4508L274.562 78.159H275.476V85.122H277.398V85.9726H272.483Z" fill="#3A414A"/>
<path d="M285.495 78.0645C288.047 78.0645 289.371 79.5138 289.371 82.0343C289.371 84.5233 287.984 86.0986 285.495 86.0986C282.943 86.0986 281.62 84.5548 281.62 82.0343C281.62 79.5138 282.943 78.0645 285.495 78.0645ZM285.495 85.2165C287.48 85.2165 288.299 83.9247 288.299 82.0343C288.299 80.1439 287.386 78.9152 285.495 78.9152C283.573 78.9152 282.691 80.1439 282.691 82.0343C282.691 83.9247 283.573 85.1849 285.495 85.2165Z" fill="#3A414A"/>
<path d="M292.931 80.648C291.67 80.648 291.418 81.6877 291.418 82.948C291.418 84.2082 291.702 85.311 292.931 85.311C293.687 85.311 294.223 84.8699 294.286 84.1137L295.294 84.1767C295.105 85.3425 294.317 86.0986 292.962 86.0986C291.103 86.0986 290.568 84.8069 290.379 82.9795C290.064 80.0494 293.561 78.8521 295.01 80.9631C295.136 81.1836 295.168 81.4042 295.231 81.6562L294.223 81.7507C294.096 81.0891 293.718 80.648 292.931 80.648Z" fill="#3A414A"/>
<path d="M297.436 84.4918C297.373 85.248 298.003 85.4055 298.633 85.1849V85.9411C297.594 86.2562 296.428 86.0986 296.428 84.7123V80.711H295.735V79.9864H296.491L296.775 78.6316H297.436V79.9864H298.539V80.711H297.436V84.4918Z" fill="#3A414A"/>
<path d="M305.061 78.0645C307.644 77.844 307.991 80.8056 306.415 82.2234L304.462 83.9562C304.116 84.3028 303.737 84.6494 303.548 85.122H307.613V85.9727H302.446C302.509 82.8535 306.479 83.011 306.479 80.2385C306.479 79.3563 305.974 78.8837 305.061 78.8837C304.147 78.8837 303.611 79.3563 303.517 80.1755L302.509 80.0809C302.698 78.7892 303.58 78.1906 305.061 78.0645Z" fill="#3A414A"/>
<path d="M311.362 78.0645C313.504 78.0645 314.04 79.7973 314.04 82.0658C314.04 84.3343 313.41 86.0986 311.33 86.0986C309.219 86.0986 308.621 84.3343 308.621 82.0658C308.621 79.7658 309.156 78.0645 311.362 78.0645ZM311.33 85.2795C312.811 85.2795 313.032 83.7356 313.032 82.0658C313.032 80.396 312.906 78.8521 311.362 78.8521C309.755 78.8521 309.629 80.3645 309.629 82.0658C309.629 83.7356 309.787 85.2795 311.33 85.2795Z" fill="#3A414A"/>
<path d="M317.663 78.0645C320.247 77.844 320.593 80.8056 319.018 82.2234L317.065 83.9562C316.718 84.3028 316.34 84.6494 316.151 85.122H320.215V85.9727H315.048C315.111 82.8535 319.081 83.011 319.081 80.2385C319.081 79.3563 318.577 78.8837 317.663 78.8837C316.75 78.8837 316.214 79.3563 316.119 80.1755L315.111 80.0809C315.3 78.7892 316.182 78.1906 317.663 78.0645Z" fill="#3A414A"/>
<path d="M323.965 78.0645C326.548 77.844 326.895 80.8056 325.319 82.2234L323.366 83.9562C323.019 84.3028 322.641 84.6494 322.452 85.122H326.517V85.9727H321.35C321.413 82.8535 325.382 83.011 325.382 80.2385C325.382 79.3563 324.878 78.8837 323.965 78.8837C323.051 78.8837 322.515 79.3563 322.421 80.1755L321.413 80.0809C321.602 78.7892 322.484 78.1906 323.965 78.0645Z" fill="#3A414A"/>
<path d="M384.666 136.285C384.666 135.125 385.127 134.012 385.947 133.192C386.768 132.371 387.88 131.91 389.041 131.91H496.955C498.115 131.91 499.228 132.371 500.048 133.192C500.869 134.012 501.33 135.125 501.33 136.285V176.148C501.33 177.308 500.869 178.421 500.048 179.241C499.228 180.062 498.115 180.523 496.955 180.523H389.041C387.88 180.523 386.768 180.062 385.947 179.241C385.127 178.421 384.666 177.308 384.666 176.148V136.285Z" fill="white" stroke="#3A414A"/>
<path d="M412.164 141.216V151.119H410.634V141.216H406.808V139.956H415.99V141.216H412.164Z" fill="#3A414A"/>
<path d="M420.851 143.782C417.34 143.062 418.465 147.878 418.285 151.119H416.845L416.8 142.567H418.15C418.195 143.107 418.105 143.872 418.24 144.322C418.51 143.107 419.276 142.117 420.851 142.477V143.782Z" fill="#3A414A"/>
<path d="M425.577 142.387C428.412 142.387 429.448 144.277 429.358 147.158H423.281C423.281 148.958 423.911 150.173 425.667 150.218C426.837 150.263 427.602 149.678 427.872 148.913L429.132 149.273C428.637 150.533 427.467 151.299 425.667 151.299C423.056 151.299 421.706 149.633 421.751 146.798C421.796 144.052 422.921 142.387 425.577 142.387ZM427.917 146.033C428.187 143.332 424.497 142.567 423.551 144.772C423.416 145.087 423.281 145.537 423.281 146.033H427.917Z" fill="#3A414A"/>
<path d="M436.424 149.498C435.749 150.443 435.029 151.344 433.363 151.299C431.743 151.254 430.753 150.353 430.753 148.733C430.708 145.852 433.588 145.898 436.379 145.898C436.514 144.322 435.974 143.467 434.533 143.467C433.453 143.512 432.688 143.782 432.643 144.862L431.158 144.727C431.383 143.062 432.643 142.387 434.579 142.387C436.604 142.387 437.819 143.287 437.819 145.267V148.958C437.774 149.858 438.134 150.398 439.079 150.173V151.074C437.684 151.479 436.334 150.984 436.424 149.498ZM432.238 148.733C432.238 149.633 432.778 150.218 433.678 150.218C435.524 150.083 436.514 148.913 436.379 146.888C434.443 146.978 432.238 146.663 432.238 148.733Z" fill="#3A414A"/>
<path d="M441.735 149.003C441.645 150.083 442.545 150.308 443.445 149.993V151.074C441.96 151.524 440.295 151.299 440.295 149.318V143.602H439.305V142.567H440.385L440.79 140.631H441.735V142.567H443.31V143.602H441.735V149.003Z" fill="#3A414A"/>
<path d="M453.032 143.512C450.017 143.647 451.322 148.238 451.052 151.119H449.657V145.672C449.657 144.367 449.432 143.422 448.081 143.512C445.111 143.692 446.371 148.193 446.101 151.119H444.706L444.661 142.567H446.011C446.056 143.017 445.966 143.647 446.101 144.007C446.551 142.027 450.557 141.757 450.917 144.007C451.412 143.062 452.132 142.432 453.528 142.387C457.353 142.297 455.643 147.743 456.003 151.119H454.608V145.672C454.608 144.367 454.383 143.467 453.032 143.512Z" fill="#3A414A"/>
<path d="M461.539 142.387C464.375 142.387 465.41 144.277 465.32 147.158H459.244C459.244 148.958 459.874 150.173 461.629 150.218C462.799 150.263 463.565 149.678 463.835 148.913L465.095 149.273C464.6 150.533 463.43 151.299 461.629 151.299C459.019 151.299 457.668 149.633 457.713 146.798C457.758 144.052 458.884 142.387 461.539 142.387ZM463.88 146.033C464.15 143.332 460.459 142.567 459.514 144.772C459.379 145.087 459.244 145.537 459.244 146.033H463.88Z" fill="#3A414A"/>
<path d="M471.306 142.387C475.312 142.207 473.692 147.608 474.007 151.119H472.566V145.672C472.566 144.277 472.206 143.467 470.811 143.512C467.57 143.602 468.831 148.103 468.606 151.119H467.165L467.12 142.567H468.471C468.516 143.017 468.426 143.647 468.561 144.007C469.056 143.017 469.866 142.432 471.306 142.387Z" fill="#3A414A"/>
<path d="M477.698 149.003C477.608 150.083 478.508 150.308 479.408 149.993V151.074C477.923 151.524 476.257 151.299 476.257 149.318V143.602H475.267V142.567H476.347L476.752 140.631H477.698V142.567H479.273V143.602H477.698V149.003Z" fill="#3A414A"/>
<path d="M422.809 164.666C424.384 164.891 425.554 165.702 425.554 167.412C425.554 171.328 420.783 170.473 416.958 170.563V159.4C420.378 159.535 424.924 158.635 424.924 162.101C424.924 163.586 424.069 164.351 422.809 164.666ZM418.443 164.171C420.693 164.126 423.394 164.576 423.394 162.281C423.394 160.165 420.558 160.661 418.443 160.616V164.171ZM418.443 169.347C420.918 169.257 424.024 169.977 424.024 167.322C424.024 164.801 420.873 165.432 418.443 165.341V169.347Z" fill="#3A414A"/>
<path d="M432.756 168.942C432.081 169.887 431.36 170.788 429.695 170.743C428.075 170.698 427.085 169.797 427.085 168.177C427.039 165.297 429.92 165.342 432.711 165.342C432.846 163.766 432.306 162.911 430.865 162.911C429.785 162.956 429.02 163.226 428.975 164.306L427.49 164.171C427.715 162.506 428.975 161.831 430.91 161.831C432.936 161.831 434.151 162.731 434.151 164.711V168.402C434.106 169.302 434.466 169.842 435.411 169.617V170.518C434.016 170.923 432.666 170.428 432.756 168.942ZM428.57 168.177C428.57 169.077 429.11 169.662 430.01 169.662C431.855 169.527 432.846 168.357 432.711 166.332C430.775 166.422 428.57 166.107 428.57 168.177Z" fill="#3A414A"/>
<path d="M439.732 162.956C437.932 162.956 437.572 164.441 437.572 166.242C437.572 168.042 437.977 169.617 439.732 169.617C440.812 169.617 441.578 168.987 441.668 167.907L443.108 167.997C442.838 169.662 441.713 170.743 439.777 170.743C437.122 170.743 436.356 168.897 436.086 166.287C435.636 162.101 440.632 160.391 442.703 163.406C442.883 163.721 442.928 164.036 443.018 164.396L441.578 164.531C441.397 163.586 440.857 162.956 439.732 162.956Z" fill="#3A414A"/>
<path d="M446.169 168.447C446.079 169.527 446.979 169.752 447.879 169.437V170.518C446.394 170.968 444.728 170.743 444.728 168.762V163.046H443.738V162.011H444.818L445.223 160.075H446.169V162.011H447.744V163.046H446.169V168.447Z" fill="#3A414A"/>
<path d="M453.145 163.226C449.634 162.506 450.759 167.322 450.579 170.563H449.139L449.094 162.011H450.444C450.489 162.551 450.399 163.316 450.534 163.766C450.804 162.551 451.57 161.561 453.145 161.921V163.226Z" fill="#3A414A"/>
<path d="M454.45 160.165V158.815H455.89V160.165H454.45ZM454.45 170.563V162.011H455.89V170.563H454.45Z" fill="#3A414A"/>
<path d="M466.378 162.956C463.362 163.091 464.667 167.682 464.397 170.563H463.002V165.116C463.002 163.811 462.777 162.866 461.427 162.956C458.456 163.136 459.716 167.637 459.446 170.563H458.051L458.006 162.011H459.356C459.401 162.461 459.311 163.091 459.446 163.451C459.896 161.471 463.902 161.201 464.262 163.451C464.757 162.506 465.477 161.876 466.873 161.831C470.698 161.741 468.988 167.187 469.348 170.563H467.953V165.116C467.953 163.811 467.728 162.911 466.378 162.956Z" fill="#3A414A"/>
<path d="M195.116 1.56C214.73 12.4535 227.162 12.4535 234.49 12.4535C246.317 12.4535 262.052 1.56 273.879 1.56C281.338 1.56 293.639 1.56001 313.399 12.4608V67.2418C293.639 56.2681 281.331 56.2681 273.879 56.2681C262.052 56.2681 246.317 67.2345 234.49 67.2345C227.155 67.2345 214.73 67.2346 195.094 56.2681L195.116 1.56Z" fill="white" stroke="#3A414A"/>
<path d="M223.702 17.4919V27.394H222.172V17.4919H218.346V16.2317H227.528V17.4919H223.702Z" fill="#3A414A"/>
<path d="M232.389 20.0574C228.878 19.3373 230.003 24.1533 229.823 27.394H228.383L228.338 18.8422H229.688C229.733 19.3823 229.643 20.1475 229.778 20.5976C230.048 19.3823 230.814 18.3921 232.389 18.7522V20.0574Z" fill="#3A414A"/>
<path d="M237.115 18.6622C239.951 18.6622 240.986 20.5526 240.896 23.4332H234.819C234.819 25.2335 235.45 26.4488 237.205 26.4938C238.375 26.5388 239.14 25.9537 239.41 25.1885L240.671 25.5486C240.176 26.8088 239.005 27.574 237.205 27.574C234.594 27.574 233.244 25.9087 233.289 23.0731C233.334 20.3275 234.459 18.6622 237.115 18.6622ZM239.455 22.3079C239.725 19.6074 236.035 18.8422 235.09 21.0477C234.955 21.3627 234.819 21.8128 234.819 22.3079H239.455Z" fill="#3A414A"/>
<path d="M247.962 25.7736C247.287 26.7188 246.567 27.619 244.901 27.574C243.281 27.529 242.291 26.6288 242.291 25.0085C242.246 22.1279 245.127 22.1729 247.917 22.1729C248.052 20.5976 247.512 19.7424 246.072 19.7424C244.991 19.7874 244.226 20.0575 244.181 21.1377L242.696 21.0027C242.921 19.3373 244.181 18.6622 246.117 18.6622C248.142 18.6622 249.357 19.5624 249.357 21.5428V25.2335C249.312 26.1337 249.672 26.6738 250.618 26.4488V27.349C249.222 27.754 247.872 27.2589 247.962 25.7736ZM243.776 25.0085C243.776 25.9087 244.316 26.4938 245.217 26.4938C247.062 26.3588 248.052 25.1885 247.917 23.1631C245.982 23.2531 243.776 22.9381 243.776 25.0085Z" fill="#3A414A"/>
<path d="M253.273 25.2785C253.183 26.3587 254.083 26.5838 254.984 26.2687V27.3489C253.498 27.799 251.833 27.574 251.833 25.5936V19.8774H250.843V18.8422H251.923L252.328 16.9068H253.273V18.8422H254.848V19.8774H253.273V25.2785Z" fill="#3A414A"/>
<path d="M264.571 19.7874C261.555 19.9224 262.86 24.5134 262.59 27.394H261.195V21.9478C261.195 20.6426 260.97 19.6974 259.62 19.7874C256.649 19.9674 257.909 24.4684 257.639 27.394H256.244L256.199 18.8422H257.549C257.594 19.2923 257.504 19.9224 257.639 20.2825C258.089 18.3021 262.095 18.032 262.455 20.2825C262.95 19.3373 263.67 18.7072 265.066 18.6622C268.891 18.5722 267.181 24.0183 267.541 27.394H266.146V21.9478C266.146 20.6426 265.921 19.7424 264.571 19.7874Z" fill="#3A414A"/>
<path d="M273.077 18.6622C275.913 18.6622 276.948 20.5526 276.858 23.4332H270.782C270.782 25.2335 271.412 26.4488 273.167 26.4938C274.338 26.5388 275.103 25.9537 275.373 25.1885L276.633 25.5486C276.138 26.8088 274.968 27.574 273.167 27.574C270.557 27.574 269.207 25.9087 269.252 23.0731C269.297 20.3275 270.422 18.6622 273.077 18.6622ZM275.418 22.3079C275.688 19.6074 271.997 18.8422 271.052 21.0477C270.917 21.3627 270.782 21.8128 270.782 22.3079H275.418Z" fill="#3A414A"/>
<path d="M282.844 18.6622C286.85 18.4821 285.23 23.8832 285.545 27.394H284.105V21.9478C284.105 20.5526 283.744 19.7424 282.349 19.7874C279.109 19.8774 280.369 24.3783 280.144 27.394H278.703L278.658 18.8422H280.009C280.054 19.2923 279.964 19.9224 280.099 20.2825C280.594 19.2923 281.404 18.7072 282.844 18.6622Z" fill="#3A414A"/>
<path d="M289.236 25.2785C289.146 26.3587 290.046 26.5838 290.946 26.2687V27.3489C289.461 27.799 287.795 27.574 287.795 25.5936V19.8774H286.805V18.8422H287.885L288.29 16.9068H289.236V18.8422H290.811V19.8774H289.236V25.2785Z" fill="#3A414A"/>
<path d="M227.573 35.5406C231.219 35.5406 233.109 37.6111 233.109 41.2118C233.109 44.7675 231.129 47.018 227.573 47.018C223.927 47.018 222.037 44.8126 222.037 41.2118C222.037 37.6111 223.927 35.5406 227.573 35.5406ZM227.573 45.7578C230.408 45.7578 231.579 43.9124 231.579 41.2118C231.579 38.5113 230.273 36.7559 227.573 36.7559C224.827 36.7559 223.567 38.5113 223.567 41.2118C223.567 43.9124 224.827 45.7127 227.573 45.7578Z" fill="#3A414A"/>
<path d="M238.195 39.2314C236.395 39.2314 236.035 40.7167 236.035 42.5171C236.035 44.3175 236.44 45.8928 238.195 45.8928C239.275 45.8928 240.04 45.2627 240.13 44.1824L241.571 44.2725C241.301 45.9378 240.175 47.018 238.24 47.018C235.584 47.018 234.819 45.1726 234.549 42.5621C234.099 38.3762 239.095 36.6659 241.166 39.6815C241.346 39.9966 241.391 40.3116 241.481 40.6717L240.04 40.8067C239.86 39.8616 239.32 39.2314 238.195 39.2314Z" fill="#3A414A"/>
<path d="M246.297 39.2314C244.496 39.2314 244.136 40.7167 244.136 42.5171C244.136 44.3175 244.541 45.8928 246.297 45.8928C247.377 45.8928 248.142 45.2627 248.232 44.1824L249.672 44.2725C249.402 45.9378 248.277 47.018 246.342 47.018C243.686 47.018 242.921 45.1726 242.651 42.5621C242.201 38.3762 247.197 36.6659 249.267 39.6815C249.447 39.9966 249.492 40.3116 249.582 40.6717L248.142 40.8067C247.962 39.8616 247.422 39.2314 246.297 39.2314Z" fill="#3A414A"/>
<path d="M253.858 47.018C249.853 47.198 251.428 41.7969 251.113 38.2862H252.553V43.6873C252.553 45.0826 252.868 45.9378 254.308 45.8928C257.549 45.8027 256.334 41.3468 256.559 38.2862H257.954L257.999 46.838H256.649C256.604 46.3879 256.694 45.7127 256.559 45.3526C256.064 46.3429 255.299 46.973 253.858 47.018Z" fill="#3A414A"/>
<path d="M264.211 39.5014C260.7 38.7813 261.825 43.5973 261.645 46.838H260.205L260.16 38.2862H261.51C261.555 38.8263 261.465 39.5915 261.6 40.0416C261.87 38.8263 262.635 37.8361 264.211 38.1962V39.5014Z" fill="#3A414A"/>
<path d="M269.567 39.5014C266.056 38.7813 267.181 43.5973 267.001 46.838H265.561L265.516 38.2862H266.866C266.911 38.8263 266.821 39.5915 266.956 40.0416C267.226 38.8263 267.991 37.8361 269.567 38.1962V39.5014Z" fill="#3A414A"/>
<path d="M274.292 38.1062C277.128 38.1062 278.163 39.9966 278.073 42.8772H271.997C271.997 44.6775 272.627 45.8928 274.382 45.9378C275.553 45.9828 276.318 45.3977 276.588 44.6325L277.848 44.9926C277.353 46.2528 276.183 47.018 274.382 47.018C271.772 47.018 270.422 45.3527 270.467 42.5171C270.512 39.7715 271.637 38.1062 274.292 38.1062ZM276.633 41.7519C276.903 39.0514 273.212 38.2862 272.267 40.4917C272.132 40.8067 271.997 41.2568 271.997 41.7519H276.633Z" fill="#3A414A"/>
<path d="M282.619 38.1062C284.015 38.1062 284.78 38.6913 285.32 39.5915L285.275 35.0905H286.715L286.76 46.838H285.41C285.32 46.3879 285.41 45.8027 285.275 45.4427C284.825 46.4779 284.015 47.018 282.619 47.018C280.234 47.018 279.514 45.2626 279.469 42.6071C279.469 39.6365 280.504 38.1062 282.619 38.1062ZM283.024 39.1864C281.224 39.1864 280.954 40.7167 280.954 42.5621C280.954 44.3625 281.224 45.8928 282.979 45.8928C284.87 45.8928 285.275 44.4525 285.275 42.4721C285.275 40.5817 284.87 39.1414 283.024 39.1864Z" fill="#3A414A"/>
<path d="M216.717 99.3447C215.456 99.3447 215.204 100.384 215.204 101.645C215.204 102.905 215.488 104.008 216.717 104.008C217.473 104.008 218.008 103.567 218.071 102.81L219.08 102.873C218.89 104.039 218.103 104.795 216.748 104.795C214.889 104.795 214.354 103.504 214.164 101.676C213.849 98.746 217.347 97.5488 218.796 99.6597C218.922 99.8803 218.953 100.101 219.016 100.353L218.008 100.447C217.882 99.7858 217.504 99.3447 216.717 99.3447Z" fill="#3A414A"/>
<path d="M222.514 98.557C224.467 98.5255 225.192 99.7227 225.192 101.676C225.223 103.661 224.341 104.795 222.482 104.795C220.623 104.795 219.867 103.567 219.836 101.676C219.836 99.5967 220.718 98.557 222.514 98.557ZM222.482 104.039C223.869 104.071 224.152 103.062 224.152 101.676C224.152 100.321 223.9 99.3132 222.545 99.3132C221.191 99.3132 220.876 100.321 220.876 101.676C220.876 103.031 221.191 104.008 222.482 104.039Z" fill="#3A414A"/>
<path d="M232.281 99.3446C230.17 99.4392 231.084 102.653 230.895 104.669H229.918V100.857C229.918 99.9433 229.76 99.2816 228.815 99.3446C226.736 99.4707 227.618 102.621 227.429 104.669H226.452L226.421 98.683H227.366C227.397 98.9981 227.334 99.4392 227.429 99.6912C227.744 98.3049 230.548 98.1159 230.8 99.6912C231.147 99.0296 231.651 98.5885 232.627 98.557C235.305 98.494 234.108 102.306 234.36 104.669H233.384V100.857C233.384 99.9433 233.226 99.3131 232.281 99.3446Z" fill="#3A414A"/>
<path d="M238.708 98.557C240.441 98.5885 240.914 99.8488 240.914 101.645C240.914 103.441 240.41 104.732 238.708 104.795C237.731 104.795 237.164 104.386 236.818 103.724L236.849 107.032H235.841L235.81 98.683H236.786L236.849 99.6282C237.164 98.9666 237.731 98.557 238.708 98.557ZM238.456 104.039C239.716 104.039 239.874 102.968 239.874 101.676C239.874 100.384 239.685 99.3762 238.456 99.3447C237.133 99.3447 236.849 100.353 236.849 101.739C236.849 103.094 237.164 104.039 238.456 104.039Z" fill="#3A414A"/>
<path d="M242.142 104.669V96.4461H243.151V104.669H242.142Z" fill="#3A414A"/>
<path d="M247.026 98.557C249.011 98.557 249.735 99.8803 249.672 101.897H245.419C245.419 103.157 245.86 104.008 247.089 104.039C247.908 104.071 248.444 103.661 248.633 103.125L249.515 103.377C249.168 104.26 248.349 104.795 247.089 104.795C245.261 104.795 244.316 103.63 244.348 101.645C244.379 99.7227 245.167 98.557 247.026 98.557ZM248.664 101.109C248.853 99.2186 246.27 98.683 245.608 100.227C245.514 100.447 245.419 100.762 245.419 101.109H248.664Z" fill="#3A414A"/>
<path d="M252.035 103.188C251.972 103.945 252.603 104.102 253.233 103.882V104.638C252.193 104.953 251.027 104.795 251.027 103.409V99.4077H250.334V98.683H251.09L251.374 97.3282H252.035V98.683H253.138V99.4077H252.035V103.188Z" fill="#3A414A"/>
<path d="M256.478 98.557C258.463 98.557 259.187 99.8803 259.124 101.897H254.871C254.871 103.157 255.312 104.008 256.541 104.039C257.36 104.071 257.896 103.661 258.085 103.125L258.967 103.377C258.62 104.26 257.801 104.795 256.541 104.795C254.714 104.795 253.768 103.63 253.8 101.645C253.831 99.7227 254.619 98.557 256.478 98.557ZM258.116 101.109C258.305 99.2186 255.722 98.683 255.06 100.227C254.966 100.447 254.871 100.762 254.871 101.109H258.116Z" fill="#3A414A"/>
<path d="M262.307 98.557C263.283 98.557 263.819 98.9666 264.197 99.5967L264.165 96.4461H265.174L265.205 104.669H264.26C264.197 104.354 264.26 103.945 264.165 103.693C263.85 104.417 263.283 104.795 262.307 104.795C260.637 104.795 260.133 103.567 260.101 101.708C260.101 99.6282 260.826 98.557 262.307 98.557ZM262.59 99.3132C261.33 99.3132 261.141 100.384 261.141 101.676C261.141 102.936 261.33 104.008 262.559 104.008C263.882 104.008 264.165 102.999 264.165 101.613C264.165 100.29 263.882 99.2817 262.59 99.3132Z" fill="#3A414A"/>
<path d="M272.389 104.669L271.506 102.401H267.946L267.064 104.669H265.961L269.143 96.8557H270.341L273.46 104.669H272.389ZM271.191 101.55L269.711 97.6748C269.332 99.0926 268.734 100.258 268.261 101.55H271.191Z" fill="#3A414A"/>
<path d="M275.35 103.188C275.287 103.945 275.917 104.102 276.548 103.882V104.638C275.508 104.953 274.342 104.795 274.342 103.409V99.4077H273.649V98.683H274.405L274.689 97.3282H275.35V98.683H276.453V99.4077H275.35V103.188Z" fill="#3A414A"/>
<path d="M277.682 99.8173V98.683H278.753V99.8173H277.682ZM277.682 104.669V103.535H278.753V104.669H277.682Z" fill="#3A414A"/>
<path d="M286.63 98.557C289.434 98.431 288.299 102.212 288.52 104.669H287.512V100.857C287.512 99.8803 287.26 99.3132 286.283 99.3447C284.015 99.4077 284.897 102.558 284.739 104.669H283.731L283.699 98.683H284.645C284.676 98.9981 284.613 99.4392 284.708 99.6912C285.054 98.9981 285.621 98.5885 286.63 98.557Z" fill="#3A414A"/>
<path d="M291.891 104.795C289.087 104.921 290.19 101.141 289.969 98.683H290.977V102.464C290.977 103.441 291.198 104.039 292.206 104.008C294.475 103.945 293.624 100.825 293.782 98.683H294.758L294.79 104.669H293.845C293.813 104.354 293.876 103.882 293.782 103.63C293.435 104.323 292.899 104.764 291.891 104.795Z" fill="#3A414A"/>
<path d="M296.302 104.669V96.4461H297.31V104.669H296.302Z" fill="#3A414A"/>
<path d="M298.791 104.669V96.4461H299.799V104.669H298.791Z" fill="#3A414A"/>
<path d="M216.37 117.254C217.347 117.254 217.882 117.663 218.26 118.293L218.229 115.143H219.237L219.269 123.366H218.323C218.26 123.051 218.323 122.641 218.229 122.389C217.914 123.114 217.347 123.492 216.37 123.492C214.7 123.492 214.196 122.263 214.165 120.404C214.165 118.325 214.889 117.254 216.37 117.254ZM216.654 118.01C215.393 118.01 215.204 119.081 215.204 120.373C215.204 121.633 215.393 122.704 216.622 122.704C217.945 122.704 218.229 121.696 218.229 120.31C218.229 118.987 217.945 117.978 216.654 118.01Z" fill="#3A414A"/>
<path d="M223.144 117.254C225.097 117.222 225.822 118.419 225.822 120.373C225.854 122.358 224.971 123.492 223.112 123.492C221.254 123.492 220.497 122.263 220.466 120.373C220.466 118.293 221.348 117.254 223.144 117.254ZM223.112 122.736C224.499 122.767 224.782 121.759 224.782 120.373C224.782 119.018 224.53 118.01 223.175 118.01C221.821 118.01 221.506 119.018 221.506 120.373C221.506 121.728 221.821 122.704 223.112 122.736Z" fill="#3A414A"/>
<path d="M230.548 118.861C230.453 117.789 227.838 117.663 227.807 118.861C228.279 120.53 231.43 119.239 231.556 121.696C231.682 124.154 226.83 124.028 226.61 121.948L227.492 121.791C227.618 122.925 230.548 123.208 230.579 121.791C230.264 120.026 227.019 121.318 226.862 118.955C226.736 117.159 229.445 116.97 230.705 117.632C231.084 117.852 231.367 118.23 231.462 118.734" fill="#3A414A"/>
<path d="M235.116 117.254C237.101 117.254 237.826 118.577 237.763 120.593H233.509C233.509 121.854 233.951 122.704 235.179 122.736C235.998 122.767 236.534 122.358 236.723 121.822L237.605 122.074C237.259 122.956 236.44 123.492 235.179 123.492C233.352 123.492 232.407 122.326 232.438 120.341C232.47 118.419 233.257 117.254 235.116 117.254ZM236.755 119.806C236.944 117.915 234.36 117.38 233.699 118.924C233.604 119.144 233.509 119.459 233.509 119.806H236.755Z" fill="#3A414A"/>
<path d="M242.678 115.458C245.23 115.458 246.553 116.907 246.553 119.428C246.553 121.917 245.167 123.492 242.678 123.492C240.126 123.492 238.803 121.948 238.803 119.428C238.803 116.907 240.126 115.458 242.678 115.458ZM242.678 122.61C244.663 122.61 245.482 121.318 245.482 119.428C245.482 117.537 244.568 116.308 242.678 116.308C240.756 116.308 239.874 117.537 239.874 119.428C239.874 121.318 240.756 122.578 242.678 122.61Z" fill="#3A414A"/>
<path d="M250.271 115.993C249.294 115.71 248.948 116.308 249.074 117.38H250.271V118.104H249.074V123.366H248.097V118.104H247.246V117.38H248.097C247.876 115.741 248.633 114.796 250.271 115.237V115.993Z" fill="#3A414A"/>
<path d="M251.279 118.514V117.38H252.35V118.514H251.279ZM251.279 123.366V122.232H252.35V123.366H251.279Z" fill="#3A414A"/>
<path d="M257.391 123.366V122.515H259.408V116.529L257.644 117.758V116.844L259.471 115.552H260.385V122.515H262.306V123.366H257.391Z" fill="#3A414A"/>
<path d="M264.543 118.892C266.056 117.789 268.86 118.64 268.671 120.814C269.017 123.933 263.819 124.406 263.283 121.633L264.291 121.507C264.512 122.232 264.985 122.673 265.93 122.673C267.032 122.641 267.537 121.98 267.631 120.845C267.757 119.113 265.331 118.797 264.512 119.774H263.535L263.787 115.552H268.23V116.403H264.701" fill="#3A414A"/>
<path d="M272.326 115.458C274.468 115.458 275.004 117.191 275.004 119.459C275.004 121.728 274.373 123.492 272.294 123.492C270.183 123.492 269.584 121.728 269.584 119.459C269.584 117.159 270.12 115.458 272.326 115.458ZM272.294 122.673C273.775 122.673 273.995 121.129 273.995 119.459C273.995 117.789 273.869 116.245 272.326 116.245C270.719 116.245 270.593 117.758 270.593 119.459C270.593 121.129 270.75 122.673 272.294 122.673Z" fill="#3A414A"/>
<path d="M285.212 118.041C283.101 118.136 284.015 121.349 283.825 123.366H282.849V119.554C282.849 118.64 282.691 117.978 281.746 118.041C279.667 118.167 280.549 121.318 280.36 123.366H279.383L279.352 117.38H280.297C280.328 117.695 280.265 118.136 280.36 118.388C280.675 117.002 283.479 116.813 283.731 118.388C284.078 117.726 284.582 117.285 285.558 117.254C288.236 117.191 287.039 121.003 287.291 123.366H286.314V119.554C286.314 118.64 286.157 118.01 285.212 118.041Z" fill="#3A414A"/>
<path d="M293.592 117.38C293.277 121.318 294.884 126.611 290.127 125.603C289.402 125.414 288.929 124.973 288.74 124.248L289.749 124.091C290.221 125.571 292.899 125.099 292.553 123.208V122.263C292.206 122.925 291.639 123.397 290.631 123.397C288.929 123.397 288.488 122.106 288.488 120.373C288.488 118.608 288.993 117.317 290.725 117.285C291.639 117.254 292.238 117.789 292.584 118.388C292.616 118.073 292.584 117.663 292.647 117.38H293.592ZM290.977 122.673C292.112 122.673 292.553 121.665 292.553 120.373C292.553 119.05 292.112 118.01 290.977 118.01C289.749 118.01 289.528 119.081 289.528 120.373C289.528 121.665 289.717 122.673 290.977 122.673Z" fill="#3A414A"/>
<path d="M294.317 123.492L296.585 115.143H297.468L295.199 123.492H294.317Z" fill="#3A414A"/>
<path d="M304.084 118.041C301.973 118.136 302.887 121.349 302.698 123.366H301.721V119.554C301.721 118.64 301.564 117.978 300.618 118.041C298.539 118.167 299.421 121.318 299.232 123.366H298.255L298.224 117.38H299.169C299.201 117.695 299.138 118.136 299.232 118.388C299.547 117.002 302.351 116.813 302.603 118.388C302.95 117.726 303.454 117.285 304.431 117.254C307.109 117.191 305.911 121.003 306.164 123.366H305.187V119.554C305.187 118.64 305.029 118.01 304.084 118.041Z" fill="#3A414A"/>
<path d="M309.116 114.654C310.924 114.5 311.167 116.573 310.064 117.566L308.697 118.779C308.454 119.021 308.189 119.264 308.057 119.595H310.902V120.19H307.285C307.329 118.007 310.108 118.117 310.108 116.176C310.108 115.559 309.755 115.228 309.116 115.228C308.476 115.228 308.101 115.559 308.035 116.132L307.329 116.066C307.462 115.162 308.079 114.743 309.116 114.654Z" fill="#3A414A"/>
<path d="M201.824 60.417V76.7719C201.824 77.9321 202.285 79.0449 203.106 79.8654C203.926 80.6858 205.039 81.1468 206.199 81.1468H209.685" stroke="#3A414A"/>
<path d="M202.189 60.2128V60.4316H201.46V59.892L202.189 60.2128ZM210.049 81.504H209.67V80.7749H210.049V81.504Z" fill="#3A414A" stroke="#3A414A" stroke-width="0.05"/>
<path d="M201.824 60.417V95.4672C201.824 96.6275 202.285 97.7403 203.106 98.5608C203.926 99.3812 205.039 99.8421 206.199 99.8421H209.685" stroke="#3A414A"/>
<path d="M202.189 60.2128V60.4316H201.46V59.892L202.189 60.2128ZM210.049 100.207H209.67V99.4775H210.049V100.207Z" fill="#3A414A" stroke="#3A414A" stroke-width="0.05"/>
<path d="M201.824 60.417V114.155C201.824 115.316 202.285 116.428 203.106 117.249C203.926 118.069 205.039 118.53 206.199 118.53H209.685" stroke="#3A414A"/>
<path d="M202.189 60.2128V60.4316H201.46V59.892L202.189 60.2128ZM210.049 118.909H209.67V118.18H210.049V118.909Z" fill="#3A414A" stroke="#3A414A" stroke-width="0.05"/>
<path d="M201.824 216.922V233.277C201.824 234.437 202.285 235.55 203.106 236.37C203.926 237.191 205.039 237.651 206.199 237.651H209.685" stroke="#3A414A"/>
<path d="M202.189 216.725V216.944H201.46V216.397L202.189 216.725ZM210.049 238.016H209.67V237.287H210.049V238.016Z" fill="#3A414A" stroke="#3A414A" stroke-width="0.05"/>
<path d="M201.824 216.922V251.979C201.824 253.14 202.285 254.252 203.106 255.073C203.926 255.893 205.039 256.354 206.199 256.354H209.685" stroke="#3A414A"/>
<path d="M202.189 216.725V216.944H201.46V216.397L202.189 216.725ZM210.049 256.719H209.67V255.99H210.049V256.719Z" fill="#3A414A" stroke="#3A414A" stroke-width="0.05"/>
<path d="M201.824 216.922V270.66C201.824 271.82 202.285 272.933 203.106 273.754C203.926 274.574 205.039 275.035 206.199 275.035H209.685" stroke="#3A414A"/>
<path d="M202.189 216.725V216.944H201.46V216.397L202.189 216.725ZM210.049 275.407H209.67V274.678H210.049V275.407Z" fill="#3A414A" stroke="#3A414A" stroke-width="0.05"/>
<path d="M217.945 237.973C217.851 236.902 215.236 236.776 215.204 237.973C215.677 239.643 218.828 238.351 218.954 240.809C219.08 243.266 214.228 243.14 214.007 241.061L214.889 240.903C215.015 242.038 217.945 242.321 217.977 240.903C217.662 239.139 214.417 240.431 214.259 238.068C214.133 236.272 216.843 236.083 218.103 236.744C218.481 236.965 218.765 237.343 218.859 237.847" fill="#3A414A"/>
<path d="M221.222 240.998C221.159 241.754 221.789 241.911 222.419 241.691V242.447C221.38 242.762 220.214 242.605 220.214 241.218V237.217H219.521V236.492H220.277L220.56 235.138H221.222V236.492H222.325V237.217H221.222V240.998Z" fill="#3A414A"/>
<path d="M226.956 241.344C226.484 242.006 225.98 242.636 224.814 242.605C223.68 242.573 222.986 241.943 222.986 240.809C222.955 238.792 224.971 238.824 226.925 238.824C227.019 237.721 226.641 237.123 225.633 237.123C224.877 237.154 224.341 237.343 224.31 238.099L223.27 238.005C223.428 236.839 224.31 236.366 225.664 236.366C227.082 236.366 227.933 236.996 227.933 238.383V240.966C227.901 241.596 228.154 241.975 228.815 241.817V242.447C227.838 242.731 226.893 242.384 226.956 241.344ZM224.026 240.809C224.026 241.439 224.404 241.848 225.034 241.848C226.326 241.754 227.019 240.935 226.925 239.517C225.57 239.58 224.026 239.359 224.026 240.809Z" fill="#3A414A"/>
<path d="M232.407 237.343C229.949 236.839 230.737 240.21 230.611 242.479H229.603L229.571 236.492H230.516C230.548 236.87 230.485 237.406 230.579 237.721C230.769 236.87 231.304 236.177 232.407 236.429V237.343Z" fill="#3A414A"/>
<path d="M234.423 240.998C234.36 241.754 234.99 241.911 235.621 241.691V242.447C234.581 242.762 233.415 242.605 233.415 241.218V237.217H232.722V236.492H233.478L233.762 235.138H234.423V236.492H235.526V237.217H234.423V240.998Z" fill="#3A414A"/>
<path d="M238.866 236.366C240.85 236.366 241.575 237.69 241.512 239.706H237.259C237.259 240.966 237.7 241.817 238.929 241.848C239.748 241.88 240.283 241.47 240.472 240.935L241.355 241.187C241.008 242.069 240.189 242.605 238.929 242.605C237.101 242.605 236.156 241.439 236.188 239.454C236.219 237.532 237.007 236.366 238.866 236.366ZM240.504 238.918C240.693 237.028 238.109 236.492 237.448 238.036C237.353 238.257 237.259 238.572 237.259 238.918H240.504Z" fill="#3A414A"/>
<path d="M244.694 236.366C245.671 236.366 246.207 236.776 246.585 237.406L246.553 234.255H247.561L247.593 242.479H246.648C246.585 242.164 246.648 241.754 246.553 241.502C246.238 242.227 245.671 242.605 244.694 242.605C243.025 242.605 242.52 241.376 242.489 239.517C242.489 237.438 243.214 236.366 244.694 236.366ZM244.978 237.123C243.718 237.123 243.529 238.194 243.529 239.485C243.529 240.746 243.718 241.817 244.946 241.817C246.27 241.817 246.553 240.809 246.553 239.422C246.553 238.099 246.27 237.091 244.978 237.123Z" fill="#3A414A"/>
<path d="M254.776 242.479L253.894 240.21H250.334L249.452 242.479H248.349L251.531 234.665H252.729L255.848 242.479H254.776ZM253.579 239.359L252.098 235.484C251.72 236.902 251.122 238.068 250.649 239.359H253.579Z" fill="#3A414A"/>
<path d="M257.738 240.998C257.675 241.754 258.305 241.911 258.935 241.691V242.447C257.896 242.762 256.73 242.605 256.73 241.218V237.217H256.037V236.492H256.793L257.076 235.138H257.738V236.492H258.841V237.217H257.738V240.998Z" fill="#3A414A"/>
<path d="M260.069 237.627V236.492H261.141V237.627H260.069ZM260.069 242.479V241.344H261.141V242.479H260.069Z" fill="#3A414A"/>
<path d="M268.513 234.57C271.097 234.35 271.443 237.312 269.868 238.729L267.915 240.462C267.568 240.809 267.19 241.155 267.001 241.628H271.065V242.479H265.898C265.961 239.359 269.931 239.517 269.931 236.744C269.931 235.862 269.427 235.39 268.513 235.39C267.6 235.39 267.064 235.862 266.969 236.681L265.961 236.587C266.15 235.295 267.032 234.697 268.513 234.57Z" fill="#3A414A"/>
<path d="M272.483 242.479V241.628H274.499V235.642L272.735 236.87V235.957L274.562 234.665H275.476V241.628H277.398V242.479H272.483Z" fill="#3A414A"/>
<path d="M285.495 234.57C288.047 234.57 289.371 236.02 289.371 238.54C289.371 241.029 287.984 242.605 285.495 242.605C282.943 242.605 281.62 241.061 281.62 238.54C281.62 236.02 282.943 234.57 285.495 234.57ZM285.495 241.722C287.48 241.722 288.299 240.431 288.299 238.54C288.299 236.65 287.386 235.421 285.495 235.421C283.573 235.421 282.691 236.65 282.691 238.54C282.691 240.431 283.573 241.691 285.495 241.722Z" fill="#3A414A"/>
<path d="M292.931 237.154C291.67 237.154 291.418 238.194 291.418 239.454C291.418 240.714 291.702 241.817 292.931 241.817C293.687 241.817 294.223 241.376 294.286 240.62L295.294 240.683C295.105 241.848 294.317 242.605 292.962 242.605C291.103 242.605 290.568 241.313 290.379 239.485C290.064 236.555 293.561 235.358 295.01 237.469C295.136 237.69 295.168 237.91 295.231 238.162L294.223 238.257C294.096 237.595 293.718 237.154 292.931 237.154Z" fill="#3A414A"/>
<path d="M297.436 240.998C297.373 241.754 298.003 241.911 298.633 241.691V242.447C297.594 242.762 296.428 242.605 296.428 241.218V237.217H295.735V236.492H296.491L296.775 235.138H297.436V236.492H298.539V237.217H297.436V240.998Z" fill="#3A414A"/>
<path d="M305.061 234.57C307.644 234.35 307.991 237.312 306.415 238.729L304.462 240.462C304.116 240.809 303.737 241.155 303.548 241.628H307.613V242.479H302.446C302.509 239.359 306.479 239.517 306.479 236.744C306.479 235.862 305.974 235.39 305.061 235.39C304.147 235.39 303.611 235.862 303.517 236.681L302.509 236.587C302.698 235.295 303.58 234.697 305.061 234.57Z" fill="#3A414A"/>
<path d="M311.362 234.57C313.504 234.57 314.04 236.303 314.04 238.572C314.04 240.84 313.41 242.605 311.33 242.605C309.219 242.605 308.621 240.84 308.621 238.572C308.621 236.272 309.156 234.57 311.362 234.57ZM311.33 241.785C312.811 241.785 313.032 240.242 313.032 238.572C313.032 236.902 312.906 235.358 311.362 235.358C309.755 235.358 309.629 236.87 309.629 238.572C309.629 240.242 309.787 241.785 311.33 241.785Z" fill="#3A414A"/>
<path d="M317.663 234.57C320.247 234.35 320.593 237.312 319.018 238.729L317.065 240.462C316.718 240.809 316.34 241.155 316.151 241.628H320.215V242.479H315.048C315.111 239.359 319.081 239.517 319.081 236.744C319.081 235.862 318.577 235.39 317.663 235.39C316.75 235.39 316.214 235.862 316.119 236.681L315.111 236.587C315.3 235.295 316.182 234.696 317.663 234.57Z" fill="#3A414A"/>
<path d="M323.965 234.57C326.548 234.35 326.895 237.312 325.319 238.729L323.366 240.462C323.019 240.809 322.641 241.155 322.452 241.628H326.517V242.479H321.35C321.413 239.359 325.382 239.517 325.382 236.744C325.382 235.862 324.878 235.39 323.965 235.39C323.051 235.39 322.515 235.862 322.421 236.681L321.413 236.587C321.602 235.295 322.484 234.696 323.965 234.57Z" fill="#3A414A"/>
<path d="M195.116 158.065C214.745 168.966 227.17 168.966 234.505 168.966C246.332 168.966 262.067 158.065 273.894 158.065C281.353 158.065 293.654 158.065 313.413 168.966V223.739C293.654 212.773 281.345 212.773 273.894 212.773C262.067 212.773 246.332 223.739 234.505 223.739C227.17 223.739 214.745 223.739 195.109 212.773L195.116 158.065Z" fill="white" stroke="#3A414A"/>
<path d="M223.702 173.998V183.9H222.172V173.998H218.346V172.738H227.528V173.998H223.702Z" fill="#3A414A"/>
<path d="M232.389 176.563C228.878 175.843 230.003 180.659 229.823 183.9H228.383L228.338 175.348H229.688C229.733 175.888 229.643 176.653 229.778 177.104C230.048 175.888 230.814 174.898 232.389 175.258V176.563Z" fill="#3A414A"/>
<path d="M237.115 175.168C239.951 175.168 240.986 177.059 240.896 179.939H234.819C234.819 181.74 235.45 182.955 237.205 183C238.375 183.045 239.14 182.46 239.41 181.694L240.671 182.055C240.176 183.315 239.005 184.08 237.205 184.08C234.594 184.08 233.244 182.415 233.289 179.579C233.334 176.833 234.459 175.168 237.115 175.168ZM239.455 178.814C239.725 176.113 236.035 175.348 235.09 177.554C234.955 177.869 234.819 178.319 234.819 178.814H239.455Z" fill="#3A414A"/>
<path d="M247.962 182.28C247.287 183.225 246.567 184.125 244.901 184.08C243.281 184.035 242.291 183.135 242.291 181.514C242.246 178.634 245.127 178.679 247.917 178.679C248.052 177.104 247.512 176.248 246.072 176.248C244.991 176.293 244.226 176.563 244.181 177.644L242.696 177.509C242.921 175.843 244.181 175.168 246.117 175.168C248.142 175.168 249.357 176.068 249.357 178.049V181.74C249.312 182.64 249.672 183.18 250.618 182.955V183.855C249.222 184.26 247.872 183.765 247.962 182.28ZM243.776 181.514C243.776 182.415 244.316 183 245.217 183C247.062 182.865 248.052 181.694 247.917 179.669C245.982 179.759 243.776 179.444 243.776 181.514Z" fill="#3A414A"/>
<path d="M253.273 181.785C253.183 182.865 254.083 183.09 254.984 182.775V183.855C253.498 184.305 251.833 184.08 251.833 182.1V176.383H250.843V175.348H251.923L252.328 173.413H253.273V175.348H254.848V176.383H253.273V181.785Z" fill="#3A414A"/>
<path d="M264.571 176.293C261.555 176.428 262.86 181.019 262.59 183.9H261.195V178.454C261.195 177.149 260.97 176.203 259.62 176.293C256.649 176.473 257.909 180.974 257.639 183.9H256.244L256.199 175.348H257.549C257.594 175.798 257.504 176.428 257.639 176.788C258.089 174.808 262.095 174.538 262.455 176.788C262.95 175.843 263.67 175.213 265.066 175.168C268.891 175.078 267.181 180.524 267.541 183.9H266.146V178.454C266.146 177.149 265.921 176.248 264.571 176.293Z" fill="#3A414A"/>
<path d="M273.077 175.168C275.913 175.168 276.948 177.059 276.858 179.939H270.782C270.782 181.74 271.412 182.955 273.167 183C274.338 183.045 275.103 182.46 275.373 181.694L276.633 182.055C276.138 183.315 274.968 184.08 273.167 184.08C270.557 184.08 269.207 182.415 269.252 179.579C269.297 176.833 270.422 175.168 273.077 175.168ZM275.418 178.814C275.688 176.113 271.997 175.348 271.052 177.554C270.917 177.869 270.782 178.319 270.782 178.814H275.418Z" fill="#3A414A"/>
<path d="M282.844 175.168C286.85 174.988 285.23 180.389 285.545 183.9H284.105V178.454C284.105 177.059 283.744 176.248 282.349 176.293C279.109 176.383 280.369 180.884 280.144 183.9H278.703L278.658 175.348H280.009C280.054 175.798 279.964 176.428 280.099 176.788C280.594 175.798 281.404 175.213 282.844 175.168Z" fill="#3A414A"/>
<path d="M289.236 181.785C289.146 182.865 290.046 183.09 290.946 182.775V183.855C289.461 184.305 287.795 184.08 287.795 182.1V176.383H286.805V175.348H287.885L288.29 173.413H289.236V175.348H290.811V176.383H289.236V181.785Z" fill="#3A414A"/>
<path d="M227.573 192.047C231.219 192.047 233.109 194.117 233.109 197.718C233.109 201.274 231.129 203.524 227.573 203.524C223.927 203.524 222.037 201.319 222.037 197.718C222.037 194.117 223.927 192.047 227.573 192.047ZM227.573 202.264C230.408 202.264 231.579 200.418 231.579 197.718C231.579 195.017 230.273 193.262 227.573 193.262C224.827 193.262 223.567 195.017 223.567 197.718C223.567 200.418 224.827 202.219 227.573 202.264Z" fill="#3A414A"/>
<path d="M238.195 195.737C236.395 195.737 236.035 197.223 236.035 199.023C236.035 200.823 236.44 202.399 238.195 202.399C239.275 202.399 240.04 201.769 240.13 200.688L241.571 200.778C241.301 202.444 240.175 203.524 238.24 203.524C235.584 203.524 234.819 201.679 234.549 199.068C234.099 194.882 239.095 193.172 241.166 196.188C241.346 196.503 241.391 196.818 241.481 197.178L240.04 197.313C239.86 196.368 239.32 195.737 238.195 195.737Z" fill="#3A414A"/>
<path d="M246.297 195.737C244.496 195.737 244.136 197.223 244.136 199.023C244.136 200.823 244.541 202.399 246.297 202.399C247.377 202.399 248.142 201.769 248.232 200.688L249.672 200.778C249.402 202.444 248.277 203.524 246.342 203.524C243.686 203.524 242.921 201.679 242.651 199.068C242.201 194.882 247.197 193.172 249.267 196.188C249.447 196.503 249.492 196.818 249.582 197.178L248.142 197.313C247.962 196.368 247.422 195.737 246.297 195.737Z" fill="#3A414A"/>
<path d="M253.858 203.524C249.853 203.704 251.428 198.303 251.113 194.792H252.553V200.193C252.553 201.589 252.868 202.444 254.308 202.399C257.549 202.309 256.334 197.853 256.559 194.792H257.954L257.999 203.344H256.649C256.604 202.894 256.694 202.219 256.559 201.859C256.064 202.849 255.299 203.479 253.858 203.524Z" fill="#3A414A"/>
<path d="M264.211 196.007C260.7 195.287 261.825 200.103 261.645 203.344H260.205L260.16 194.792H261.51C261.555 195.332 261.465 196.098 261.6 196.548C261.87 195.332 262.635 194.342 264.211 194.702V196.007Z" fill="#3A414A"/>
<path d="M269.567 196.007C266.056 195.287 267.181 200.103 267.001 203.344H265.561L265.516 194.792H266.866C266.911 195.332 266.821 196.098 266.956 196.548C267.226 195.332 267.991 194.342 269.567 194.702V196.007Z" fill="#3A414A"/>
<path d="M274.292 194.612C277.128 194.612 278.163 196.503 278.073 199.383H271.997C271.997 201.184 272.627 202.399 274.382 202.444C275.553 202.489 276.318 201.904 276.588 201.139L277.848 201.499C277.353 202.759 276.183 203.524 274.382 203.524C271.772 203.524 270.422 201.859 270.467 199.023C270.512 196.278 271.637 194.612 274.292 194.612ZM276.633 198.258C276.903 195.557 273.212 194.792 272.267 196.998C272.132 197.313 271.997 197.763 271.997 198.258H276.633Z" fill="#3A414A"/>
<path d="M282.619 194.612C284.015 194.612 284.78 195.197 285.32 196.097L285.275 191.597H286.715L286.76 203.344H285.41C285.32 202.894 285.41 202.309 285.275 201.949C284.825 202.984 284.015 203.524 282.619 203.524C280.234 203.524 279.514 201.769 279.469 199.113C279.469 196.142 280.504 194.612 282.619 194.612ZM283.024 195.692C281.224 195.692 280.954 197.223 280.954 199.068C280.954 200.868 281.224 202.399 282.979 202.399C284.87 202.399 285.275 200.958 285.275 198.978C285.275 197.088 284.87 195.647 283.024 195.692Z" fill="#3A414A"/>
<path d="M216.717 255.851C215.456 255.851 215.204 256.89 215.204 258.151C215.204 259.411 215.488 260.514 216.717 260.514C217.473 260.514 218.008 260.073 218.071 259.316L219.08 259.379C218.89 260.545 218.103 261.301 216.748 261.301C214.889 261.301 214.354 260.01 214.164 258.182C213.849 255.252 217.347 254.055 218.796 256.166C218.922 256.386 218.953 256.607 219.016 256.859L218.008 256.953C217.882 256.292 217.504 255.851 216.717 255.851Z" fill="#3A414A"/>
<path d="M222.514 255.063C224.467 255.031 225.192 256.229 225.192 258.182C225.223 260.167 224.341 261.301 222.482 261.301C220.623 261.301 219.867 260.073 219.836 258.182C219.836 256.103 220.718 255.063 222.514 255.063ZM222.482 260.545C223.869 260.577 224.152 259.568 224.152 258.182C224.152 256.827 223.9 255.819 222.545 255.819C221.191 255.819 220.876 256.827 220.876 258.182C220.876 259.537 221.191 260.514 222.482 260.545Z" fill="#3A414A"/>
<path d="M232.281 255.851C230.17 255.945 231.084 259.159 230.895 261.175H229.918V257.363C229.918 256.449 229.76 255.788 228.815 255.851C226.736 255.977 227.618 259.127 227.429 261.175H226.452L226.421 255.189H227.366C227.397 255.504 227.334 255.945 227.429 256.197C227.744 254.811 230.548 254.622 230.8 256.197C231.147 255.536 231.651 255.095 232.627 255.063C235.305 255 234.108 258.812 234.36 261.175H233.384V257.363C233.384 256.449 233.226 255.819 232.281 255.851Z" fill="#3A414A"/>
<path d="M238.708 255.063C240.441 255.095 240.914 256.355 240.914 258.151C240.914 259.947 240.41 261.238 238.708 261.301C237.731 261.301 237.164 260.892 236.818 260.23L236.849 263.538H235.841L235.81 255.189H236.786L236.849 256.134C237.164 255.473 237.731 255.063 238.708 255.063ZM238.456 260.545C239.716 260.545 239.874 259.474 239.874 258.182C239.874 256.89 239.685 255.882 238.456 255.851C237.133 255.851 236.849 256.859 236.849 258.245C236.849 259.6 237.164 260.545 238.456 260.545Z" fill="#3A414A"/>
<path d="M242.142 261.175V252.952H243.151V261.175H242.142Z" fill="#3A414A"/>
<path d="M247.026 255.063C249.011 255.063 249.735 256.386 249.672 258.403H245.419C245.419 259.663 245.86 260.514 247.089 260.545C247.908 260.577 248.444 260.167 248.633 259.631L249.515 259.883C249.168 260.766 248.349 261.301 247.089 261.301C245.261 261.301 244.316 260.136 244.348 258.151C244.379 256.229 245.167 255.063 247.026 255.063ZM248.664 257.615C248.853 255.725 246.27 255.189 245.608 256.733C245.514 256.953 245.419 257.268 245.419 257.615H248.664Z" fill="#3A414A"/>
<path d="M252.035 259.694C251.972 260.451 252.603 260.608 253.233 260.388V261.144C252.193 261.459 251.027 261.301 251.027 259.915V255.914H250.334V255.189H251.09L251.374 253.834H252.035V255.189H253.138V255.914H252.035V259.694Z" fill="#3A414A"/>
<path d="M256.478 255.063C258.463 255.063 259.187 256.386 259.124 258.403H254.871C254.871 259.663 255.312 260.514 256.541 260.545C257.36 260.577 257.896 260.167 258.085 259.631L258.967 259.883C258.62 260.766 257.801 261.301 256.541 261.301C254.714 261.301 253.768 260.136 253.8 258.151C253.831 256.229 254.619 255.063 256.478 255.063ZM258.116 257.615C258.305 255.725 255.722 255.189 255.06 256.733C254.966 256.953 254.871 257.268 254.871 257.615H258.116Z" fill="#3A414A"/>
<path d="M262.307 255.063C263.283 255.063 263.819 255.473 264.197 256.103L264.165 252.952H265.174L265.205 261.175H264.26C264.197 260.86 264.26 260.451 264.165 260.199C263.85 260.923 263.283 261.301 262.307 261.301C260.637 261.301 260.133 260.073 260.101 258.214C260.101 256.134 260.826 255.063 262.307 255.063ZM262.59 255.819C261.33 255.819 261.141 256.89 261.141 258.182C261.141 259.442 261.33 260.514 262.559 260.514C263.882 260.514 264.165 259.505 264.165 258.119C264.165 256.796 263.882 255.788 262.59 255.819Z" fill="#3A414A"/>
<path d="M272.389 261.175L271.506 258.907H267.946L267.064 261.175H265.961L269.143 253.362H270.341L273.46 261.175H272.389ZM271.191 258.056L269.711 254.181C269.332 255.599 268.734 256.764 268.261 258.056H271.191Z" fill="#3A414A"/>
<path d="M275.35 259.694C275.287 260.451 275.917 260.608 276.548 260.388V261.144C275.508 261.459 274.342 261.301 274.342 259.915V255.914H273.649V255.189H274.405L274.689 253.834H275.35V255.189H276.453V255.914H275.35V259.694Z" fill="#3A414A"/>
<path d="M277.682 256.323V255.189H278.753V256.323H277.682ZM277.682 261.175V260.041H278.753V261.175H277.682Z" fill="#3A414A"/>
<path d="M284.645 256.701C286.157 255.599 288.961 256.449 288.772 258.623C289.118 261.742 283.92 262.215 283.384 259.442L284.392 259.316C284.613 260.041 285.086 260.482 286.031 260.482C287.134 260.451 287.638 259.789 287.732 258.655C287.858 256.922 285.432 256.607 284.613 257.584H283.636L283.888 253.362H288.331V254.212H284.802" fill="#3A414A"/>
<path d="M293.34 253.362C297.058 253.141 300.146 253.614 300.051 257.205C299.957 259.663 298.696 261.175 296.239 261.175H293.34V253.362ZM294.38 260.325C297.184 260.577 298.98 259.82 298.98 257.205C298.98 254.59 297.09 254.023 294.38 254.212V260.325Z" fill="#3A414A"/>
<path d="M303.706 255.063C305.691 255.063 306.415 256.386 306.352 258.403H302.099C302.099 259.663 302.54 260.514 303.769 260.545C304.588 260.577 305.124 260.167 305.313 259.631L306.195 259.883C305.848 260.766 305.029 261.301 303.769 261.301C301.942 261.301 300.996 260.136 301.028 258.151C301.059 256.229 301.847 255.063 303.706 255.063ZM305.344 257.615C305.533 255.725 302.95 255.189 302.288 256.733C302.194 256.953 302.099 257.268 302.099 257.615H305.344Z" fill="#3A414A"/>
<path d="M309.881 255.851C308.621 255.851 308.369 256.89 308.369 258.151C308.369 259.411 308.653 260.514 309.881 260.514C310.637 260.514 311.173 260.073 311.236 259.316L312.244 259.379C312.055 260.545 311.268 261.301 309.913 261.301C308.054 261.301 307.518 260.01 307.329 258.182C307.014 255.252 310.511 254.055 311.961 256.166C312.087 256.386 312.118 256.607 312.181 256.859L311.173 256.953C311.047 256.292 310.669 255.851 309.881 255.851Z" fill="#3A414A"/>
<path d="M318.861 253.267C321.444 253.047 321.791 256.008 320.215 257.426L318.262 259.159C317.915 259.505 317.537 259.852 317.348 260.325H321.413V261.175H316.246C316.309 258.056 320.278 258.214 320.278 255.441C320.278 254.559 319.774 254.086 318.861 254.086C317.947 254.086 317.411 254.559 317.317 255.378L316.309 255.284C316.498 253.992 317.38 253.393 318.861 253.267Z" fill="#3A414A"/>
<path d="M325.162 253.267C327.304 253.267 327.84 255 327.84 257.268C327.84 259.537 327.21 261.301 325.13 261.301C323.02 261.301 322.421 259.537 322.421 257.268C322.421 254.968 322.957 253.267 325.162 253.267ZM325.13 260.482C326.611 260.482 326.832 258.938 326.832 257.268C326.832 255.599 326.706 254.055 325.162 254.055C323.555 254.055 323.429 255.567 323.429 257.268C323.429 258.938 323.587 260.482 325.13 260.482Z" fill="#3A414A"/>
<path d="M331.463 253.267C334.047 253.047 334.393 256.008 332.818 257.426L330.865 259.159C330.518 259.505 330.14 259.852 329.951 260.325H334.015V261.175H328.848C328.911 258.056 332.881 258.214 332.881 255.441C332.881 254.559 332.377 254.086 331.463 254.086C330.549 254.086 330.014 254.559 329.919 255.378L328.911 255.284C329.1 253.992 329.982 253.393 331.463 253.267Z" fill="#3A414A"/>
<path d="M337.764 253.267C340.348 253.047 340.695 256.008 339.119 257.426L337.166 259.159C336.819 259.505 336.441 259.852 336.252 260.325H340.316V261.175H335.149C335.212 258.056 339.182 258.214 339.182 255.441C339.182 254.559 338.678 254.086 337.764 254.086C336.851 254.086 336.315 254.559 336.221 255.378L335.212 255.284C335.401 253.992 336.284 253.393 337.764 253.267Z" fill="#3A414A"/>
<path d="M216.37 273.76C217.347 273.76 217.882 274.169 218.26 274.799L218.229 271.649H219.237L219.269 279.872H218.323C218.26 279.557 218.323 279.147 218.229 278.895C217.914 279.62 217.347 279.998 216.37 279.998C214.7 279.998 214.196 278.769 214.165 276.91C214.165 274.831 214.889 273.76 216.37 273.76ZM216.654 274.516C215.393 274.516 215.204 275.587 215.204 276.879C215.204 278.139 215.393 279.21 216.622 279.21C217.945 279.21 218.229 278.202 218.229 276.816C218.229 275.492 217.945 274.484 216.654 274.516Z" fill="#3A414A"/>
<path d="M223.144 273.76C225.097 273.728 225.822 274.925 225.822 276.879C225.854 278.864 224.971 279.998 223.112 279.998C221.254 279.998 220.497 278.769 220.466 276.879C220.466 274.799 221.348 273.76 223.144 273.76ZM223.112 279.242C224.499 279.273 224.782 278.265 224.782 276.879C224.782 275.524 224.53 274.516 223.175 274.516C221.821 274.516 221.506 275.524 221.506 276.879C221.506 278.234 221.821 279.21 223.112 279.242Z" fill="#3A414A"/>
<path d="M230.548 275.366C230.453 274.295 227.838 274.169 227.807 275.366C228.279 277.036 231.43 275.745 231.556 278.202C231.682 280.66 226.83 280.534 226.61 278.454L227.492 278.297C227.618 279.431 230.548 279.714 230.579 278.297C230.264 276.532 227.019 277.824 226.862 275.461C226.736 273.665 229.445 273.476 230.705 274.138C231.084 274.358 231.367 274.736 231.462 275.24" fill="#3A414A"/>
<path d="M235.116 273.76C237.101 273.76 237.826 275.083 237.763 277.099H233.509C233.509 278.36 233.951 279.21 235.179 279.242C235.998 279.273 236.534 278.864 236.723 278.328L237.605 278.58C237.259 279.462 236.44 279.998 235.179 279.998C233.352 279.998 232.407 278.832 232.438 276.847C232.47 274.925 233.257 273.76 235.116 273.76ZM236.755 276.312C236.944 274.421 234.36 273.886 233.699 275.429C233.604 275.65 233.509 275.965 233.509 276.312H236.755Z" fill="#3A414A"/>
<path d="M242.678 271.964C245.23 271.964 246.553 273.413 246.553 275.934C246.553 278.423 245.167 279.998 242.678 279.998C240.126 279.998 238.803 278.454 238.803 275.934C238.803 273.413 240.126 271.964 242.678 271.964ZM242.678 279.116C244.663 279.116 245.482 277.824 245.482 275.934C245.482 274.043 244.568 272.814 242.678 272.814C240.756 272.814 239.874 274.043 239.874 275.934C239.874 277.824 240.756 279.084 242.678 279.116Z" fill="#3A414A"/>
<path d="M250.271 272.499C249.294 272.216 248.948 272.814 249.074 273.886H250.271V274.61H249.074V279.872H248.097V274.61H247.246V273.886H248.097C247.876 272.247 248.633 271.302 250.271 271.743V272.499Z" fill="#3A414A"/>
<path d="M251.279 275.02V273.886H252.35V275.02H251.279ZM251.279 279.872V278.738H252.35V279.872H251.279Z" fill="#3A414A"/>
<path d="M260.227 273.76C263.031 273.634 261.897 277.414 262.117 279.872H261.109V276.06C261.109 275.083 260.857 274.516 259.881 274.547C257.612 274.61 258.494 277.761 258.337 279.872H257.329L257.297 273.886H258.242C258.274 274.201 258.211 274.642 258.305 274.894C258.652 274.201 259.219 273.791 260.227 273.76Z" fill="#3A414A"/>
<path d="M265.489 279.998C262.685 280.124 263.787 276.343 263.567 273.886H264.575V277.666C264.575 278.643 264.796 279.242 265.804 279.21C268.072 279.147 267.222 276.028 267.379 273.886H268.356L268.387 279.872H267.442C267.411 279.557 267.474 279.084 267.379 278.832C267.033 279.525 266.497 279.966 265.489 279.998Z" fill="#3A414A"/>
<path d="M269.9 279.872V271.649H270.908V279.872H269.9Z" fill="#3A414A"/>
<path d="M272.389 279.872V271.649H273.397V279.872H272.389Z" fill="#3A414A"/>
<path d="M194.387 34.4009L191.456 34.4739L188.51 34.6926L185.812 35.0061L183.333 35.4217L181 35.9322L178.798 36.5155L176.683 37.2009L174.605 37.9738L172.549 38.8633L170.456 39.8841L168.269 41.0873L165.841 42.5674L162.895 44.5726L147.269 56.239L144.849 57.7192L142.661 58.9222L140.561 59.9431L138.505 60.8326L136.434 61.6055L134.32 62.2909L132.11 62.8888L130.251 63.2898" stroke="#3A414A" stroke-linejoin="round"/>
<path d="M194.752 34.7655H194.387L194.358 34.0363H194.744L194.752 34.7655Z" fill="#3A414A" stroke="#3A414A" stroke-width="0.05"/>
<path d="M119.532 64.2961L129.573 59.9503L130.215 66.6804L119.532 64.2961Z" fill="#3A414A" stroke="#3A414A"/>
<path d="M314.143 34.4009L319.247 34.5322L323.767 34.8822L327.668 35.3926L331.146 36.0197L334.398 36.7926L337.607 37.7259L341.063 38.9363L346.116 41.0216L356.995 45.7027L360.458 46.9132L363.666 47.861L366.911 48.6193L370.396 49.261L372.38 49.5162" stroke="#3A414A" stroke-linejoin="round"/>
<path d="M314.157 34.0363L314.143 34.7655H313.778V34.0363H314.157Z" fill="#3A414A" stroke="#3A414A" stroke-width="0.05"/>
<path d="M383.12 50.1724L372.533 52.9067L372.948 46.1621L383.12 50.1724Z" fill="#3A414A" stroke="#3A414A"/>
<path d="M314.143 210.906L315.105 210.884L316.381 210.782L317.621 210.622L318.809 210.403L319.976 210.133L321.113 209.805L322.236 209.411L323.359 208.959L324.489 208.427L325.627 207.822L326.771 207.122L327.953 206.32L329.17 205.401L330.439 204.337L331.788 203.082L333.224 201.602L334.785 199.801L336.52 197.592L338.525 194.748L340.99 190.811L344.665 184.219L357.06 160.5L359.525 156.563L361.53 153.719L363.265 151.517L364.826 149.731L366.262 148.25L367.604 146.996L368.873 145.932L370.098 145.006L371.279 144.204L372.431 143.511L372.825 143.292" stroke="#3A414A" stroke-linejoin="round"/>
<path d="M314.157 211.271H313.771V210.542H314.135L314.157 211.271Z" fill="#3A414A" stroke="#3A414A" stroke-width="0.05"/>
<path d="M383.164 140.675L373.904 146.508L372.241 139.945L383.164 140.675Z" fill="#3A414A" stroke="#3A414A"/>
<path d="M194.387 171.175L193.76 171.16L192.812 171.102L191.879 171.007L190.967 170.861L190.092 170.701L189.203 170.497L188.328 170.249L187.467 169.979L186.607 169.658L185.732 169.294L184.872 168.878L183.997 168.419L183.1 167.908L182.196 167.325L181.262 166.669L180.314 165.94L179.315 165.123L178.295 164.197L177.201 163.14L176.063 161.922L174.846 160.515L173.533 158.859L172.111 156.891L170.529 154.499L168.721 151.51L166.577 147.601L163.792 141.972L158.542 130.014L149.369 108.694L146.584 103.065L144.433 99.1567L142.632 96.1672L141.042 93.7828L139.621 91.8142L138.308 90.159L137.09 88.7444L135.946 87.5268L134.874 86.4695L133.838 85.5362L132.854 84.7195L131.906 83.9904L130.958 83.3342L130.054 82.7654L129.792 82.605" stroke="#3A414A" stroke-linejoin="round"/>
<path d="M194.752 170.825V171.554L194.358 171.539L194.372 170.81L194.752 170.825Z" fill="#3A414A" stroke="#3A414A" stroke-width="0.05"/>
<path d="M119.503 79.7832L130.426 79.2728L128.632 85.7987L119.503 79.7832Z" fill="#3A414A" stroke="#3A414A"/>
</svg>
