<?xml version="1.0" encoding="UTF-8"?>
<svg width="1200pt" height="1200pt" version="1.1" viewBox="0 0 1200 1200" xmlns="http://www.w3.org/2000/svg">
 <g fill="#3b6af9">
  <path d="m375.94 921.56 20.625-10.312-66.562-83.438c4.6875-1.875 9.375-3.75 14.062-6.5625l20.625-10.312-62.812-79.688c2.8125-0.9375 4.6875-1.875 7.5-3.75l20.625-10.312-108.75-137.81-105.94 138.75 20.625 10.312c1.875 0.9375 4.6875 1.875 6.5625 2.8125l-62.812 80.625 20.625 10.312c3.75 1.875 8.4375 3.75 13.125 5.625l-64.688 84.375 20.625 10.312c43.125 20.625 88.125 32.812 134.06 35.625v138.75h37.5v-139.69c46.875-2.8125 91.875-14.062 135-35.625zm-200.62-112.5-25.312-8.4375c-3.75-0.9375-7.5-2.8125-11.25-3.75l65.625-85.312-26.25-7.5c-1.875 0-2.8125-0.9375-4.6875-0.9375l47.812-61.875 49.688 61.875c-1.875 0.9375-3.75 0.9375-5.625 1.875l-26.25 7.5 67.5 85.312c-3.75 1.875-8.4375 2.8125-12.188 3.75l-26.25 8.4375 69.375 88.125c-35.625 14.062-72.188 21.562-109.69 22.5-41.25 0.9375-81.562-6.5625-120.94-22.5z"/>
  <path d="m213.75 523.12c36.562 17.812 73.125 27.188 111.56 30v115.31h37.5v-115.31c38.438-2.8125 75.938-12.188 111.56-30l20.625-10.312-55.312-70.312c2.8125-0.9375 5.625-2.8125 8.4375-3.75l20.625-10.312-53.438-67.5c0.9375-0.9375 1.875-0.9375 2.8125-1.875l20.625-10.312-96.562-121.88-93.75 121.88 20.625 10.312c0.9375 0 1.875 0.9375 2.8125 0.9375l-52.5 68.438 20.625 10.312c2.8125 0.9375 4.6875 1.875 7.5 3.75l-54.375 71.25zm94.688-99.375-25.312-8.4375c-1.875-0.9375-3.75-0.9375-5.625-1.875l55.312-72.188-26.25-7.5 35.625-45.938 36.562 45.938-27.188 7.5 57.188 72.188c-1.875 0.9375-3.75 1.875-6.5625 1.875l-26.25 8.4375 59.062 74.062c-29.062 11.25-58.125 16.875-88.125 17.812-32.812 0.9375-65.625-5.625-97.5-17.812z"/>
  <path d="m1110 915.94 20.625-10.312-41.25-51.562 18.75-9.375-80.625-102.19-78.75 102.19 17.812 8.4375-40.312 52.5 20.625 10.312h0.9375l-30 38.438c0.9375-31.875 0-62.812-3.75-93.75-12.188-97.5-43.125-164.06-71.25-222.19-27.188-57.188-48.75-102.19-41.25-157.5 12.188-85.312 90-165 233.44-237.19l56.25-28.125-62.812-6.5625c-59.062-6.5625-176.25-7.5-295.31 59.062-33.75 18.75-109.69 68.438-169.69 156.56v-80.625c28.125-2.8125 56.25-10.312 82.5-23.438l20.625-10.312-42.188-53.438s0.9375 0 0.9375-0.9375l20.625-10.312-41.25-51.562 18.75-9.375-79.688-102.19-78.75 102.19 17.812 8.4375-40.312 52.5 20.625 10.312h0.9375l-41.25 53.438 20.625 10.312c27.188 13.125 54.375 20.625 82.5 22.5v84.375h35.625c-12.188 18.75-23.438 38.438-33.75 60-37.5 78.75-37.5 137.81-38.438 195-0.9375 50.625-0.9375 97.5-26.25 158.44-38.438 91.875-110.62 169.69-215.62 232.5l19.688 31.875c111.56-66.562 189.38-150.94 231.56-250.31 28.125-67.5 29.062-120.94 29.062-172.5 0.9375-55.312 0.9375-107.81 34.688-179.06 56.25-119.06 150.94-181.88 189.38-203.44 75-41.25 149.06-54.375 206.25-56.25-117.19 70.312-181.88 148.12-193.12 232.5-9.375 66.562 15.938 119.06 45 179.06 27.188 56.25 57.188 119.06 68.438 210 9.375 78.75 1.875 160.31-21.562 241.88l35.625 10.312c14.062-47.812 22.5-95.625 25.312-142.5l10.312 4.6875c27.188 13.125 54.375 20.625 82.5 22.5v84.375h37.5v-82.5c28.125-2.8125 56.25-10.312 82.5-23.438l20.625-10.312-42.188-53.438h0.9375zm-565.31-772.5 20.625 25.312-20.625 5.625-19.688-5.625zm-19.688 94.688-23.438-7.5 42.188-55.312 44.062 55.312-24.375 7.5 45 57.188c-19.688 6.5625-39.375 10.312-60 11.25-22.5 0-45-3.75-67.5-11.25zm502.5 565.31 20.625 25.312-20.625 5.625-19.688-5.625zm3.75 163.12c-22.5 0-45-3.75-67.5-11.25l44.062-57.188-23.438-7.5 42.188-55.312 44.062 55.312-24.375 7.5 45 57.188c-19.688 7.5-39.375 11.25-60 11.25z"/>
  <path d="m1103.4 493.12-52.5-66.562c0.9375 0 1.875-0.9375 2.8125-0.9375l20.625-10.312-95.625-120.94-93.75 120.94 20.625 10.312c0.9375 0 0.9375 0.9375 1.875 0.9375l-51.562 67.5 20.625 10.312c1.875 0.9375 4.6875 1.875 7.5 2.8125l-54.375 70.312 20.625 10.312c35.625 16.875 72.188 27.188 110.62 30v113.44h37.5v-114.38c37.5-2.8125 75-12.188 110.62-30l20.625-10.312-55.312-69.375c2.8125-0.9375 5.625-2.8125 7.5-3.75zm-119.06 87.188c-32.812 0-64.688-5.625-95.625-16.875l57.188-74.062-25.312-8.4375c-1.875-0.9375-3.75-0.9375-4.6875-1.875l55.312-71.25-25.312-7.5 34.688-45 35.625 45-27.188 7.5 56.25 71.25c-1.875 0.9375-3.75 0.9375-5.625 1.875l-26.25 8.4375 58.125 73.125c-29.062 11.25-58.125 16.875-87.188 17.812z"/>
 </g>
</svg>
