<svg width="212" height="212" viewBox="0 0 212 212" fill="none" xmlns="http://www.w3.org/2000/svg">
<mask id="mask0_0_1" style="mask-type:alpha" maskUnits="userSpaceOnUse" x="1" y="1" width="210" height="210">
<circle cx="106" cy="106" r="102.5" fill="#D9D9D9" stroke="black" stroke-width="5"/>
</mask>
<g mask="url(#mask0_0_1)">
<path d="M217.512 94.4726L109.516 40.4724C108.248 39.8425 106.756 39.8425 105.488 40.4724L-2.51228 94.4726C-4.03735 95.2351 -5 96.7928 -5 98.4976C-5 100.202 -4.03727 101.76 -2.51458 102.523L1.75294 104.655L1.75213 132.249C1.75213 133.914 2.6644 135.439 4.13255 136.216L105.345 190.197C105.353 190.202 105.36 190.207 105.368 190.212L105.38 190.217C105.388 190.222 105.395 190.227 105.406 190.229C105.548 190.309 105.693 190.376 105.846 190.429C105.888 190.45 105.926 190.462 105.969 190.479C106.088 190.524 106.214 190.561 106.339 190.596C106.384 190.611 106.434 190.624 106.477 190.636C106.602 190.659 106.729 190.681 106.859 190.699C106.901 190.706 106.944 190.716 106.992 190.721C107.157 190.739 107.329 190.754 107.502 190.754C107.672 190.754 107.845 190.739 108.012 190.721C108.057 190.716 108.103 190.707 108.145 190.699C108.275 190.678 108.402 190.656 108.525 190.636C108.57 190.624 108.62 190.611 108.665 190.596C108.79 190.561 108.915 190.524 109.035 190.479C109.08 190.461 109.117 190.449 109.158 190.429C109.31 190.376 109.458 190.31 109.601 190.229C109.606 190.227 109.615 190.222 109.624 190.217L109.636 190.212C109.641 190.207 109.65 190.202 109.659 190.197L210.876 136.216C212.338 135.439 213.256 133.914 213.256 132.249L213.253 104.659L217.511 102.524C219.032 101.762 220 100.204 220 98.4993C220 96.7945 219.032 95.2368 217.51 94.4743L217.512 94.4726ZM107.501 147.469L23.0653 105.248L107.501 63.0266L191.939 105.248L107.501 147.469ZM107.501 49.5308L204.295 97.9268C204.27 98.1139 204.255 98.3044 204.255 98.5021V99.0946L202.003 100.219L109.517 53.9733C108.249 53.3434 106.757 53.3434 105.489 53.9733L13.0016 100.219L10.7539 99.0921L10.7547 98.4988C10.7547 98.3011 10.7368 98.1115 10.71 97.9267L107.501 49.5308ZM10.7528 109.156L103.001 155.277V178.754L10.7528 129.55V109.156ZM204.253 129.548L112.005 178.753V155.275L204.253 109.155V129.548Z" fill="black"/>
<path d="M128.276 97.2664L128.504 94.7761C130.209 92.919 131.156 90.7861 131.156 88.4732C131.156 80.9309 121.076 75.2457 107.71 75.2457C94.3426 75.2457 84.2642 80.9309 84.2642 88.4732C84.2642 90.7861 85.2139 92.9182 86.914 94.7761L89.3765 121.86C89.5092 127.86 97.347 132.372 107.709 132.372C118.071 132.372 125.907 127.86 126.047 121.86L126.177 120.385C130.151 118.94 134.037 115.858 135.087 111.39C135.872 108.082 135.304 102.957 128.274 97.2672L128.276 97.2664ZM107.709 81.2507C118.364 81.2507 125.159 85.528 125.159 88.4757C125.159 91.4184 118.361 95.6982 107.709 95.6982C97.056 95.6982 90.2616 91.4209 90.2616 88.4757C90.2608 85.5282 97.056 81.2507 107.709 81.2507V81.2507ZM107.709 126.37C100.057 126.37 95.3714 123.347 95.3714 121.7C95.3714 121.615 95.3714 121.52 95.3616 121.427L93.3263 99.0627C97.244 100.728 102.193 101.698 107.709 101.698C113.219 101.698 118.168 100.728 122.093 99.0627L120.594 115.475C112.806 116.275 103.726 112.818 100.579 104.946C99.9638 103.408 98.219 102.66 96.6792 103.276C95.1419 103.893 94.3892 105.638 95.0068 107.178C98.9741 117.087 109.055 121.606 118.349 121.606C118.918 121.606 119.484 121.581 120.049 121.548C120.049 121.601 120.044 121.648 120.044 121.703C120.045 123.347 115.358 126.37 107.708 126.37L107.709 126.37ZM129.248 110.012C128.948 111.282 128.019 112.412 126.818 113.3L127.578 104.962C129.016 106.787 129.603 108.519 129.248 110.012V110.012Z" fill="black"/>
</g>
<circle cx="106" cy="106" r="103.5" stroke="#64C7CA" stroke-width="5"/>
</svg>
