<?xml version="1.0" encoding="utf-8"?>
<!-- Generator: Adobe Illustrator 22.1.0, SVG Export Plug-In . SVG Version: 6.00 Build 0)  -->
<svg version="1.1" id="Layer_1" xmlns="http://www.w3.org/2000/svg" xmlns:xlink="http://www.w3.org/1999/xlink" x="0px" y="0px"
	 viewBox="0 0 1502 438" style="enable-background:new 0 0 1502 438;" xml:space="preserve">
<style type="text/css">
	.st0{fill:none;stroke:#000000;stroke-width:0.5;stroke-miterlimit:10;}
	.st1{fill:none;stroke:#000000;stroke-width:2;stroke-miterlimit:10;}
	.st2{font-family:'FontAwesome';}
	.st3{font-size:12px;}
	.st4{fill:#FFFFFF;stroke:#231F20;stroke-width:2;stroke-miterlimit:10;}
	.st5{fill:#8E8386;}
	.st6{fill:#F9F9F9;}
	.st7{font-family:'OpenSans';}
	.st8{font-family:'OpenSans-Semibold';}
	.st9{fill:#AF6923;}
	.st10{font-family:'OpenSans-Bold';}
	.st11{font-size:24px;}
	.st12{fill:#29588C;}
	.st13{fill:#110101;}
	.st14{clip-path:url(#SVGID_2_);}
	.st15{fill:#231F20;}
	.st16{clip-path:url(#SVGID_4_);}
	.st17{clip-path:url(#SVGID_6_);}
	.st18{clip-path:url(#SVGID_8_);}
	.st19{clip-path:url(#SVGID_10_);}
	.st20{clip-path:url(#SVGID_12_);}
	.st21{fill:#FFFFFF;}
	.st22{fill:none;stroke:#050000;stroke-width:2;stroke-miterlimit:10;}
	.st23{fill:#0A00E3;}
	.st24{fill:#ABABFF;}
	.st25{fill:none;stroke:#AF6923;stroke-width:2;stroke-miterlimit:10;}
	.st26{fill:#7C7C7C;}
	.st27{fill:#E5E5E5;}
	.st28{fill:#A3A3A3;}
	.st29{font-family:'OpenSans-Light';}
	.st30{font-size:20px;}
	.st31{fill:#60934C;}
	.st32{fill:#01BEBD;}
	.st33{fill:#DBDBDB;}
	.st34{fill:#232322;}
	.st35{fill:none;stroke:#29588C;stroke-width:2;stroke-miterlimit:10;}
	.st36{fill:none;stroke:#60934C;stroke-width:2;stroke-miterlimit:10;}
</style>
<rect x="816.45" y="22.5" class="st0" width="654" height="368"/>
<path class="st1" d="M1057.79,54.5h-121.5c-2.2,0-4-1.8-4-4v-8c0-2.2,1.8-4,4-4h121.5c2.2,0,4,1.8,4,4v8
	C1061.79,52.7,1059.99,54.5,1057.79,54.5z"/>
<text transform="matrix(1 0 0 1 935.7852 50.5)" class="st2 st3"></text>
<line class="st4" x1="922.45" y1="84" x2="922.45" y2="358.5"/>
<g>
	<rect x="833.95" y="105.17" class="st5" width="61" height="13"/>
	<text transform="matrix(1 0 0 1 835.4521 115.667)" class="st6 st7 st3">Foresight</text>
</g>
<text transform="matrix(1 0 0 1 827.4521 97.5)" class="st7 st3">Product</text>
<text transform="matrix(1 0 0 1 827.4521 170.1665)" class="st7 st3">Severity</text>
<text transform="matrix(1 0 0 1 827.4521 242.4702)" class="st7 st3">Consult Status</text>
<text transform="matrix(1 0 0 1 827.4521 305.9048)" class="st7 st3">Date</text>
<g>
	<text transform="matrix(1 0 0 1 827.7852 79.166)" class="st8 st3">Filter by:</text>
</g>
<text transform="matrix(1 0 0 1 951.4521 50.5)" class="st7 st3">Search</text>
<text transform="matrix(1 0 0 1 29.1191 169.5)" class="st9 st10 st11">Faceted Search</text>
<text transform="matrix(1 0 0 1 249.1191 169.5)" class="st12 st10 st11">Full Text Search</text>
<g>
	<rect x="833.95" y="135.5" class="st5" width="24.33" height="13"/>
	<text transform="matrix(1 0 0 1 836.4521 146)" class="st13 st7 st3">Reliant</text>
	<g>
		<defs>
			<rect id="SVGID_1_" x="834.12" y="135.33" width="24.33" height="13"/>
		</defs>
		<clipPath id="SVGID_2_">
			<use xlink:href="#SVGID_1_"  style="overflow:visible;"/>
		</clipPath>
		<g class="st14">
			<text transform="matrix(1 0 0 1 836.6191 146.167)" class="st6 st7 st3">Reliant</text>
		</g>
	</g>
</g>
<g>
	<rect x="833.95" y="119.83" class="st15" width="37.17" height="13"/>
	<text transform="matrix(1 0 0 1 836.4521 130.333)" class="st13 st7 st3">Rrelude</text>
	<g>
		<defs>
			<polygon id="SVGID_3_" points="871.04,132.75 834.12,132.67 834.12,119.67 871.04,119.75 			"/>
		</defs>
		<clipPath id="SVGID_4_">
			<use xlink:href="#SVGID_3_"  style="overflow:visible;"/>
		</clipPath>
		<g class="st16">
			<text transform="matrix(1 0 0 1 836.6191 130.5)" class="st6 st7 st3">Prelude</text>
		</g>
	</g>
</g>
<rect x="833.95" y="245.17" class="st15" width="61" height="13"/>
<text transform="matrix(1 0 0 1 835.4521 255.6665)" class="st6 st7 st3">Completed</text>
<rect x="833.95" y="275.5" class="st15" width="38.83" height="13"/>
<text transform="matrix(1 0 0 1 836.7021 286.5)" class="st13 st7 st3">Scheduled</text>
<g>
	<defs>
		<rect id="SVGID_5_" x="834.12" y="275.58" width="38.83" height="13"/>
	</defs>
	<clipPath id="SVGID_6_">
		<use xlink:href="#SVGID_5_"  style="overflow:visible;"/>
	</clipPath>
	<g class="st17">
		<text transform="matrix(1 0 0 1 836.6191 286.4165)" class="st6 st7 st3">Scheduled</text>
	</g>
</g>
<rect x="833.95" y="260.5" class="st15" width="24.33" height="13"/>
<text transform="matrix(1 0 0 1 836.7021 271.5)" class="st13 st7 st3">Declined</text>
<g>
	<defs>
		<rect id="SVGID_7_" x="834.12" y="260.58" width="24.33" height="13"/>
	</defs>
	<clipPath id="SVGID_8_">
		<use xlink:href="#SVGID_7_"  style="overflow:visible;"/>
	</clipPath>
	<g class="st18">
		<text transform="matrix(1 0 0 1 836.6191 271.4165)" class="st6 st7 st3">Declined</text>
	</g>
</g>
<rect x="833.95" y="175.83" class="st15" width="61" height="13"/>
<text transform="matrix(1 0 0 1 835.4521 186.333)" class="st6 st7 st3">Negative</text>
<rect x="833.95" y="206.17" class="st15" width="14.67" height="13"/>
<text transform="matrix(1 0 0 1 836.4521 216.6665)" class="st13 st7 st3">Affected</text>
<g>
	<defs>
		<rect id="SVGID_9_" x="834.12" y="206" width="14.5" height="13"/>
	</defs>
	<clipPath id="SVGID_10_">
		<use xlink:href="#SVGID_9_"  style="overflow:visible;"/>
	</clipPath>
	<g class="st19">
		<text transform="matrix(1 0 0 1 836.6191 216.8335)" class="st6 st7 st3">Affected</text>
	</g>
</g>
<rect x="833.95" y="191" class="st15" width="24.33" height="13"/>
<text transform="matrix(1 0 0 1 836.4521 201.5)" class="st13 st7 st3">Carrier</text>
<g>
	<defs>
		<rect id="SVGID_11_" x="834.12" y="190.83" width="24.33" height="13"/>
	</defs>
	<clipPath id="SVGID_12_">
		<use xlink:href="#SVGID_11_"  style="overflow:visible;"/>
	</clipPath>
	<g class="st20">
		<text transform="matrix(1 0 0 1 836.6191 201.6665)" class="st6 st7 st3">Carrier</text>
	</g>
</g>
<text transform="matrix(1 0 0 1 935.4521 78.833)" class="st8 st3" style="text-decoration: underline;">Received</text>
<text transform="matrix(1 0 0 1 1014.1191 78.833)" class="st8 st3" style="text-decoration: underline;">Resulted</text>
<text transform="matrix(1 0 0 1 1088.7861 78.833)" class="st8 st3" style="text-decoration: underline;">Name</text>
<text transform="matrix(1 0 0 1 1221.1885 78.833)" class="st8 st3" style="text-decoration: underline;">Status</text>
<text transform="matrix(1 0 0 1 1308.3555 78.833)" class="st8 st3" style="text-decoration: underline;">Action</text>
<polyline class="st1" points="834.91,310.77 834.91,362.3 910.13,362.3 "/>
<rect x="836.45" y="328.17" width="5.33" height="33.67"/>
<rect x="842.95" y="331.42" width="5.33" height="30.42"/>
<rect x="849.7" y="344.92" width="5.33" height="16.92"/>
<rect x="856.45" y="331.42" width="5.33" height="30.42"/>
<rect x="863.2" y="339.17" width="5.33" height="22.67"/>
<rect x="869.95" y="326.92" width="5.33" height="34.92"/>
<rect x="876.7" y="320.17" width="5.33" height="41.67"/>
<polygon points="888.79,361.83 883.45,361.83 883.2,327.42 888.54,327.42 "/>
<rect x="890.2" y="313.92" width="5.33" height="47.92"/>
<rect x="896.95" y="322.92" width="5.33" height="38.92"/>
<rect x="903.7" y="318.17" width="5.33" height="43.67"/>
<path d="M1286.33,105h-66.5c-1.58,0-2.88-1.29-2.88-2.88v-5.75c0-1.58,1.29-2.88,2.88-2.88h66.5c1.58,0,2.88,1.29,2.88,2.88v5.75
	C1289.2,103.71,1287.91,105,1286.33,105z"/>
<path class="st21" d="M1283.95,102.17h-62c-0.83,0-1.5-0.67-1.5-1.5v-3c0-0.82,0.67-1.5,1.5-1.5h62c0.82,0,1.5,0.68,1.5,1.5v3
	C1285.45,101.49,1284.78,102.17,1283.95,102.17z"/>
<text transform="matrix(1 0 0 1 934.9521 103.5)" class="st7 st3">11/1/2017</text>
<text transform="matrix(1 0 0 1 1013.4521 103.5)" class="st7 st3">11/12/2017</text>
<text transform="matrix(1 0 0 1 837.4521 376.25)" class="st7 st3">Oct</text>
<text transform="matrix(1 0 0 1 861.7021 376.25)" class="st7 st3">Nov</text>
<text transform="matrix(1 0 0 1 887.7021 376.25)" class="st7 st3">Dec</text>
<line class="st22" x1="848.2" y1="363.25" x2="848.2" y2="367.5"/>
<line class="st22" x1="872.95" y1="363.25" x2="872.95" y2="367.5"/>
<line class="st22" x1="900.7" y1="363.25" x2="900.7" y2="367.5"/>
<text transform="matrix(1 0 0 1 1308.1191 103.5)" class="st23 st7 st3" style="text-decoration: underline;">Release</text>
<g>
	<text transform="matrix(1 0 0 1 1363.1191 103.5)" class="st23 st7 st3" style="text-decoration: underline;">Test Partner</text>
</g>
<path d="M1286.33,226h-66.5c-1.58,0-2.88-1.29-2.88-2.88v-5.75c0-1.58,1.29-2.88,2.88-2.88h66.5c1.58,0,2.88,1.29,2.88,2.88v5.75
	C1289.2,224.71,1287.91,226,1286.33,226z"/>
<path class="st21" d="M1283.95,223.17h-62c-0.83,0-1.5-0.68-1.5-1.5v-3c0-0.83,0.67-1.5,1.5-1.5h62c0.82,0,1.5,0.67,1.5,1.5v3
	C1285.45,222.49,1284.78,223.17,1283.95,223.17z"/>
<text transform="matrix(1 0 0 1 934.9521 224.5)" class="st7 st3">11/1/2017</text>
<text transform="matrix(1 0 0 1 1013.4521 224.5)" class="st7 st3">11/12/2017</text>
<text transform="matrix(1 0 0 1 1086.9521 224.5)" class="st7 st3">Roberta Johnson</text>
<text transform="matrix(1 0 0 1 1086.9521 103.5)" class="st7 st3">Roberta Johnson</text>
<text transform="matrix(1 0 0 1 1308.1191 224.5)" class="st23 st7 st3" style="text-decoration: underline;">Release</text>
<g>
	<text transform="matrix(1 0 0 1 1363.1191 224.5)" class="st23 st7 st3" style="text-decoration: underline;">Test Partner</text>
</g>
<path d="M1286.33,136.5h-66.5c-1.58,0-2.88-1.29-2.88-2.88v-5.75c0-1.58,1.29-2.88,2.88-2.88h66.5c1.58,0,2.88,1.29,2.88,2.88v5.75
	C1289.2,135.21,1287.91,136.5,1286.33,136.5z"/>
<path class="st21" d="M1259.87,133.67h-37.92c-0.83,0-1.5-0.68-1.5-1.5v-3c0-0.83,0.67-1.5,1.5-1.5h37.92c0.82,0,1.5,0.67,1.5,1.5v3
	C1261.37,132.99,1260.69,133.67,1259.87,133.67z"/>
<text transform="matrix(1 0 0 1 934.9521 135)" class="st7 st3">11/30/2017</text>
<text transform="matrix(1 0 0 1 1086.9521 135)" class="st7 st3">Michael Sanders</text>
<text transform="matrix(1 0 0 1 1308.1191 135)" class="st24 st7 st3" style="text-decoration: underline;">Release</text>
<g>
	<text transform="matrix(1 0 0 1 1363.1191 135)" class="st24 st7 st3" style="text-decoration: underline;">Test Partner</text>
</g>
<path d="M1286.33,196h-66.5c-1.58,0-2.88-1.29-2.88-2.88v-5.75c0-1.58,1.29-2.88,2.88-2.88h66.5c1.58,0,2.88,1.29,2.88,2.88v5.75
	C1289.2,194.71,1287.91,196,1286.33,196z"/>
<path class="st21" d="M1259.87,193.17h-37.92c-0.83,0-1.5-0.68-1.5-1.5v-3c0-0.83,0.67-1.5,1.5-1.5h37.92c0.82,0,1.5,0.67,1.5,1.5v3
	C1261.37,192.49,1260.69,193.17,1259.87,193.17z"/>
<text transform="matrix(1 0 0 1 934.9521 194.5)" class="st7 st3">11/30/2017</text>
<text transform="matrix(1 0 0 1 1086.9521 194.5)" class="st7 st3">Michael Sanders</text>
<text transform="matrix(1 0 0 1 1308.1191 194.5)" class="st24 st7 st3" style="text-decoration: underline;">Release</text>
<g>
	<text transform="matrix(1 0 0 1 1363.1191 194.5)" class="st24 st7 st3" style="text-decoration: underline;">Test Partner</text>
</g>
<path d="M1286.33,166.5h-66.5c-1.58,0-2.88-1.29-2.88-2.88v-5.75c0-1.58,1.29-2.88,2.88-2.88h66.5c1.58,0,2.88,1.29,2.88,2.88v5.75
	C1289.2,165.21,1287.91,166.5,1286.33,166.5z"/>
<path class="st21" d="M1226.2,163.67h-4.25c-0.83,0-1.5-0.68-1.5-1.5v-3c0-0.83,0.67-1.5,1.5-1.5h4.25c0.82,0,1.5,0.67,1.5,1.5v3
	C1227.7,162.99,1227.03,163.67,1226.2,163.67z"/>
<text transform="matrix(1 0 0 1 1086.9521 165)" class="st7 st3">Julie Andrews</text>
<text transform="matrix(1 0 0 1 1308.1191 165)" class="st24 st7 st3" style="text-decoration: underline;">Release</text>
<g>
	<text transform="matrix(1 0 0 1 1363.1191 165)" class="st24 st7 st3" style="text-decoration: underline;">Test Partner</text>
</g>
<path d="M1286.33,256.33h-66.5c-1.58,0-2.88-1.29-2.88-2.88v-5.75c0-1.58,1.29-2.88,2.88-2.88h66.5c1.58,0,2.88,1.29,2.88,2.88v5.75
	C1289.2,255.04,1287.91,256.33,1286.33,256.33z"/>
<path class="st21" d="M1283.95,253.5h-62c-0.83,0-1.5-0.68-1.5-1.5v-3c0-0.82,0.67-1.5,1.5-1.5h62c0.82,0,1.5,0.68,1.5,1.5v3
	C1285.45,252.82,1284.78,253.5,1283.95,253.5z"/>
<text transform="matrix(1 0 0 1 934.9521 254.8335)" class="st7 st3">11/1/2017</text>
<text transform="matrix(1 0 0 1 1013.4521 254.8335)" class="st7 st3">11/12/2017</text>
<text transform="matrix(1 0 0 1 1086.9521 254.8335)" class="st7 st3">Roberta Johnson</text>
<text transform="matrix(1 0 0 1 1308.1191 254.8335)" class="st23 st7 st3" style="text-decoration: underline;">Release</text>
<g>
	<text transform="matrix(1 0 0 1 1363.1191 254.8335)" class="st23 st7 st3" style="text-decoration: underline;">Test Partner</text>
</g>
<path d="M1286.33,377.33h-66.5c-1.58,0-2.88-1.29-2.88-2.88v-5.75c0-1.58,1.29-2.88,2.88-2.88h66.5c1.58,0,2.88,1.29,2.88,2.88v5.75
	C1289.2,376.04,1287.91,377.33,1286.33,377.33z"/>
<path class="st21" d="M1283.95,374.5h-62c-0.83,0-1.5-0.67-1.5-1.5v-3c0-0.83,0.67-1.5,1.5-1.5h62c0.82,0,1.5,0.67,1.5,1.5v3
	C1285.45,373.83,1284.78,374.5,1283.95,374.5z"/>
<text transform="matrix(1 0 0 1 934.9521 375.8335)" class="st7 st3">11/1/2017</text>
<text transform="matrix(1 0 0 1 1013.4521 375.8335)" class="st7 st3">11/12/2017</text>
<text transform="matrix(1 0 0 1 1086.9521 375.8335)" class="st7 st3">Roberta Johnson</text>
<text transform="matrix(1 0 0 1 1308.1191 375.8335)" class="st23 st7 st3" style="text-decoration: underline;">Release</text>
<g>
	<text transform="matrix(1 0 0 1 1363.1191 375.8335)" class="st23 st7 st3" style="text-decoration: underline;">Test Partner</text>
</g>
<path d="M1286.33,287.83h-66.5c-1.58,0-2.88-1.29-2.88-2.88v-5.75c0-1.58,1.29-2.88,2.88-2.88h66.5c1.58,0,2.88,1.29,2.88,2.88v5.75
	C1289.2,286.54,1287.91,287.83,1286.33,287.83z"/>
<path class="st21" d="M1259.87,285h-37.92c-0.83,0-1.5-0.67-1.5-1.5v-3c0-0.83,0.67-1.5,1.5-1.5h37.92c0.82,0,1.5,0.67,1.5,1.5v3
	C1261.37,284.33,1260.69,285,1259.87,285z"/>
<text transform="matrix(1 0 0 1 934.9521 286.3335)" class="st7 st3">11/30/2017</text>
<text transform="matrix(1 0 0 1 1086.9521 286.3335)" class="st7 st3">Michael Sanders</text>
<text transform="matrix(1 0 0 1 1308.1191 286.3335)" class="st24 st7 st3" style="text-decoration: underline;">Release</text>
<g>
	<text transform="matrix(1 0 0 1 1363.1191 286.3335)" class="st24 st7 st3" style="text-decoration: underline;">Test Partner</text>
</g>
<path d="M1286.33,347.33h-66.5c-1.58,0-2.88-1.29-2.88-2.88v-5.75c0-1.58,1.29-2.88,2.88-2.88h66.5c1.58,0,2.88,1.29,2.88,2.88v5.75
	C1289.2,346.04,1287.91,347.33,1286.33,347.33z"/>
<path class="st21" d="M1259.87,344.5h-37.92c-0.83,0-1.5-0.67-1.5-1.5v-3c0-0.83,0.67-1.5,1.5-1.5h37.92c0.82,0,1.5,0.67,1.5,1.5v3
	C1261.37,343.83,1260.69,344.5,1259.87,344.5z"/>
<text transform="matrix(1 0 0 1 934.9521 345.8335)" class="st7 st3">11/30/2017</text>
<text transform="matrix(1 0 0 1 1086.9521 345.8335)" class="st7 st3">Michael Sanders</text>
<text transform="matrix(1 0 0 1 1308.1191 345.8335)" class="st24 st7 st3" style="text-decoration: underline;">Release</text>
<g>
	<text transform="matrix(1 0 0 1 1363.1191 345.8335)" class="st24 st7 st3" style="text-decoration: underline;">Test Partner</text>
</g>
<path d="M1286.33,317.83h-66.5c-1.58,0-2.88-1.29-2.88-2.88v-5.75c0-1.58,1.29-2.88,2.88-2.88h66.5c1.58,0,2.88,1.29,2.88,2.88v5.75
	C1289.2,316.54,1287.91,317.83,1286.33,317.83z"/>
<path class="st21" d="M1226.2,315h-4.25c-0.83,0-1.5-0.67-1.5-1.5v-3c0-0.83,0.67-1.5,1.5-1.5h4.25c0.82,0,1.5,0.67,1.5,1.5v3
	C1227.7,314.33,1227.03,315,1226.2,315z"/>
<text transform="matrix(1 0 0 1 1086.9521 316.3335)" class="st7 st3">Julie Andrews</text>
<text transform="matrix(1 0 0 1 1308.1191 316.3335)" class="st24 st7 st3" style="text-decoration: underline;">Release</text>
<g>
	<text transform="matrix(1 0 0 1 1363.1191 316.3335)" class="st24 st7 st3" style="text-decoration: underline;">Test Partner</text>
</g>
<text transform="matrix(1 0 0 1 988.4521 78.833)" class="st2 st3"></text>
<text transform="matrix(1 0 0 1 1066.7852 78.833)" class="st2 st3"></text>
<text transform="matrix(1 0 0 1 1128.1191 78.833)" class="st2 st3"></text>
<text transform="matrix(1 0 0 1 1260.7852 78.833)" class="st2 st3"></text>
<rect x="822.45" y="64.5" class="st25" width="93" height="316"/>
<rect x="1071.79" y="37.83" class="st26" width="111.67" height="19.33"/>
<g>
	<text transform="matrix(1 0 0 1 1075.7852 51.166)" class="st27 st8 st3">Product: Prelude</text>
</g>
<path class="st28" d="M1459.45,232h-4c-1.1,0-2-0.9-2-2V70c0-1.1,0.9-2,2-2h4c1.1,0,2,0.9,2,2v160
	C1461.45,231.1,1460.55,232,1459.45,232z"/>
<text transform="matrix(1 0 0 1 39.4521 201.5)"><tspan x="0" y="0" class="st29 st30">• Provide rapid access</tspan><tspan x="0" y="24" class="st29 st30">• Identify trends</tspan><tspan x="0" y="48" class="st29 st30">• Demonstrate</tspan><tspan x="0" y="72" class="st29 st30">   Counsyl’s value</tspan></text>
<text transform="matrix(1 0 0 1 260.4521 201.5)"><tspan x="0" y="0" class="st29 st30">• Enable direct patient lookup</tspan><tspan x="0" y="24" class="st29 st30">• Accommodate misspellings</tspan><tspan x="0" y="48" class="st29 st30">• Search by clinic’s identifier</tspan><tspan x="0" y="72" class="st29 st30">• Possibly: completion/autosuggest</tspan><tspan x="0" y="96" class="st29 st30">• Possibly: search by gene/disease</tspan></text>
<text transform="matrix(1 0 0 1 583.1191 169.5)" class="st31 st10 st11">Filtering/Sorting</text>
<text transform="matrix(1 0 0 1 594.4521 201.5)" class="st29 st30">• Modern backend</text>
<text transform="matrix(1 0 0 1 594.4521 228.833)"><tspan x="0" y="0" class="st29 st30">• Reduce technical </tspan><tspan x="0" y="24" class="st29 st30">   debt from  previous</tspan><tspan x="0" y="48" class="st29 st30">   Django admin</tspan><tspan x="0" y="72" class="st29 st30">   implementation</tspan></text>
<circle class="st12" cx="949.2" cy="47.5" r="3"/>
<circle class="st31" cx="1173.5" cy="60.5" r="3"/>
<path class="st32" d="M843.01,44.24c0-2.59-1.46-3.64-3.31-3.64h-0.57v1.46h0.24c1.29,0,2.02,0.49,2.02,2.02
	c0.08,2.34,0.08,4.77,0,7.19c-2.26,0-4.61,0-6.87,0c-1.54,0-2.26-0.73-2.26-2.26v-1.62c1.7,0,3.88,0,5.34,0
	c-0.08-2.83,0-5.74,0-8.57c0-2.34-1.54-3.48-3.4-3.48c-2.99-0.08-5.98,0-8.97-0.08c0.08,2.91,0,5.9,0,8.41
	c0,2.59,1.46,3.64,3.31,3.64h0.65v-1.46h-0.24c-1.29,0.08-2.02-0.4-2.1-1.94c0-2.34,0-4.85,0-7.28c2.26,0,4.61,0,6.87,0
	c1.54,0,2.26,0.73,2.26,2.26v1.62c-1.7,0-3.88,0-5.34,0c0.08,2.83,0,5.74,0,8.57c0,2.34,1.54,3.48,3.4,3.48c2.99,0,5.98,0,8.97,0
	C843.01,49.73,843.01,46.74,843.01,44.24 M832.26,45.85c0-1.29,0-2.51,0-3.88c1.29,0,2.59,0,3.88,0c0,1.29,0,2.51,0,3.88
	C834.85,45.85,833.39,45.85,832.26,45.85"/>
<path class="st32" d="M913.59,36.64c0.08,2.02,0.16,4.2,0.16,12.29c0,2.34,1.54,3.56,3.23,3.56c0.57,0,1.21-0.08,1.54-0.16V50.7
	c-0.4,0.16-0.73,0.16-1.05,0.16c-1.05,0-1.94-0.24-1.94-2.02c-0.08-2.02-0.08-4.04-0.08-6.06c0-2.02,0-4.04,0.08-6.06L913.59,36.64
	L913.59,36.64z M909.3,50.54v-0.32c-0.73,0.49-1.54,0.73-2.43,0.73c-1.54,0-2.43-0.57-2.43-2.43c-0.08-2.1-0.08-4.2,0-6.14h-1.86
	c0.08,1.13,0.08,2.18,0.08,6.47c0,2.59,1.54,3.8,3.8,3.8c1.29,0,2.18-0.4,2.83-0.97v1.21c0,1.86-0.97,2.91-3.4,2.91
	c-1.05,0-2.1-0.24-3.23-0.89v1.78c1.05,0.49,2.18,0.57,3.4,0.57c2.99,0,5.01-1.54,5.01-4.61c0-3.8-0.08-7.19,0.08-10.43h-1.86
	C909.3,45.05,909.3,47.79,909.3,50.54 M900.81,49.57c0-3.31-5.25-2.83-5.25-4.77c0-0.89,0.97-1.29,2.1-1.29
	c0.97,0,1.86,0.24,2.75,0.73v-1.7c-0.73-0.32-1.62-0.49-2.67-0.49c-1.94,0-3.96,0.89-3.96,2.91c0,3.31,5.25,2.91,5.25,4.85
	c0,0.81-0.89,1.21-2.34,1.21c-0.97,0-1.94-0.16-2.91-0.73v1.78c0.89,0.32,1.78,0.49,2.83,0.49
	C898.87,52.65,900.81,51.59,900.81,49.57 M883.27,52.4h1.86c-0.16-2.75-0.08-5.5-0.08-8.33c0.73-0.24,1.54-0.4,2.34-0.4
	c1.62,0,2.75,0.57,2.83,2.51c0.08,2.1,0.08,4.2-0.08,6.22H892c-0.08-2.1-0.08-4.37-0.08-6.55c0-2.59-1.62-3.8-3.96-3.8
	c-1.54,0-2.18,0.49-3.4,0.49c-0.4,0-0.89-0.08-1.46-0.16C883.27,46.18,883.35,49.09,883.27,52.4 M880.6,42.3h-1.86
	c0.16,2.75,0.08,5.5,0.08,8.25c-0.73,0.24-1.54,0.4-2.26,0.4c-1.62,0-2.75-0.57-2.83-2.51c-0.08-2.1-0.08-4.2,0.08-6.22h-1.86
	c0.08,2.1,0.08,4.37,0.08,6.47c0,2.59,1.62,3.8,3.96,3.8c1.54,0,2.18-0.49,3.4-0.49c0.4,0,0.89,0.08,1.46,0.16
	C880.6,48.44,880.52,45.61,880.6,42.3 M865,50.95c-1.86,0-3.48-1.54-3.48-3.72c0-2.1,1.54-3.64,3.4-3.64s3.48,1.54,3.48,3.64
	C868.4,49.49,866.94,50.95,865,50.95 M865,52.56c2.83,0,5.17-2.1,5.17-5.25s-2.34-5.25-5.17-5.25s-5.17,2.1-5.17,5.25
	C859.83,50.38,862.09,52.56,865,52.56 M855.62,52.65c1.46,0,2.83-0.24,4.04-0.89c-0.4-0.4-0.81-0.97-0.97-1.54
	c-0.97,0.49-1.94,0.65-3.07,0.65c-3.31,0-5.66-2.18-5.66-5.25c0-3.4,2.43-5.5,5.74-5.5c1.54,0,2.83,0.4,3.88,1.13v-2.18
	c-0.89-0.49-2.18-0.73-3.72-0.73c-4.69,0-7.84,2.83-7.84,7.28C848.02,49.49,851.1,52.65,855.62,52.65"/>
<g>
	<rect x="26.45" y="25.17" class="st33" width="760" height="99.67"/>
	<text transform="matrix(1 0 0 1 35.7861 49.834)" class="st34 st8 st11">New Indexing System</text>
	<text transform="matrix(1 0 0 1 64.1191 84.5)" class="st29 st30">• Combine pre- and post-conversion orders </text>
	<text transform="matrix(1 0 0 1 482.1191 84.5)" class="st29 st30">• Index OrderRequest JSON</text>
	<text transform="matrix(1 0 0 1 482.1191 108.5)" class="st29 st30">• Elasticsearch or Postgres FTS</text>
	<text transform="matrix(1 0 0 1 64.1191 111)" class="st29 st30">• Very fast (target: &lt; 1sec response time)</text>
</g>
<path class="st25" d="M200.5,277.5c31,51,111.42,71.73,291,67c76-2,222-32,330-4"/>
<path class="st35" d="M433.5,148.5c60-38,192,6,358-20c61.85-9.69,120.03-53.78,156-80"/>
<path class="st36" d="M767.5,160.5c50-20,152.27,13.27,268-30c58.33-21.81,106.89-45.26,138-70"/>
</svg>
