<svg width="20" height="21" viewBox="0 0 20 21" fill="none" xmlns="http://www.w3.org/2000/svg">
    <path d="M12.535 14.9044C11.2374 15.8288 9.65015 16.3731 7.93537 16.3731C3.5533 16.3731 0 12.8193 0 8.43657C0 4.05384 3.5533 0.5 7.93537 0.5C12.3174 0.5 15.8707 4.05384 15.8707 8.43657C15.8707 10.1518 15.3265 11.7392 14.4022 13.0369L19.6163 18.2518C20.1297 18.7653 20.1261 19.588 19.6163 20.0968L19.5948 20.1183C19.087 20.6262 18.2588 20.6282 17.75 20.1183L12.5359 14.9035L12.535 14.9044ZM7.93537 14.5057C11.2868 14.5057 14.0036 11.7887 14.0036 8.43657C14.0036 5.08441 11.287 2.36743 7.93537 2.36743C4.58372 2.36743 1.86715 5.08441 1.86715 8.43657C1.86715 11.7887 4.58372 14.5057 7.93537 14.5057Z" fill="black"/>
</svg>
