<svg xmlns="http://www.w3.org/2000/svg" xmlns:xlink="http://www.w3.org/1999/xlink" version="1.1" x="0px" y="0px" viewBox="0 0 48 48" enable-background="new 0 0 48 48" xml:space="preserve"><g><path d="M45,0H3C1.3,0,0,1.3,0,3v42c0,1.7,1.3,3,3,3h42c1.7,0,3-1.3,3-3V3C48,1.3,46.7,0,45,0z M41.4,2.8c0.8,0,1.4,0.6,1.4,1.4   s-0.6,1.4-1.4,1.4s-1.4-0.6-1.4-1.4S40.6,2.8,41.4,2.8z M36.3,2.8c0.8,0,1.4,0.6,1.4,1.4s-0.6,1.4-1.4,1.4s-1.4-0.6-1.4-1.4   S35.5,2.8,36.3,2.8z M31.2,2.8c0.8,0,1.4,0.6,1.4,1.4S32,5.7,31.2,5.7s-1.4-0.6-1.4-1.4S30.4,2.8,31.2,2.8z M44,44H4V9.2h40V44z"></path><polygon points="17.7,28.3 12.3,25.8 17.7,23.3 17.7,20.9 9.6,24.7 9.6,27 17.7,30.8  "></polygon><polygon points="28.7,19 26.3,19 19.3,34.2 21.7,34.2  "></polygon><polygon points="38.4,24.7 30.3,20.9 30.3,23.3 35.7,25.8 30.3,28.3 30.3,30.8 38.4,27  "></polygon></g></svg>