<svg xmlns="http://www.w3.org/2000/svg" xmlns:xlink="http://www.w3.org/1999/xlink" xml:space="preserve" version="1.1" style="shape-rendering:geometricPrecision;text-rendering:geometricPrecision;image-rendering:optimizeQuality;" viewBox="0 0 463 257" x="0px" y="0px" fill-rule="evenodd" clip-rule="evenodd"><defs><style type="text/css">
   
    .fil0 {fill:black}
   
  </style></defs><g><path class="fil0" d="M74 30l0 19 -49 0c-14,0 -25,11 -25,24l0 37c0,7 5,12 12,12 49,0 51,62 0,62 -7,0 -12,5 -12,12l0 37c0,13 11,24 25,24l36 0c7,0 13,-5 13,-12 0,-49 61,-50 61,0 0,7 5,12 12,12l37 0c14,0 25,-11 25,-24l0 -49 18 0c40,0 40,-62 0,-62l-18 0 0 -49c0,-13 -11,-24 -25,-24l-49 0 0 -19c0,-40 -61,-40 -61,0z"></path><path class="fil0" d="M279 30l0 19 -49 0c-3,0 -6,0 -9,1 4,7 7,15 7,23l0 30c64,1 64,99 0,100l0 30c0,8 -3,16 -7,22 3,2 6,2 9,2l37 0c7,0 12,-5 12,-12 0,-49 61,-50 61,0 0,7 6,12 13,12l37 0c13,0 24,-11 24,-24l0 -49 18 0c41,0 41,-62 0,-62l-18 0 0 -49c0,-13 -11,-24 -24,-24l-50 0 0 -19c0,-40 -61,-40 -61,0z"></path></g></svg>