<svg xmlns:rdf="http://www.w3.org/1999/02/22-rdf-syntax-ns#" xmlns="http://www.w3.org/2000/svg" xmlns:cc="http://creativecommons.org/ns#" xmlns:dc="http://purl.org/dc/elements/1.1/" version="1.1" x="0px" y="0px" viewBox="0 0 100 100"><g transform="translate(0,-952.36218)"><path style="baseline-shift:baseline;block-progression:tb;color:#000000;direction:ltr;text-indent:0;enable-background:accumulate;text-transform:none;" fill="#000" d="m50.016,957.35c-7.5338,0-14.633,1.8466-20.875,5.125l-3.5-4.1562a1.0001,1.0001,0,0,0,-0.90625,-0.375,1.0001,1.0001,0,0,0,-0.5,0.25l-11.781,9.9062a1.0001,1.0001,0,0,0,-0.09375,1.4062l3.2188,3.875c-6.5952,7.8313-10.562,17.94-10.562,28.969,0,24.841,20.159,45.031,45,45.031s44.969-20.19,44.969-45.031c0-10.684-3.7193-20.495-9.9375-28.219l3.875-4.625a1.0001,1.0001,0,0,0,-0.125,-1.4062l-11.75-9.9062a1.0001,1.0001,0,0,0,-0.75,-0.25,1.0001,1.0001,0,0,0,-0.65625,0.375l-3.9062,4.625c-6.4361-3.5619-13.842-5.5938-21.719-5.5938zm0,2c7.759,0,15.035,2.0627,21.312,5.6562a1.0001,1.0001,0,0,0,0.15625,0.0937c3.8242,2.2112,7.2831,5.0104,10.25,8.25,0.02988,0.0327,0.06397,0.0609,0.09375,0.0937,0.39269,0.43145,0.78165,0.86553,1.1562,1.3125a1.0001,1.0001,0,0,0,0.21875,0.21875c6.1339,7.4387,9.7812,16.972,9.7812,27.375,0,23.76-19.209,43.031-42.969,43.031s-43-19.271-43-43.031c0-10.763,3.9372-20.581,10.469-28.125a1.0001,1.0001,0,0,0,0.03125,-0.0312c0.01411-0.0163,0.04837-0.015,0.0625-0.0312a1.0001,1.0001,0,0,0,0.09375,-0.125c1.5352-1.7517,3.2101-3.386,5-4.875,0.14281-0.11785,0.29315-0.22771,0.4375-0.34375,0.39521-0.32027,0.78095-0.63131,1.1875-0.9375,0.01165-0.009,0.01959-0.0225,0.03125-0.0312,0.53407-0.40136,1.1032-0.78015,1.6562-1.1562,0.05474-0.037,0.10134-0.0883,0.15625-0.125,0.5223-0.3516,1.0552-0.67184,1.5938-1,0.57126-0.34709,1.1304-0.67917,1.7188-1a1.0001,1.0001,0,0,0,0.0625,-0.0312c6.0955-3.3111,13.075-5.1875,20.5-5.1875zm-25.25,1.0312,2.625,3.0938c-3.896,2.2747-7.4302,5.1088-10.469,8.4062l-2.4062-2.9062,10.25-8.5938zm51.75,0,10.25,8.5938-3.0625,3.5938c-2.9604-3.3532-6.3879-6.2436-10.219-8.5938l3.0312-3.5938zm-27.656,8.8125c-17.527,0.58915-31.729,14.863-32.031,32.594-0.31231,18.302,14.323,33.406,32.625,33.719a1.0001,1.0001,0,1,0,0.03125,-1.9688c-17.222-0.2939-30.95-14.497-30.656-31.719,0.29387-17.222,14.466-30.888,31.688-30.594,17.222,0.29387,30.95,14.466,30.656,31.687-0.01296,0.7595-0.05479,1.4995-0.125,2.25l-3.4688-5.7187a1.0022,1.0022,0,1,0,-1.7188,1.0312l4.875,8a1.0091,1.0091,0,0,0,0.15625,0.2813,1.0001,1.0001,0,0,0,0.03125,0.031,1.0091,1.0091,0,0,0,0.03125,0.031,1.0001,1.0001,0,0,0,0.03125,0.031,1.0091,1.0091,0,0,0,0.125,0.094,1.0001,1.0001,0,0,0,0.03125,0.031,1.0091,1.0091,0,0,0,0.0625,0.031,1.0001,1.0001,0,0,0,0.125,0.031,1.0091,1.0091,0,0,0,0.0625,0.031,1.0001,1.0001,0,0,0,0.03125,0,1.0091,1.0091,0,0,0,0.0625,0.031,1.0001,1.0001,0,0,0,0.03125,0,1.0091,1.0091,0,0,0,0.0625,0,1.0001,1.0001,0,0,0,0.03125,0,1.0091,1.0091,0,0,0,0.0625,0,1.0001,1.0001,0,0,0,0.0625,0,1.0091,1.0091,0,0,0,0.0625,0,1.0001,1.0001,0,0,0,0.21875,-0.062,1.0091,1.0091,0,0,0,0.15625,-0.062,1.0001,1.0001,0,0,0,0.03125,-0.031,1.0091,1.0091,0,0,0,0.0625,-0.031,1.0001,1.0001,0,0,0,0.09375,-0.094,1.0091,1.0091,0,0,0,0.09375,-0.125l0.0625-0.062a1.0091,1.0091,0,0,0,0.0625,-0.125l5.9375-8a1.0001,1.0001,0,0,0,-0.875,-1.625,1.0001,1.0001,0,0,0,-0.71875,0.40625l-3.8125,5.1874c0.02965-0.5105,0.02252-1.0197,0.03125-1.5312,0.31231-18.302-14.26-33.438-32.562-33.75-0.57194-0.01-1.1534-0.019-1.7188,0zm11.812,18.938a1.0001,1.0001,0,0,0,-0.5625,0.34375l-8.9688,9.9375c-0.36607-0.10609-0.72473-0.1875-1.125-0.1875-2.2839,0-4.1562,1.8411-4.1562,4.1249,0,2.2839,1.8724,4.1563,4.1562,4.1563,0.88885,0,1.7008-0.3041,2.375-0.7813l16.094,13.969a1.0001,1.0001,0,1,0,1.3125,-1.5l-16.125-13.969c0.28788-0.5636,0.46875-1.1986,0.46875-1.875,0-1.1581-0.48286-2.1867-1.25-2.9374l8.6875-9.625a1.0001,1.0001,0,0,0,-0.90625,-1.6562z"></path></g></svg>