<svg xmlns="http://www.w3.org/2000/svg" xmlns:xlink="http://www.w3.org/1999/xlink" version="1.1" x="0px" y="0px" viewBox="0 0 48 48" enable-background="new 0 0 48 48" xml:space="preserve"><g><path fill="#000000" d="M24,34.9c5.5,0,10-4.5,10-10c0-5.5-4.5-10-10-10c-5.5,0-10,4.5-10,10C14,30.4,18.5,34.9,24,34.9z M24,16.8   c4.4,0,8,3.6,8,8s-3.6,8-8,8c-4.4,0-8-3.6-8-8S19.6,16.8,24,16.8z"></path><path fill="#000000" d="M23.9,25.8h4c0.6,0,1-0.4,1-1c0-0.6-0.4-1-1-1h-3v-5c0-0.6-0.4-1-1-1c-0.6,0-1,0.4-1,1v6   C22.9,25.4,23.4,25.8,23.9,25.8z"></path><path fill="#000000" d="M42.6,12.3l-18-12.1c-0.3-0.2-0.8-0.2-1.1,0l-18,12.1C5.1,12.5,4.9,13,5,13.4c0.1,0.4,0.5,0.7,1,0.7h5.3   v22.4c0,0.6,0.4,1,1,1H23l0,4.9c-1.1,0.4-1.9,1.5-1.9,2.7c0,1.6,1.3,2.9,2.9,2.9c1.6,0,2.9-1.3,2.9-2.9c0-1.3-0.8-2.3-1.9-2.7   l0-4.9h10.7c0.6,0,1-0.4,1-1V14.1H42c0.4,0,0.8-0.3,1-0.7C43.1,13,42.9,12.5,42.6,12.3z M24,46c-0.5,0-0.9-0.4-0.9-0.9   c0-0.5,0.4-0.9,0.9-0.9c0.5,0,0.9,0.4,0.9,0.9C24.9,45.6,24.5,46,24,46z M34.7,35.5H24c0,0,0,0,0,0c0,0,0,0,0,0H13.3V14.1h21.4   V35.5z M9.3,12.1L24,2.2l14.7,9.9H9.3z"></path></g></svg>