<svg xmlns="http://www.w3.org/2000/svg" viewBox="0 0 64 64" x="0px" y="0px"><title>broom</title><g><path d="M61.05,3a3.28,3.28,0,0,0-4.62,0L25.16,34.23l-.09-.09a3.33,3.33,0,0,0-4.62,0l-1.13,1.13a5.53,5.53,0,0,0-6,.88L3.09,45.3A3.24,3.24,0,0,0,3,50L14,61a3.26,3.26,0,0,0,2.3,1h.09a3.28,3.28,0,0,0,2.34-1.09l9.15-10.22a5.53,5.53,0,0,0,.88-6l1.13-1.13a3.26,3.26,0,0,0,0-4.62l-.09-.09L61.05,7.57A3.28,3.28,0,0,0,61.05,3ZM17.21,59.58a1.24,1.24,0,0,1-.9.42,1.26,1.26,0,0,1-.93-.37L15,59.28,18.32,56a.51.51,0,0,0,0-.71.5.5,0,0,0-.71,0l-3.29,3.29-.89-.89L19.12,52a.5.5,0,0,0-.71-.71L12.72,57l-.89-.89,4.89-4.89a.5.5,0,1,0-.71-.71l-4.89,4.89-.89-.89,5.69-5.69a.5.5,0,0,0-.71-.71L9.52,53.77l-.89-.89L13.52,48a.5.5,0,0,0-.71-.71L7.92,52.17,7,51.28l5.69-5.69a.5.5,0,0,0,0-.71.51.51,0,0,0-.71,0L6.32,50.57l-.89-.89,3.29-3.29a.5.5,0,0,0,0-.71.5.5,0,0,0-.7,0L4.72,49l-.35-.35A1.25,1.25,0,0,1,4,47.69a1.24,1.24,0,0,1,.42-.9l9.7-8.68L25.89,49.88Zm9.33-10.47L14.89,37.46a3.47,3.47,0,0,1,4.59.32l.46.45,6.28,6.29A3.51,3.51,0,0,1,26.54,49.11Zm1.91-7-.89.89-3.29-3.29L21,36.44l.89-.89a1.28,1.28,0,0,1,1.78,0l2.4,2.4,1.6,1.6h0l.8.8A1.26,1.26,0,0,1,28.45,42.13Zm31.18-36L28.36,37.43l-.89-.9-.9-.89L57.85,4.37a1.26,1.26,0,0,1,1.78,0,1.26,1.26,0,0,1,0,1.78ZM17.93,19.49a2.69,2.69,0,0,0,.74,0,2.1,2.1,0,0,1,1.83,1.83,2.69,2.69,0,0,0,0,.74.49.49,0,0,0,.49.43.51.51,0,0,0,.5-.43,3.41,3.41,0,0,0,0-.74,2.27,2.27,0,0,1,.6-1.23,2.13,2.13,0,0,1,1.24-.6,2.61,2.61,0,0,0,.73,0A.49.49,0,0,0,24.5,19a.51.51,0,0,0-.43-.5,3.33,3.33,0,0,0-.73,0,2.1,2.1,0,0,1-1.84-1.84,3.33,3.33,0,0,0,0-.73.51.51,0,0,0-.5-.43.49.49,0,0,0-.49.43,2.63,2.63,0,0,0,0,.73,2.13,2.13,0,0,1-.6,1.24,2.27,2.27,0,0,1-1.23.6,3.41,3.41,0,0,0-.74,0,.51.51,0,0,0-.43.5A.49.49,0,0,0,17.93,19.49Zm2.67-.89a2.91,2.91,0,0,0,.4-.48,3.45,3.45,0,0,0,.88.88,3.45,3.45,0,0,0-.88.88,3.45,3.45,0,0,0-.88-.88A2.91,2.91,0,0,0,20.6,18.6ZM56.07,45.5a3.33,3.33,0,0,0-.73,0,2.26,2.26,0,0,1-1.24-.6,2.17,2.17,0,0,1-.59-1.24,3.83,3.83,0,0,0,0-.73.51.51,0,0,0-.5-.43.49.49,0,0,0-.49.43,2.63,2.63,0,0,0,0,.73,2.13,2.13,0,0,1-.6,1.24,2.27,2.27,0,0,1-1.23.6,3.41,3.41,0,0,0-.74,0,.51.51,0,0,0-.43.5.49.49,0,0,0,.43.49,2.69,2.69,0,0,0,.74,0,2.1,2.1,0,0,1,1.83,1.83,2.69,2.69,0,0,0,0,.74.49.49,0,0,0,.49.43.51.51,0,0,0,.5-.43,3.92,3.92,0,0,0,0-.74,2.18,2.18,0,0,1,.59-1.23,2.13,2.13,0,0,1,1.24-.6,2.61,2.61,0,0,0,.73,0A.49.49,0,0,0,56.5,46,.51.51,0,0,0,56.07,45.5Zm-2.67.9a2.91,2.91,0,0,0-.4.48,3.45,3.45,0,0,0-.88-.88,3.45,3.45,0,0,0,.88-.88,2.91,2.91,0,0,0,.4.48,3.39,3.39,0,0,0,.48.4A3.39,3.39,0,0,0,53.4,46.4ZM44,33.5A2.5,2.5,0,1,0,46.5,36,2.5,2.5,0,0,0,44,33.5Zm0,4A1.5,1.5,0,1,1,45.5,36,1.5,1.5,0,0,1,44,37.5Zm-33-22A2.5,2.5,0,1,0,8.5,13,2.5,2.5,0,0,0,11,15.5Zm0-4A1.5,1.5,0,1,1,9.5,13,1.5,1.5,0,0,1,11,11.5Zm47,19H56.5V29a.5.5,0,0,0-1,0v1.5H54a.5.5,0,0,0,0,1h1.5V33a.5.5,0,0,0,1,0V31.5H58a.5.5,0,0,0,0-1ZM31,9.5h1.5V11a.5.5,0,0,0,1,0V9.5H35a.5.5,0,0,0,.5-.5.5.5,0,0,0-.5-.5H33.5V7a.5.5,0,0,0-1,0V8.5H31a.5.5,0,0,0-.5.5A.5.5,0,0,0,31,9.5Z"></path></g></svg>