<svg xmlns="http://www.w3.org/2000/svg" viewBox="0 0 24 24" x="0px" y="0px"><title>puzzle</title><path d="M22,9.5A2.5,2.5,0,0,0,19.5,7a2.93,2.93,0,0,0-2.06.85h0a.71.71,0,0,1-1-.15A.84.84,0,0,1,16.25,7l.84-5h-13L3.27,6.86a1.83,1.83,0,0,0,.41,1.49,1.73,1.73,0,0,0,2.47.21A1.9,1.9,0,0,1,7.5,8a1.5,1.5,0,0,1,0,3,1.9,1.9,0,0,1-1.35-.56,1.74,1.74,0,0,0-2.47.21,1.83,1.83,0,0,0-.41,1.49l.82,4.95L8,16.3a.78.78,0,0,1,.67.17.81.81,0,0,1,.29.62.47.47,0,0,1-.15.35A2.89,2.89,0,0,0,8,19.5a2.5,2.5,0,0,0,5,0,2.89,2.89,0,0,0-.85-2.06.47.47,0,0,1-.15-.35.81.81,0,0,1,.29-.62A.78.78,0,0,1,13,16.3l4.15.83L16.25,12a.84.84,0,0,1,.19-.68.71.71,0,0,1,1-.15A2.89,2.89,0,0,0,19.5,12,2.5,2.5,0,0,0,22,9.5ZM19.5,11a1.9,1.9,0,0,1-1.35-.56,1.74,1.74,0,0,0-2.47.21,1.83,1.83,0,0,0-.41,1.49l.62,3.73-2.74-.55a1.78,1.78,0,0,0-1.49.37,1.8,1.8,0,0,0-.66,1.4,1.52,1.52,0,0,0,.44,1.06A1.9,1.9,0,0,1,12,19.5a1.5,1.5,0,0,1-3,0,1.9,1.9,0,0,1,.56-1.35A1.52,1.52,0,0,0,10,17.09a1.79,1.79,0,0,0-1.8-1.8,2,2,0,0,0-.35,0l-2.94.59L4.25,12a.84.84,0,0,1,.19-.68.71.71,0,0,1,1-.15A2.89,2.89,0,0,0,7.5,12a2.5,2.5,0,0,0,0-5,2.89,2.89,0,0,0-2.06.85.71.71,0,0,1-1-.15A.84.84,0,0,1,4.25,7l.67-4h11l-.64,3.86a1.83,1.83,0,0,0,.41,1.49,1.73,1.73,0,0,0,2.47.21A1.9,1.9,0,0,1,19.5,8a1.5,1.5,0,0,1,0,3Z"></path></svg>