<svg xmlns="http://www.w3.org/2000/svg" xmlns:xlink="http://www.w3.org/1999/xlink" version="1.1" x="0px" y="0px" viewBox="0 0 100 100" style="enable-background:new 0 0 100 100;" xml:space="preserve"><path d="M74.9,74.3c-4.6,0-8.5,3-9.8,7.1c-10.7-1.7-19-11-19-22.2v-0.6c14.3-1.4,25.5-13.5,25.5-28.2V5h-3h-3h-1c-2.2,0-4,1.8-4,4  s1.8,4,4,4h1v17.5c0,12.4-10.1,22.4-22.4,22.4S20.8,42.8,20.8,30.4V12.9h1c2.2,0,4-1.8,4-4s-1.8-4-4-4h-1h-3h-3v25.4  c0,14.6,11.1,26.7,25.3,28.2v0.7c0,14.4,10.8,26.4,24.8,28.1c1.2,4.4,5.2,7.6,10,7.6c5.7,0,10.3-4.6,10.3-10.3S80.6,74.3,74.9,74.3z   M74.9,89.1c-2.4,0-4.4-2-4.4-4.4s2-4.4,4.4-4.4s4.4,2,4.4,4.4S77.3,89.1,74.9,89.1z"></path></svg>