<svg xmlns="http://www.w3.org/2000/svg" viewBox="0 0 128 128" x="0px" y="0px"><path d="M32,118c1.1,0,2-0.9,2-2v-6h8v6c0,1.1,0.9,2,2,2s2-0.9,2-2v-16c0-1.1-0.9-2-2-2s-2,0.9-2,2v6h-8v-6  c0-1.1-0.9-2-2-2s-2,0.9-2,2v16C30,117.1,30.9,118,32,118z M52,102h2v14c0,1.1,0.9,2,2,2c1.1,0,2-0.9,2-2v-14h2c1.1,0,2-0.9,2-2  s-0.9-2-2-2h-8c-1.1,0-2,0.9-2,2S50.9,102,52,102z M68,118c1.1,0,2-0.9,2-2v-8.1l2.2,4.1c0.4,0.7,1.1,1,1.8,1c0.7,0,1.4-0.4,1.8-1  l2.2-4.1v8.1c0,1.1,0.9,2,2,2s2-0.9,2-2v-16c0-1.1-0.9-2-2-2c-0.8,0-1.4,0.4-1.7,1c0,0-4.3,7.8-4.3,7.8S69.8,99,69.7,99  c-0.3-0.6-1-1-1.7-1c-1.1,0-2,0.9-2,2v16C66,117.1,66.9,118,68,118z M84.1,2H29c-5,0-9,4-9,9v106c0,5,4,9,9,9h70c5,0,9-4,9-9V25.9  L84.1,2z M84,7.6L102.4,26H89c-2.8,0-5-2.2-5-5V7.6z M104,117c0,2.8-2.2,5-5,5H29c-2.8,0-5-2.2-5-5V94h80V117z M104,90H24V11  c0-2.8,2.2-5,5-5h51v15c0,5,4,9,9,9h15V90z M90,118h8c1.1,0,2-0.9,2-2c0-1.1-0.9-2-2-2h-6v-14c0-1.1-0.9-2-2-2s-2,0.9-2,2v16  C88,117.1,88.9,118,90,118z M48.3,38c-0.8-0.8-2-0.8-2.8,0L30.6,52.9c-0.8,0.8-0.8,2,0,2.8l14.8,14.8c0.8,0.8,2,0.8,2.8,0  c0.8-0.8,0.8-2,0-2.8L34.8,54.3l13.4-13.4C49,40.1,49,38.8,48.3,38z M79.7,38c-0.8,0.8-0.8,2,0,2.8l13.4,13.4L79.7,67.7  c-0.8,0.8-0.8,2,0,2.8c0.8,0.8,2,0.8,2.8,0l14.8-14.8c0.8-0.8,0.8-2,0-2.8L82.6,38C81.8,37.3,80.5,37.3,79.7,38z M75.6,34.1  c-1-0.6-2.2-0.2-2.7,0.7L51.6,71.7c-0.6,1-0.2,2.2,0.7,2.7c1,0.6,2.2,0.2,2.7-0.7l21.3-36.9C76.9,35.9,76.6,34.7,75.6,34.1z"></path></svg>