<svg width="212" height="212" viewBox="0 0 212 212" fill="none" xmlns="http://www.w3.org/2000/svg">
<g clip-path="url(#clip0_56_626)">
<path d="M210.463 154.954C183.723 125.538 183.392 31.1499 183.392 30.203C183.392 26.9512 180.755 24.3136 177.502 24.3136H28.7702C27.2651 24.3136 25.891 24.8795 24.8483 25.8084C24.8442 25.8084 24.8442 25.8104 24.8442 25.8146C24.7614 25.8863 24.6834 25.9609 24.6068 26.0395L1.72317 48.9214C0.618312 50.0256 -0.0027771 51.5244 -0.0027771 53.0847V181.788V181.881V181.885V181.892C0.00964469 182.653 0.166989 183.38 0.442335 184.045C0.728729 184.743 1.1566 185.398 1.72248 185.962C2.28216 186.524 2.92671 186.945 3.61546 187.234C4.31522 187.528 5.08056 187.689 5.88598 187.689H176.663C179.914 187.689 182.55 185.052 182.55 181.8V164.806H206.105C208.439 164.806 210.548 163.432 211.492 161.298C212.436 159.166 212.035 156.679 210.462 154.956L210.463 154.954ZM34.6602 125.264C37.6153 135.584 41.3342 145.139 45.9579 153.027H34.6602V125.264ZM11.7766 55.5246L22.881 44.4202V156.478L11.7766 167.581V55.5246ZM170.777 175.909H20.1047L31.2071 164.804H170.776V175.909H170.777ZM183.225 153.025H60.087C38.7156 126.313 35.3042 56.7878 34.7601 36.0913H171.696C172.152 55.9044 175.135 119.695 194.645 153.025L183.227 153.026L183.225 153.025Z" fill="black"/>
<path d="M160.48 71.44C145.96 56.92 126.64 48.88 106 48.88C85.36 48.88 66.04 56.9198 51.52 71.44C48.1598 74.8002 48.1598 80.0798 51.52 83.44C53.2001 85.1201 55.3598 85.9599 57.52 85.9599C59.6802 85.9599 61.8399 85.1201 63.52 83.44C74.8 72.04 89.92 65.8 106 65.8C122.08 65.8 137.2 72.0398 148.48 83.44C151.84 86.8002 157.12 86.8002 160.48 83.44C163.84 80.0802 163.84 74.6802 160.48 71.44V71.44Z" fill="black"/>
<path d="M74.08 94.12C70.7198 97.4802 70.7198 102.76 74.08 106.12C75.7601 107.8 77.9198 108.64 80.08 108.64C82.2402 108.64 84.3999 107.8 86.08 106.12C97.12 95.08 115 95.08 125.92 106C129.16 109.36 134.56 109.36 137.92 106C141.28 102.64 141.28 97.3603 137.92 94.0001C120.28 76.4801 91.72 76.4801 74.08 94.12V94.12Z" fill="black"/>
<path d="M119.32 125.92C119.32 133.21 113.41 139.12 106.12 139.12C98.8298 139.12 92.92 133.21 92.92 125.92C92.92 118.63 98.8298 112.72 106.12 112.72C113.41 112.72 119.32 118.63 119.32 125.92Z" fill="black"/>
</g>
<defs>
<clipPath id="clip0_56_626">
<rect width="212" height="212" fill="white"/>
</clipPath>
</defs>
</svg>
