<svg xmlns="http://www.w3.org/2000/svg" xmlns:xlink="http://www.w3.org/1999/xlink" version="1.1" x="0px" y="0px" viewBox="0 0 24 24" style="enable-background:new 0 0 24 24;" xml:space="preserve"><path d="M23.624,13.44c-0.012-0.643-0.15-1.102-0.444-1.411c-0.493-0.518-1.261-0.535-2.322-0.559  c-0.664-0.015-1.491-0.034-2.431-0.188c-0.572-0.093-1.2-0.282-1.843-0.527c-0.014-0.072-0.041-0.142-0.095-0.199  c-0.137-0.145-0.354-0.158-0.515-0.047c-0.215-0.091-0.429-0.188-0.643-0.287c-0.021-0.057-0.051-0.111-0.098-0.155  c-0.11-0.103-0.26-0.126-0.394-0.083c-0.196-0.097-0.39-0.195-0.581-0.295c0.011-0.12-0.026-0.242-0.121-0.329  c-0.146-0.136-0.364-0.133-0.516-0.013c-0.185-0.102-0.364-0.203-0.539-0.303c0.015-0.113-0.012-0.23-0.094-0.322  c-0.141-0.155-0.371-0.171-0.534-0.047c-0.2-0.12-0.39-0.236-0.565-0.345c-0.017-0.058-0.043-0.115-0.088-0.162  c-0.094-0.1-0.225-0.134-0.351-0.115c-0.487-0.312-0.797-0.524-0.861-0.568L10.5,7.398C9.365,6.304,8.616,5.58,7.977,5.867  c-0.917,0.411-0.392,2.152,0,3.152c-1.27,0.795-2.285,1.147-3.021,1.028C4.193,9.924,3.738,9.298,3.338,8.669  C3.074,8.253,2.954,8.072,2.825,7.956C2.61,7.76,2.364,7.749,2.095,7.919c-1.31,0.834-1.534,4.828-1.561,5.841  c-0.276,0.197-0.252,0.61-0.234,0.801c0.057,0.613-0.096,1.494-0.119,1.578c-0.106,0.124-0.121,0.352-0.045,0.497  c0.259,0.498,1.917,1.484,5.129,1.167c1.447-0.036,5.417-0.076,6.371,0.168c0.418,0.107,1.405,0.227,2.641,0.227  c2.08,0,4.864-0.339,6.825-1.646c2.429-1.619,2.86-2.19,2.808-2.679C23.889,13.693,23.777,13.557,23.624,13.44z M22.73,12.837  c0.058,0.16,0.098,0.353,0.102,0.619c-0.443,0.325-2.01,1.325-4.925,1.885c0.046-0.308,0.168-0.762,0.468-1.112  c0.276-0.323,0.644-0.492,1.124-0.519C20.736,13.641,22.107,13.107,22.73,12.837z M10.356,8.294  c0.109,0.073,0.256,0.171,0.424,0.281l-0.052,0.049c-0.161,0.151-0.169,0.404-0.019,0.565c0.079,0.084,0.185,0.126,0.292,0.126  c0.098,0,0.196-0.036,0.273-0.108l0.202-0.189c0.111,0.069,0.227,0.14,0.348,0.214l-0.009,0.008  c-0.164,0.148-0.177,0.401-0.029,0.565c0.079,0.087,0.188,0.132,0.297,0.132c0.096,0,0.191-0.034,0.268-0.103l0.192-0.173  c0.163,0.095,0.332,0.191,0.506,0.288l-0.043,0.047c-0.15,0.163-0.14,0.416,0.023,0.565c0.077,0.071,0.174,0.106,0.271,0.106  c0.108,0,0.215-0.043,0.294-0.129l0.18-0.195c0.145,0.077,0.291,0.153,0.439,0.228l-0.112,0.119  c-0.151,0.162-0.143,0.415,0.019,0.565c0.077,0.072,0.176,0.108,0.273,0.108c0.106,0,0.213-0.042,0.292-0.126l0.282-0.301  c0.12,0.056,0.241,0.112,0.362,0.166l-0.08,0.076c-0.161,0.151-0.168,0.405-0.017,0.565c0.079,0.083,0.185,0.125,0.291,0.125  c0.099,0,0.197-0.036,0.274-0.109l0.339-0.32c0.225,0.088,0.448,0.169,0.67,0.244c-0.096,0.074-0.208,0.144-0.362,0.193  c-0.632,0.203-1.546-0.033-2.635-0.686c-2.074-1.243-3.367-2.065-4.001-2.475C9.99,8.578,10.168,8.446,10.356,8.294z M8.268,6.606  c0.232,0.006,0.916,0.638,1.46,1.16C9.357,8.059,9.001,8.327,8.662,8.564C8.33,7.654,8.157,6.765,8.268,6.606z M2.406,8.702  c0.08,0.117,0.181,0.275,0.257,0.395c0.476,0.75,1.075,1.563,2.165,1.739c1.104,0.176,2.489-0.35,4.292-1.616  c0.501,0.329,1.877,1.216,4.28,2.657c0.968,0.58,1.825,0.872,2.558,0.872c0.271,0,0.524-0.04,0.761-0.119  c0.486-0.163,0.783-0.461,0.952-0.69c0.214,0.053,0.424,0.099,0.628,0.133c0.995,0.163,1.853,0.182,2.541,0.198  c0.399,0.009,0.739,0.019,1.025,0.052c-0.656,0.249-1.578,0.543-2.408,0.589c-0.712,0.039-1.309,0.331-1.727,0.843  c-0.466,0.573-0.617,1.294-0.643,1.727c-1.911,0.284-4.318,0.373-7.294,0.011c-0.519-0.063-0.997-0.125-1.455-0.186  c-2.036-2.338-3.918-3.491-5.531-3.471c-0.586,0.014-1.033,0.186-1.359,0.374C1.612,10.725,1.93,9.223,2.406,8.702z M1.352,13.287  c0.03-0.021,0.061-0.041,0.086-0.071c0.019-0.023,0.473-0.57,1.411-0.583c0.861-0.024,2.273,0.443,4.247,2.499  c-4.405-0.641-5.516-1.126-5.773-1.287C1.329,13.667,1.34,13.477,1.352,13.287z M20.658,15.884  c-2.862,1.909-7.817,1.568-8.824,1.311c-1.257-0.323-6.373-0.199-6.619-0.191c-2.588,0.252-3.906-0.371-4.284-0.667  c0.131-0.46,0.194-1.227,0.169-1.719c1.131,0.548,4.01,1.108,8.596,1.667c1.445,0.176,2.761,0.251,3.956,0.251  c4.398,0,7.146-1.018,8.59-1.778C21.881,15.04,21.379,15.403,20.658,15.884z"></path></svg>