<svg xmlns="http://www.w3.org/2000/svg" xmlns:xlink="http://www.w3.org/1999/xlink" version="1.1" x="0px" y="0px" viewBox="0 0 100 100" style="enable-background:new 0 0 100 100;" xml:space="preserve"><style type="text/css">
	.st0{fill:none;stroke:#000000;stroke-width:2;stroke-linecap:round;stroke-linejoin:round;stroke-miterlimit:10;}
	.st1{stroke:#000000;stroke-miterlimit:10;}
</style><path class="st0" d="M60.6880493,42.3122559C62.1810303,40.4460449,63.2851562,38.2997437,63.9352417,36  l3.1138916-11.0153809h2.6535034c0.9651489,0,1.7475586-0.7824097,1.7475586-1.7475586v-1.7548828  c0-0.9651489-0.7824097-1.7475586-1.7475586-1.7475586H29.8227539c-0.9651489,0-1.7475586,0.7824097-1.7475586,1.7475586v1.7548828  c0,0.9651489,0.7824097,1.7475586,1.7475586,1.7475586h2.6535034L35.5901489,36  c0.6500854,2.2997437,1.7542114,4.4460449,3.2471924,6.3122559l2.8447266,3.5559082  c1.6914062,2.1142578,1.6914062,5.1184692,0,7.2327271l-2.8447266,3.5558472  c-1.492981,1.866272-2.5971069,4.0125732-3.2471924,6.3123779l-3.255249,11.5155029h-2.6327515  c-0.8985596,0-1.6269531,0.7283936-1.6269531,1.6269531v1.9960938c0,0.8984985,0.7283936,1.6269531,1.6269531,1.6269531h40.1210938  c0.8985596,0,1.6269531-0.7284546,1.6269531-1.6269531v-1.9960938c0-0.8985596-0.7283936-1.6269531-1.6269531-1.6269531h-2.6327515  l-3.255249-11.5155029c-0.6500854-2.2998047-1.7542114-4.446106-3.2471924-6.3123779l-2.8447266-3.5558472  c-1.6914062-2.1142578-1.6914062-5.1184692,0-7.2327271L60.6880493,42.3122559z"></path><path class="st1" d="M61.0500488,73.4562988c0.1968384,0.4943237-0.1732788,1.0283203-0.7053833,1.0283203  H39.1807251c-0.5321045,0-0.9022217-0.5339966-0.7053833-1.0283203c0.8635864-2.168335,3.3831177-7.3588257,8.9944458-11.5990601  c1.3616943-1.0289307,3.2241211-1.0289307,4.5858154,0C57.6669312,66.0974731,60.1864624,71.2879639,61.0500488,73.4562988z"></path><path class="st1" d="M52.0483398,46.2176514c-1.3566895,1.0244751-3.2229004,1.0189819-4.5792236-0.0060425  c-1.9511108-1.4743652-3.5212402-3.0621948-4.7835693-4.598999c-0.1518555-0.1848755,0.0133057-0.4650879,0.2485352-0.4216309  c1.0309448,0.1905518,2.1224976,0.5053101,3.1921387,1.0095825c5.3547363,2.524353,8.2529297-3.5927734,12.4310913-4.3557739  c0.3966675-0.0724487,0.6887207,0.3738403,0.4760742,0.7164307C57.5792847,40.9044189,55.3496094,43.7247314,52.0483398,46.2176514z  "></path></svg>