<svg xmlns="http://www.w3.org/2000/svg" xmlns:xlink="http://www.w3.org/1999/xlink" version="1.1" x="0px" y="0px" viewBox="0 0 110 110" enable-background="new 0 0 110 110" xml:space="preserve"><g><g><path d="M38.774,19.992l4.994,0.666l0.226,6.096c2.339,0.785,4.445,2.021,6.231,3.595l5.411-2.841l3.062,4.002l-4.159,4.479    c1.043,2.117,1.683,4.451,1.834,6.891l5.836,1.817l-0.665,4.994l-6.107,0.227c-0.792,2.332-2.032,4.433-3.61,6.211l2.815,5.363    l-4.002,3.062l-4.453-4.135c-2.126,1.041-4.471,1.677-6.92,1.821l-1.814,5.824l-4.994-0.666l-0.227-6.117    c-2.291-0.787-4.355-2.009-6.11-3.556l-5.411,2.84l-3.062-4.002l4.159-4.479c-1.043-2.117-1.683-4.452-1.835-6.892l-5.835-1.818    l0.665-4.994l6.108-0.226c0.78-2.297,1.997-4.369,3.542-6.13l-2.867-5.459l4.002-3.062l4.504,4.183    c2.107-1.043,4.432-1.688,6.862-1.848L38.774,19.992 M38.193,58.038c6.909,0,12.92-5.117,13.858-12.153    c1.021-7.665-4.364-14.706-12.03-15.728c-0.627-0.083-1.25-0.124-1.866-0.124c-6.91,0-12.923,5.116-13.861,12.153    c-1.021,7.666,4.365,14.706,12.03,15.727C36.953,57.997,37.576,58.038,38.193,58.038 M38.772,16.992    c-1.297,0-2.468,0.841-2.862,2.108l-1.242,3.986c-1.356,0.226-2.684,0.583-3.971,1.068l-3.068-2.849    c-0.573-0.532-1.306-0.802-2.042-0.802c-0.64,0-1.282,0.204-1.822,0.617l-4.002,3.062c-1.161,0.888-1.513,2.483-0.833,3.778    l1.96,3.732c-0.796,1.111-1.479,2.293-2.043,3.536l-4.154,0.153c-1.461,0.054-2.67,1.153-2.863,2.602l-0.665,4.994    c-0.193,1.449,0.686,2.826,2.081,3.26l3.968,1.236c0.223,1.367,0.579,2.704,1.065,4.001l-2.828,3.045    c-0.995,1.071-1.073,2.704-0.185,3.865l3.062,4.002c0.584,0.764,1.475,1.177,2.384,1.177c0.473,0,0.95-0.111,1.393-0.344    l3.681-1.932c1.106,0.797,2.283,1.481,3.521,2.049l0.155,4.171c0.054,1.46,1.153,2.669,2.602,2.862l4.994,0.666    c0.134,0.018,0.267,0.026,0.398,0.026c1.297,0,2.468-0.841,2.862-2.107l1.23-3.951c1.375-0.22,2.721-0.574,4.027-1.062    l3.024,2.808c0.573,0.532,1.306,0.802,2.042,0.802c0.64,0,1.282-0.204,1.822-0.617l4.002-3.062    c1.161-0.888,1.513-2.483,0.834-3.777l-1.904-3.627c0.823-1.137,1.527-2.349,2.108-3.627l4.153-0.154    c1.461-0.054,2.67-1.153,2.862-2.602l0.665-4.994c0.193-1.449-0.687-2.826-2.082-3.26l-3.968-1.235    c-0.223-1.367-0.578-2.703-1.065-4l2.828-3.046c0.995-1.071,1.072-2.703,0.185-3.864l-3.062-4.002    c-0.584-0.764-1.475-1.177-2.385-1.177c-0.473,0-0.95,0.111-1.393,0.344l-3.68,1.933c-1.142-0.822-2.359-1.524-3.642-2.102    l-0.153-4.135c-0.054-1.461-1.153-2.67-2.602-2.863l-4.994-0.666C39.037,17,38.904,16.992,38.772,16.992L38.772,16.992z     M38.193,55.038c-0.488,0-0.983-0.033-1.472-0.098c-6.013-0.801-10.253-6.345-9.453-12.357c0.725-5.444,5.406-9.549,10.887-9.549    c0.488,0,0.982,0.033,1.47,0.098c6.013,0.801,10.253,6.345,9.452,12.358C48.352,50.933,43.673,55.038,38.193,55.038L38.193,55.038    z"></path></g><g><path d="M79.745,52.814l0.995,5.818c1.099,0.298,2.14,0.729,3.105,1.283l4.816-3.408l3.508,3.508l-3.409,4.814    c0.555,0.967,0.985,2.008,1.283,3.106l5.818,0.996v4.96l-5.818,0.995c-0.298,1.099-0.729,2.14-1.283,3.105l3.409,4.816    l-3.508,3.508l-4.816-3.41c-0.966,0.555-2.007,0.985-3.105,1.283l-0.995,5.819h-4.961l-0.995-5.819    c-1.099-0.298-2.14-0.729-3.105-1.282l-4.816,3.408l-3.508-3.508l3.409-4.815c-0.554-0.965-0.984-2.007-1.282-3.105l-5.819-0.995    v-4.961l5.818-0.995c0.299-1.099,0.729-2.14,1.284-3.106l-3.408-4.814l3.508-3.508l4.814,3.408    c0.966-0.554,2.007-0.985,3.105-1.283l0.995-5.818H79.745 M77.265,81.308c5.467,0,9.897-4.431,9.897-9.896    c0-5.467-4.431-9.898-9.897-9.898s-9.897,4.432-9.897,9.898C67.367,76.877,71.798,81.308,77.265,81.308 M79.745,49.814h-4.961    c-1.462,0-2.711,1.053-2.957,2.494l-0.694,4.059c-0.057,0.023-0.113,0.047-0.17,0.07l-3.36-2.379    c-0.522-0.37-1.129-0.551-1.732-0.551c-0.773,0-1.542,0.298-2.122,0.879l-3.508,3.508c-1.034,1.033-1.172,2.661-0.327,3.854    l2.379,3.36c-0.023,0.057-0.048,0.114-0.07,0.171l-4.061,0.694c-1.44,0.246-2.494,1.495-2.494,2.957v4.961    c0,1.462,1.054,2.711,2.494,2.957l4.061,0.694c0.022,0.057,0.046,0.113,0.069,0.169l-2.38,3.362    c-0.845,1.193-0.707,2.821,0.327,3.854l3.508,3.508c0.58,0.581,1.349,0.879,2.122,0.879c0.604,0,1.209-0.182,1.731-0.551    l3.363-2.38c0.057,0.023,0.113,0.047,0.17,0.069l0.694,4.061c0.246,1.44,1.495,2.494,2.957,2.494h4.961    c1.462,0,2.711-1.054,2.957-2.494l0.694-4.061c0.057-0.022,0.113-0.046,0.17-0.07l3.362,2.381c0.522,0.37,1.129,0.552,1.732,0.552    c0.773,0,1.542-0.298,2.122-0.879l3.508-3.508c1.034-1.033,1.172-2.661,0.327-3.854l-2.38-3.362    c0.024-0.057,0.048-0.113,0.07-0.17l4.06-0.694c1.44-0.246,2.494-1.495,2.494-2.957v-4.96c0-1.462-1.053-2.71-2.494-2.957    l-4.06-0.695c-0.022-0.057-0.046-0.113-0.07-0.17l2.38-3.361c0.845-1.192,0.707-2.821-0.327-3.854l-3.508-3.508    c-0.58-0.581-1.349-0.879-2.122-0.879c-0.604,0-1.209,0.181-1.731,0.551l-3.363,2.379c-0.057-0.023-0.113-0.047-0.17-0.07    l-0.694-4.059C82.456,50.867,81.207,49.814,79.745,49.814L79.745,49.814z M77.265,78.308c-3.804,0-6.897-3.094-6.897-6.896    c0-3.804,3.094-6.898,6.897-6.898s6.897,3.095,6.897,6.898C84.162,75.214,81.068,78.308,77.265,78.308L77.265,78.308z"></path></g></g></svg>