<svg width="212" height="212" viewBox="0 0 212 212" fill="none" xmlns="http://www.w3.org/2000/svg">
<circle cx="106" cy="106" r="103.5" stroke="#64C7CA" stroke-width="5"/>
<path fill-rule="evenodd" clip-rule="evenodd" d="M103.117 40.7698V64.3539H87.9093L103.117 40.7698ZM123.849 64.3539H109.109V41.6597L123.849 64.3539ZM127.735 70.2964L141.022 90.7465H123.709C117.939 87.3761 111.976 85.6895 105.834 85.6895C99.5618 85.6895 93.543 87.3761 87.7704 90.7465H70.7392L84.0283 70.2964H127.735ZM164.324 126.729C164.512 127.012 164.702 127.306 164.888 127.62L176.259 145.073H146.405H142.101L142.102 123.596H162.364L164.324 126.729ZM158.477 117.605H132.972C136.34 114.33 139.024 111.055 141.019 107.777C138.835 104.099 135.701 100.416 131.613 96.7354H144.904L158.477 117.605ZM136.108 123.595V145.073L76.5388 144.933V123.597H85.8037C92.1686 127.776 98.844 129.867 105.832 129.867C112.695 129.867 119.307 127.778 125.672 123.597H136.108V123.595ZM109.247 98.84C109.247 100.214 109.838 101.493 111.024 102.677C111.932 103.582 113.131 104.034 114.627 104.034C116.406 104.034 117.795 103.331 118.795 101.927C119.605 104.016 120.01 105.969 120.01 107.776C120.01 111.737 118.716 115.016 116.124 117.604C115.998 117.728 115.892 117.834 115.797 117.931C112.929 120.706 109.542 122.097 105.644 122.097C101.588 122.097 98.159 120.708 95.3519 117.931C95.2592 117.834 95.1644 117.726 95.0689 117.604C92.5744 115.014 91.3248 111.737 91.3248 107.776C91.3248 103.69 92.6672 100.259 95.3513 97.481C95.6619 97.1726 95.9593 96.9198 96.2376 96.7343C98.8288 94.5496 101.963 93.4587 105.644 93.4587C107.951 93.4587 109.793 93.7541 111.166 94.347C110.385 95.0326 109.885 95.8288 109.666 96.7316C109.386 97.3272 109.247 98.03 109.247 98.8399L109.247 98.84ZM70.2691 107.778C72.2656 111.055 75.0114 114.331 78.504 117.606H53.2825L66.8526 96.7336H79.6732C75.6173 100.417 72.4831 104.097 70.2689 107.778H70.2691ZM70.5947 123.596V144.932L35.6863 144.793L49.398 123.595L70.5947 123.596Z" fill="black"/>
<path fill-rule="evenodd" clip-rule="evenodd" d="M108.196 6.93758C108.821 7.59366 109.134 8.34111 109.134 9.18344V14.3311C109.134 15.1418 108.821 15.8927 108.196 16.5789C107.572 17.2014 106.84 17.5139 105.997 17.5139C105.126 17.5139 104.373 17.2014 103.752 16.5789C103.097 15.8933 102.768 15.1417 102.768 14.3311L102.768 9.18291C102.768 8.34065 103.097 7.59389 103.752 6.93705C104.375 6.31257 105.126 6 105.998 6C106.842 6.00069 107.572 6.31326 108.196 6.93774L108.196 6.93758ZM205.014 108.202C204.358 108.858 203.613 109.183 202.767 109.183H197.853C196.979 109.183 196.231 108.858 195.609 108.202C194.953 107.577 194.624 106.845 194.624 106.003C194.624 105.131 194.953 104.38 195.609 103.755C196.23 103.132 196.977 102.82 197.853 102.82H202.767C203.613 102.82 204.36 103.132 205.014 103.755C205.639 104.379 205.949 105.131 205.949 106.003C205.952 106.844 205.64 107.576 205.014 108.202ZM102.954 29.2115C102.829 28.8673 102.766 28.5259 102.766 28.1817V22.2853C102.766 21.443 103.095 20.7107 103.75 20.0862C104.372 19.4322 105.124 19.1052 105.996 19.1052C106.84 19.1052 107.572 19.4343 108.195 20.0862C108.819 20.7086 109.132 21.443 109.132 22.2853V28.1817C109.132 28.7113 109.037 29.241 108.849 29.7707C108.317 29.241 107.726 28.8824 107.07 28.6942C106.447 28.4771 105.822 28.4304 105.198 28.5547C104.761 28.5547 104.368 28.6014 104.028 28.6942C103.627 28.791 103.268 28.9621 102.954 29.2115H102.954ZM143.059 193.041L143.857 195.099C144.167 195.973 144.167 196.829 143.857 197.671C143.51 198.418 142.907 198.999 142.029 199.404C141.221 199.746 140.44 199.746 139.693 199.404C138.819 198.999 138.241 198.418 137.964 197.671L137.167 195.614C136.728 194.74 136.728 193.945 137.167 193.227C137.354 192.356 137.884 191.763 138.758 191.446C139.598 191.013 140.442 191.013 141.284 191.446C142.029 191.762 142.624 192.292 143.059 193.041L143.059 193.041ZM70.3405 192.714C70.4669 193.586 70.311 194.384 69.874 195.099L69.3588 196.085C68.8291 196.831 68.1579 197.315 67.3453 197.532C66.4714 197.629 65.6614 197.458 64.914 197.02C64.1968 196.519 63.7743 195.834 63.65 194.96C63.4308 194.118 63.5888 193.32 64.1185 192.573L64.6358 191.592C65.0391 190.872 65.6636 190.47 66.5079 190.374C67.3481 190.123 68.1601 190.264 68.9392 190.794C69.6543 191.23 70.1208 191.87 70.3406 192.714L70.3405 192.714ZM108.196 198.609C108.821 199.296 109.134 200.046 109.134 200.856V202.77C109.134 203.646 108.821 204.393 108.196 205.016C107.572 205.672 106.84 206 105.997 206C105.126 206 104.373 205.673 103.752 205.016C103.097 204.392 102.768 203.646 102.768 202.77V200.856C102.768 200.044 103.097 199.297 103.752 198.609C104.374 197.986 105.125 197.672 105.997 197.672C106.842 197.669 107.572 197.986 108.196 198.609ZM108.196 179.938C108.821 180.561 109.134 181.31 109.134 182.182V193.226C109.134 194.039 108.821 194.786 108.196 195.472C107.572 196.096 106.84 196.405 105.997 196.405C105.126 196.405 104.373 196.096 103.752 195.472C103.097 194.786 102.768 194.037 102.768 193.226V182.182C102.768 181.31 103.097 180.559 103.752 179.938C104.374 179.316 105.125 179.001 105.997 179.001C106.842 179.001 107.572 179.316 108.196 179.938V179.938ZM103.75 155.51C104.373 154.856 105.124 154.529 105.996 154.529C106.84 154.529 107.573 154.856 108.195 155.51C108.82 156.134 109.132 156.884 109.132 157.758V170.532C109.132 171.406 108.82 172.157 108.195 172.776C107.571 173.403 106.838 173.713 105.996 173.713C105.124 173.713 104.371 173.403 103.75 172.776C103.096 172.156 102.767 171.406 102.767 170.532V157.758C102.767 156.883 103.098 156.134 103.75 155.51ZM75.9558 173.246C76.8276 173.557 77.4054 174.135 77.6864 174.977C78.0285 175.758 78.0285 176.549 77.6864 177.363L73.379 187.612C72.942 188.484 72.3656 189.062 71.6484 189.34C70.7746 189.685 69.9179 189.685 69.0756 189.34C68.2018 188.935 67.6701 188.359 67.4846 187.612C67.0476 186.77 67.0476 185.911 67.4846 185.037L71.792 174.833C72.1361 173.993 72.7118 173.463 73.5225 173.244C74.3015 172.839 75.1142 172.839 75.9558 173.246L75.9558 173.246ZM78.2017 168.286C77.3278 167.881 76.735 167.286 76.4224 166.505C76.1119 165.665 76.171 164.871 76.61 164.12L81.7109 152.935H87.8862C88.0422 153.716 87.9494 154.465 87.6052 155.182L82.3648 166.881C81.9258 167.601 81.335 168.13 80.5856 168.472C79.7151 168.784 78.9189 168.723 78.2016 168.286L78.2017 168.286ZM168.889 171.843C168.984 170.874 169.372 170.112 170.06 169.547C170.683 168.927 171.462 168.661 172.399 168.756C173.275 168.88 173.973 169.252 174.505 169.876L176.749 172.263C177.373 172.919 177.641 173.727 177.544 174.694C177.422 175.538 177.048 176.209 176.424 176.705C175.768 177.393 175.036 177.674 174.225 177.55C173.225 177.425 172.463 177.05 171.933 176.427L169.687 174.043C169.06 173.387 168.796 172.655 168.889 171.843L168.889 171.843ZM182.649 136.653L185.033 137.634C185.785 137.947 186.36 138.525 186.766 139.365C187.108 140.114 187.108 140.908 186.766 141.754C186.36 142.626 185.785 143.219 185.033 143.531C184.381 143.719 183.74 143.763 183.117 143.673L179.093 137.306C179.344 136.964 179.734 136.745 180.264 136.652C181.007 136.216 181.802 136.216 182.649 136.653L182.649 136.653ZM195.89 142.409C196.673 142.721 197.2 143.312 197.481 144.19C197.732 145.03 197.683 145.824 197.341 146.575C196.997 147.417 196.421 148.012 195.613 148.354C194.737 148.544 193.926 148.479 193.175 148.167L189.531 146.576C188.653 146.233 188.125 145.654 187.938 144.845C187.594 143.971 187.594 143.161 187.938 142.412C188.219 141.572 188.792 141.04 189.666 140.823C190.508 140.476 191.369 140.476 192.243 140.823L195.89 142.409ZM156.63 161.127C156.004 160.471 155.695 159.709 155.695 158.833C155.695 158.02 156.004 157.29 156.63 156.636C157.255 155.978 157.989 155.65 158.827 155.65C159.705 155.65 160.455 155.977 161.075 156.636L168.751 164.31C169.371 164.934 169.686 165.666 169.686 166.507C169.686 167.382 169.371 168.134 168.751 168.756C168.126 169.413 167.377 169.735 166.507 169.735C165.663 169.735 164.928 169.413 164.306 168.756L156.63 161.127ZM131.831 167.023C131.52 167.863 130.943 168.443 130.1 168.756C129.26 168.973 128.446 168.927 127.665 168.614C126.827 168.272 126.312 167.692 126.124 166.884L121.631 155.046C121.321 154.265 121.272 153.564 121.492 152.938H127.527L132.022 164.592C132.233 165.464 132.172 166.274 131.831 167.023L131.831 167.023ZM130.566 178.209C130.256 177.367 130.256 176.552 130.566 175.775C130.879 174.933 131.474 174.404 132.345 174.184C133.188 173.874 133.983 173.874 134.732 174.184C135.572 174.529 136.167 175.119 136.509 175.962L140.299 185.976C140.518 186.852 140.47 187.662 140.162 188.407C139.851 189.285 139.256 189.859 138.385 190.137C137.57 190.389 136.774 190.344 135.995 190C135.153 189.69 134.623 189.112 134.404 188.267L130.566 178.209ZM170.482 106.005C170.482 106.848 170.171 107.58 169.544 108.205C168.924 108.861 168.175 109.186 167.301 109.186L160.796 109.373L157.426 104.089V103.899C158.05 103.277 158.783 102.964 159.625 102.964L167.301 102.825C168.173 102.825 168.924 103.137 169.545 103.76C170.172 104.382 170.482 105.134 170.482 106.006L170.482 106.005ZM192.242 103.758C192.862 104.382 193.173 105.134 193.173 106.005C193.173 106.848 192.862 107.58 192.242 108.205C191.588 108.861 190.836 109.186 189.994 109.186H178.952C178.11 109.186 177.375 108.861 176.751 108.205C176.097 107.58 175.77 106.848 175.77 106.005C175.77 105.134 176.097 104.383 176.751 103.758C177.375 103.135 178.11 102.823 178.952 102.823H189.994C190.836 102.823 191.589 103.135 192.242 103.758ZM46.2419 170.207C45.6174 170.861 44.8679 171.19 43.996 171.19C43.1538 171.19 42.4214 170.861 41.7969 170.207C41.1113 169.584 40.7671 168.835 40.7671 167.963C40.7671 167.118 41.1113 166.372 41.7969 165.717L49.4707 158.039C50.0951 157.419 50.8275 157.104 51.6697 157.104C52.5099 157.104 53.2588 157.419 53.9156 158.039C54.538 158.695 54.8506 159.445 54.8506 160.285C54.8506 161.127 54.538 161.893 53.9156 162.579L46.2419 170.207ZM36.1809 171.19C36.8054 170.534 37.5549 170.206 38.4268 170.206C39.269 170.206 40.0034 170.533 40.6258 171.19C41.2503 171.814 41.5608 172.548 41.5608 173.389C41.5608 174.26 41.2503 175.011 40.6258 175.635L39.8324 176.567C39.2079 177.226 38.4756 177.553 37.6333 177.553C36.7594 177.553 36.0106 177.226 35.3895 176.567C34.7335 175.947 34.4058 175.211 34.4058 174.37C34.4058 173.495 34.7348 172.746 35.3895 172.125L36.1809 171.19ZM14.7969 137.635L15.8734 137.308C16.6202 136.966 17.4329 137.011 18.3067 137.448C19.024 137.887 19.5543 138.526 19.8978 139.366C20.2104 140.115 20.1465 140.909 19.7123 141.755C19.307 142.502 18.7121 143.049 17.9331 143.391L16.8565 143.674C16.0143 144.016 15.1555 143.969 14.2837 143.533C13.5665 143.096 13.0362 142.505 12.6927 141.755C12.3801 140.911 12.4289 140.069 12.8342 139.229C13.2691 138.479 13.9231 137.949 14.7969 137.636L14.7969 137.635ZM32.0177 131.224C32.7672 130.823 33.5628 130.823 34.4043 131.224H34.5898L29.4442 139.089L25.4658 140.678C24.6235 140.991 23.7648 140.991 22.8909 140.678C22.0802 140.241 21.5485 139.65 21.2998 138.899C20.8945 138.059 20.8945 137.217 21.2998 136.373C21.6419 135.501 22.2197 134.971 23.0324 134.782L32.0177 131.224ZM13.4863 103.756C14.1087 104.381 14.4213 105.132 14.4213 106.004C14.4213 106.846 14.1087 107.579 13.4863 108.203C12.8618 108.859 12.1123 109.184 11.2405 109.184H9.18085C8.30699 109.184 7.55817 108.859 6.93499 108.203C6.31257 107.579 6 106.846 6 106.004C6 105.132 6.31257 104.382 6.93499 103.756C7.55947 103.134 8.30898 102.821 9.18085 102.821H11.2405C12.1122 102.821 12.8618 103.134 13.4863 103.756ZM32.2973 103.756C32.983 104.381 33.3271 105.132 33.3271 106.004C33.3271 106.846 32.983 107.579 32.2973 108.203C31.6749 108.859 30.9405 109.184 30.0983 109.184H19.101C18.2271 109.184 17.4804 108.859 16.8551 108.203C16.2011 107.579 15.8741 106.846 15.8741 106.004C15.8741 105.132 16.2011 104.382 16.8551 103.756C17.4796 103.134 18.227 102.821 19.101 102.821H30.0983C30.9426 102.821 31.6749 103.134 32.2973 103.756ZM38.5696 106.004C38.5696 105.132 38.8966 104.382 39.5506 103.756C40.1751 103.134 40.9225 102.821 41.7964 102.821H51.9962C52.5258 102.821 52.9944 102.916 53.4018 103.1L49.2818 109.183H41.7965C40.9226 109.183 40.1738 108.858 39.5506 108.202C38.8966 107.578 38.5696 106.846 38.5696 106.004L38.5696 106.004ZM26.122 68.1465C26.8392 67.7075 27.6355 67.7075 28.5086 68.1465L38.571 72.4518C39.4132 72.7623 40.0061 73.3551 40.3481 74.2289C40.6291 74.9489 40.6291 75.7424 40.3481 76.6155C39.9112 77.4598 39.3183 78.0506 38.571 78.3947C37.6971 78.6757 36.8549 78.6757 36.0428 78.3947L25.9826 74.0406C25.1087 73.6352 24.5646 73.0595 24.3448 72.31C23.9078 71.4362 23.9078 70.5795 24.3448 69.7372C24.6848 68.8957 25.2798 68.3633 26.1219 68.1462L26.122 68.1465ZM23.0346 66.6969C23.3788 67.4437 23.33 68.2543 22.8931 69.1281C22.4878 69.8454 21.9093 70.3778 21.1626 70.7192C20.3203 70.9981 19.4616 70.9535 18.5898 70.5797L16.2032 69.4084C15.4565 68.9715 14.9241 68.3786 14.6122 67.6313C14.2996 66.8185 14.3607 65.977 14.7997 65.1031C15.205 64.3536 15.8446 63.824 16.7177 63.51C17.435 63.1995 18.2312 63.2462 19.1024 63.6515L21.4889 64.7761C22.2391 65.213 22.7537 65.8526 23.0347 66.697L23.0346 66.6969ZM34.4037 37.4498C34.4037 36.6075 34.7328 35.8711 35.3875 35.2507C36.0099 34.6283 36.7594 34.3137 37.6313 34.3137C38.4735 34.3137 39.2079 34.6262 39.8303 35.2507L42.4031 37.8256C43.0592 38.4501 43.3869 39.1824 43.3869 40.0247C43.3869 40.8985 43.0599 41.6453 42.4031 42.2705C41.7491 42.893 41.0147 43.2076 40.2041 43.2076C39.3302 43.2076 38.5663 42.895 37.9123 42.2705L35.3863 39.6956C34.733 39.0705 34.4039 38.321 34.4039 37.4498H34.4037ZM197.857 68.285C198.577 68.724 199.089 69.3636 199.4 70.2059C199.744 70.9849 199.702 71.7804 199.261 72.5905C198.857 73.3372 198.262 73.8841 197.483 74.2262L192.758 75.9609C191.884 76.303 191.015 76.2542 190.138 75.8193C189.391 75.3804 188.875 74.7895 188.595 74.0401C188.252 73.1978 188.295 72.3563 188.736 71.5141C189.171 70.735 189.811 70.2053 190.654 69.925L195.426 68.1479C196.173 67.8037 196.983 67.8504 197.857 68.2853L197.857 68.285ZM172.592 82.6967C171.716 82.3525 171.139 81.7617 170.857 80.9195C170.515 80.0456 170.564 79.2501 171.001 78.5329C171.311 77.6907 171.887 77.0978 172.733 76.7537L183.118 72.9188C183.992 72.6063 184.849 72.6674 185.691 73.1043C186.408 73.4169 186.941 74.0077 187.282 74.8815C187.626 75.6942 187.58 76.5357 187.143 77.4096C186.801 78.1591 186.208 78.6888 185.366 79.0007L174.976 82.8375C174.135 83.1507 173.339 83.104 172.592 82.6966L172.592 82.6967ZM149.894 85.8796L161.733 81.0616C162.48 80.6226 163.278 80.6226 164.118 81.0616C164.868 81.4058 165.46 81.9966 165.899 82.8388C166.178 83.5539 166.178 84.3522 165.899 85.2234C165.46 85.9729 164.87 86.5658 164.118 87.0027L152.327 91.7745C151.453 92.0871 150.643 92.0871 149.894 91.7745C149.491 91.5574 149.174 91.3376 148.961 91.1184L147.975 89.6661C147.758 88.951 147.823 88.2626 148.165 87.6086C148.475 86.7678 149.054 86.1921 149.894 85.8795L149.894 85.8796ZM129.634 47.8829C130.38 47.448 131.177 47.448 132.023 47.8829C132.863 48.1639 133.458 48.7416 133.8 49.6134C134.081 50.3629 134.081 51.1749 133.8 52.0489L130.757 58.5532C130.32 59.3 129.729 59.8784 128.978 60.2838H128.838L125.332 54.9039L127.905 49.4739C128.182 48.6949 128.76 48.1631 129.634 47.8828L129.634 47.8829ZM146.572 61.0793C147.197 60.4548 147.995 60.1422 148.961 60.1422C149.802 60.1422 150.536 60.4548 151.163 61.0793C151.688 61.7649 151.956 62.5755 151.956 63.5105C151.956 64.3548 151.641 65.1036 151.021 65.7583L141.894 74.6473C141.271 75.1769 140.539 75.4428 139.697 75.4428C139.26 75.4428 138.95 75.394 138.762 75.3033L136.514 72.1205C136.514 71.2782 136.829 70.5905 137.453 70.0609L146.572 61.0793ZM157.057 58.2242C156.147 58.2242 155.419 57.9116 154.856 57.2892C154.233 56.6668 153.919 55.9152 153.919 55.0414C153.919 54.0748 154.233 53.3404 154.856 52.8424L162.671 44.9812C163.325 44.3251 164.138 43.9974 165.102 43.9974C165.915 43.9974 166.649 44.3244 167.303 44.9812C167.831 45.6056 168.099 46.3991 168.099 47.3677C168.099 48.2416 167.788 48.9904 167.164 49.6136L159.347 57.4289C158.691 57.9606 157.929 58.2244 157.057 58.2244V58.2242ZM137.168 28.3703C137.451 27.5281 138.024 26.9984 138.896 26.7813C139.646 26.3423 140.441 26.3423 141.286 26.7813C142.128 27.0939 142.721 27.6847 143.063 28.5585C143.344 29.2757 143.344 30.0719 143.063 30.945L138.386 41.0074C137.947 41.8497 137.37 42.4425 136.655 42.7846C135.809 43.0676 134.954 43.0676 134.078 42.7846C133.236 42.3476 132.708 41.7568 132.487 41.0074C132.052 40.1336 132.052 39.2893 132.487 38.4814L137.168 28.3703ZM143.999 14.6126C144.839 14.2072 145.7 14.2072 146.572 14.6126C147.289 14.864 147.864 15.3937 148.303 16.2016C148.615 17.0775 148.615 17.9342 148.303 18.7784L146.43 23.5964C146.088 24.3136 145.493 24.892 144.651 25.3269C143.777 25.6711 142.98 25.6711 142.267 25.3269C141.395 24.9848 140.8 24.407 140.485 23.5964C140.05 22.7225 140.05 21.9098 140.485 21.163L142.403 16.3912C142.596 15.5475 143.121 14.956 143.999 14.6126L143.999 14.6126ZM168.283 39.2255L172.262 35.2472C172.886 34.6248 173.634 34.3101 174.508 34.3101C175.348 34.3101 176.099 34.6688 176.751 35.3887C177.283 36.0427 177.547 36.7922 177.547 37.6346C177.547 38.4768 177.224 39.2091 176.566 39.8336L172.59 43.8581C171.84 44.3898 171.044 44.6536 170.2 44.6536C169.328 44.6536 168.626 44.341 168.096 43.7186C167.469 42.9375 167.161 42.142 167.161 41.334C167.163 40.4581 167.535 39.7553 168.283 39.2257L168.283 39.2255ZM49.6135 77.2697L61.2655 82.5101C62.0123 82.8226 62.5447 83.4176 62.8546 84.2893C63.0737 85.1316 63.0126 85.9731 62.6691 86.8175C62.3586 87.5642 61.7808 88.1111 60.9385 88.4532C60.0963 88.6407 59.2843 88.5796 58.5052 88.2677L46.8999 82.9812C46.0261 82.6687 45.4943 82.093 45.3068 81.2507C44.9647 80.4085 44.9647 79.5964 45.3068 78.8153C45.5898 77.973 46.1655 77.4605 47.0394 77.2723C47.8803 76.924 48.7397 76.924 49.6136 77.2695L49.6135 77.2697ZM58.7367 61.8742C58.7367 61.0615 59.0493 60.3292 59.6717 59.6751C60.2962 59.0527 61.0306 58.7381 61.8708 58.7381C62.7446 58.7381 63.4935 59.0507 64.1166 59.6751L73.242 68.7523C73.8665 69.4084 74.177 70.1558 74.177 70.9982C74.177 71.4351 74.1303 71.8741 74.0375 72.3089C73.8184 72.6215 73.6006 72.9334 73.3814 73.246H73.242C72.6196 73.9 71.8701 74.227 70.9961 74.227C70.1539 74.227 69.4216 73.9 68.7971 73.246L59.6717 64.1667C59.0514 63.5099 58.7367 62.7481 58.7367 61.8742L58.7367 61.8742ZM55.7881 51.3915C56.4442 52.0139 56.7691 52.7483 56.7691 53.5906C56.7691 54.4644 56.4421 55.2112 55.7881 55.8364C55.1657 56.4609 54.4313 56.7735 53.589 56.7735C52.7468 56.7735 51.9979 56.4609 51.3432 55.8364L43.5259 48.0211C42.9035 47.3967 42.5909 46.6492 42.5909 45.7753C42.5909 44.933 42.9035 44.1986 43.5259 43.5762C44.182 42.8885 44.9164 42.5464 45.725 42.5464C46.5989 42.5464 47.3477 42.8885 47.9709 43.5762L55.7881 51.3915ZM82.7894 45.3096C83.6653 44.9654 84.522 45.0121 85.3643 45.4511C86.1454 45.7637 86.675 46.3545 86.9553 47.2283L88.4076 50.7402L84.2437 56.9155C83.8068 56.6366 83.4942 56.2299 83.3088 55.7002L80.9222 49.4767C80.5801 48.6029 80.6268 47.8094 81.0637 47.0921C81.401 46.2127 81.9795 45.6199 82.7894 45.3093L82.7894 45.3096ZM74.6939 24.2527C75.5362 23.9085 76.3166 23.9085 77.0346 24.2527C77.9063 24.5337 78.5164 25.1114 78.8599 25.9832L82.7895 36.3704C83.041 37.2127 82.9943 38.0082 82.6501 38.757C82.3375 39.5992 81.7618 40.177 80.9175 40.4896C80.0416 40.7087 79.2337 40.6627 78.4863 40.3501C77.6735 40.008 77.1439 39.4282 76.8952 38.6196L72.9168 28.1835C72.6043 27.3412 72.6043 26.5629 72.9168 25.8428C73.2294 24.9697 73.8202 24.44 74.694 24.2525L74.6939 24.2527ZM68.4257 14.4706C68.7679 13.6284 69.3607 13.0355 70.2029 12.6935C70.9524 12.2545 71.7459 12.2545 72.5875 12.6935C73.337 13.0356 73.9127 13.6285 74.318 14.4706L75.9579 18.449C76.2684 19.1958 76.2684 20.0085 75.9579 20.8823C75.5189 21.5995 74.9281 22.178 74.1786 22.6128C73.3363 22.9254 72.5408 22.9254 71.794 22.6128C70.9517 22.178 70.3589 21.5995 70.0168 20.8823L68.4257 16.8579C67.9868 15.9861 67.9868 15.1899 68.4257 14.4706H68.4257Z" fill="black"/>
</svg>
