<?xml version="1.0" encoding="UTF-8"?>
<svg width="1200pt" height="1200pt" version="1.1" viewBox="0 0 1200 1200" xmlns="http://www.w3.org/2000/svg">
 <path d="m1157.5 547.82c-19.969-31.195-65.121-38.57-131.51-40.371-41.102-1.1133-60.766-5.918-69.09-8.8516-0.95703-1.4062-2.1875-2.6484-3.6797-3.6406-0.26953-0.1875-0.5625-0.34375-0.83984-0.5-1.4961-2.2305-3.6562-4.0469-6.3477-5.0898-1.0469-0.40234-34.949-13.477-82.41-31.895 0.52734-4.7578-1.5-9.6523-5.7148-12.574-6.0273-4.1914-14.277-2.7617-18.574 3.1367-11.141-4.3281-22.758-8.8516-34.672-13.496 0.95313-5.1172-1.125-10.543-5.7148-13.645-6.168-4.1602-14.555-2.5391-18.723 3.6367l-0.25391 0.37109c-11.023-4.3047-22.184-8.6641-33.32-13.027 2.4805-5.8008 0.61719-12.73-4.7812-16.43-6.1445-4.207-14.539-2.6367-18.746 3.5l-1.9922 2.9141c-11.84-4.6602-23.543-9.2617-34.914-13.758 1.1836-5.2344-0.82031-10.891-5.5195-14.113-6.1445-4.2031-14.543-2.6367-18.746 3.5039l-0.55078 0.78906c-13.258-5.2656-25.836-10.289-37.391-14.926 0.1875-4.4883-1.8555-8.9609-5.8438-11.688-5.668-3.8789-13.238-2.8359-17.684 2.1719-16.945-6.9141-30.195-12.457-38.098-16.012-55.109-24.801-67.445-28.664-69.355-29.184-6.1719-1.6758-12.676 1.1992-15.57 6.9062l-29.418 57.879c-3.2422 5.7461-5.7578 10.371-7.6719 14.082-14.207 8.0156-31.32 15.938-54.348 22.75-38.059 11.258-78.539 16.191-113.88 14.914-3.0977-1.4062-6.5938-1.5586-9.7695-0.52344-26.711-1.8984-49.887-7.5391-65.945-16.902-40.895-23.859-39.328-43.816-32.652-69.402 6.5-24.914 3.168-36.156-13.699-46.281-4.2148-2.5312-9.0312-3.1641-13.543-1.7812-8.8789 2.7188-12.605 10.703-20.035 26.609-6.1211 13.113-15.379 32.926-31.398 59.473-52.062 86.297-55.117 155.93-48.5 199.15 5.2734 34.465 17.289 58.137 23.906 69.102-4.9141 3.4141-7.125 9.8008-4.9727 15.684 2.5469 6.9688 15.91 42.359 28.75 55.199 2.3594 2.3594 5.3672 4.5273 9.0312 6.5234 0.91016 1.5312 2.1406 2.9141 3.6719 4.0234l42.32 30.691c3.0742 2.2227 6.9414 3.0664 10.656 2.2812 3.7227-0.76953 6.9375-3.0703 8.8672-6.332l1.4297-2.418 15.531 11.359c3.4648 2.5234 7.9297 3.2578 12.023 1.9688 4.0898-1.3047 7.3203-4.4609 8.6992-8.5234l0.089844-0.26172 13.012 9.9297c3.3281 2.5391 7.6445 3.3906 11.688 2.2969 4.0391-1.0938 7.3438-3.9922 8.9492-7.8633l2.207-5.3164 13.695 10.594c3.375 2.6055 7.7773 3.4648 11.883 2.3164 4.1094-1.1484 7.4258-4.168 8.9531-8.1523l0.58984-1.5273 13.938 9.4141c3.2031 2.1719 7.1836 2.8516 10.93 1.8789 3.7422-0.96875 6.8906-3.4922 8.6445-6.9453l1.2734-2.5156 20.977 11.355c3.8789 2.1016 8.5352 2.1797 12.473 0.19922 3.9414-1.9844 6.6602-5.7578 7.293-10.121l0.09375-0.625 17.801 8.8047c3.4922 1.7266 7.5625 1.8594 11.156 0.36328 3.6055-1.5 6.375-4.4766 7.6172-8.1797l0.65234-1.9609 18.043 11.379c3.6992 2.3438 8.3086 2.7344 12.352 1.0586 4.0508-1.6758 7.0273-5.2109 7.9961-9.4883l0.61719-2.7344 18.617 11.047c3.9414 2.332 8.793 2.5156 12.887 0.46875 4.0938-2.043 6.875-6.0117 7.3906-10.559l27.684 9.8711c2.6211 0.9375 5.4648 1.0312 8.1445 0.28906l27.934-7.7852c0.1875 4.2344 2.3594 8.1758 5.9062 10.566 3.8438 2.6133 8.7578 3.0664 13.008 1.1797l21.23-9.3516c0.70312 3.4414 2.7344 6.5039 5.6992 8.5 2.2539 1.5078 4.8672 2.2891 7.5156 2.2891 1.5 0 3-0.26172 4.4531-0.76563l20.078-7.0312c1.082 2.3242 2.8242 4.3281 5.0586 5.7305 3.9375 2.4727 8.8633 2.7344 13.031 0.71094l17.934-8.6797c1 2.8008 2.9258 5.2422 5.5234 6.8711 3.8008 2.3828 8.5547 2.7344 12.656 0.90234l20.359-9.0547c1 2.8867 2.9766 5.4023 5.668 7.0625 4.1953 2.582 9.4609 2.6797 13.738 0.24609l19.809-11.27c0.26562 4.5898 2.8672 8.7422 6.918 11 4.293 2.375 9.5195 2.2461 13.676-0.33984l16.996-10.582c1.082 2.4805 2.9141 4.6211 5.293 6.0859 4.0781 2.5156 9.1719 2.6641 13.395 0.42578l21.605-11.523c1.082 2.6875 3.0273 4.9961 5.582 6.5312 4.082 2.4375 9.1328 2.5586 13.309 0.30469l21.879-11.758c0.94922 3.0898 2.9844 5.7969 5.8203 7.5391 3.9375 2.4297 8.832 2.6719 12.98 0.64453l24.41-11.891c1.0078 3.168 3.1758 5.9062 6.1523 7.5977 4.207 2.4102 9.3867 2.375 13.559-0.097656l23.746-14.055c0.82422 2.8125 2.5625 5.3086 4.9883 7.0703 3.375 2.457 7.6875 3.2188 11.691 2.0586l63.535-18.371c0.48828-0.097657 0.97266-0.18359 1.4688-0.28125 19.609-3.9219 58.512-17.801 94.613-33.746 68.402-30.223 74.777-43.609 77.176-48.641 12-25.219 1.9531-73.785-15.055-100.36zm-193.61 111.16c-6.0977 9.7969-10.73 18.305-13.973 25.789-9.1016 1.7617-39.996 7.3242-76.961 9.6328-46.238 2.8945-171.42-2.3242-252.49-15.406 19.797-17.496 47.73-41.781 62.051-52.312 25.633-18.844 45.949-20.152 67.473-21.535 2.7305-0.17188 5.4258-0.34375 8.1289-0.55859l3.1406-0.24219c126.36-9.668 206.78-19.18 251.98-25.473 20.746-2.8828 77.152-10.719 91.598-35.566 5.3633 1.5664 10.02 3.3555 14.02 5.3945-37.086 15.84-121.36 56.355-154.96 110.28zm-731.78-156.3c93.168 0 179.36-16.824 235.61-44.551l-196.11 185.97h-13.727c-4.7812-53.508-23.465-102.83-52.82-141.89 8.9844 0.30469 18.012 0.46875 27.043 0.46875zm313.05-51.09c16.008 5.3789 32.957 11.055 50.402 16.863l-188.85 179.09c-21.219-2.1641-40.039-3.4453-54.797-3.4453h-9.75zm102.7 34.172c16.027 5.2695 32.051 10.5 47.727 15.57l-170.8 161.97-0.14453 0.10938c-18.512-2.8789-37.234-5.6719-55.473-8.2031zm423.04 51.406c-9.543 4.5273-27.566 10.316-61.359 15.008-44.832 6.2305-124.66 15.672-250.32 25.289l-3.1523 0.24609c-2.582 0.19922-5.1836 0.36328-7.8008 0.53516-23.301 1.5-49.719 3.1992-81.707 26.723-20.258 14.895-64.031 53.816-80.281 68.379-0.44141-0.078125-0.85938-0.14844-1.3047-0.21484l163.39-154.94c46.895 14.754 85.801 26.254 104.67 30.188 10.879 2.2656 20.785 3.2773 29.789 3.2773 31.957 0 52.652-12.73 65.875-27.305 13.039 4.4883 36.074 8.9766 76.574 10.07 17.617 0.46875 32.727 1.3555 45.629 2.7461zm-434.76-98.105c2.332 1.5977 4.9844 2.3633 7.6133 2.3633 4.3047 0 8.5312-2.0508 11.133-5.8633l16.621-24.254c11.051 4.375 22.441 8.8594 33.988 13.406l-11.688 17.055c-4.207 6.1445-2.6367 14.535 3.5 18.746 2.3359 1.5898 4.9922 2.3633 7.6133 2.3633 4.3008 0 8.5273-2.0508 11.137-5.8672l15.199-22.184c11.09 4.3477 22.223 8.7031 33.25 13.008l-9.0859 13.461c-4.1641 6.1719-2.5391 14.555 3.6289 18.723 2.3203 1.5586 4.9375 2.3086 7.5312 2.3086 4.3281 0 8.5859-2.082 11.199-5.9414l12.484-18.496c11.375 4.4336 22.504 8.7617 33.242 12.938l-7.3242 10.543c-4.2422 6.1172-2.7305 14.52 3.3906 18.77 2.3477 1.625 5.0273 2.4062 7.6797 2.4062 4.2656 0 8.4688-2.0273 11.078-5.7969l11.027-15.875c33.426 12.977 60.68 23.512 75.43 29.207-15.438 13.84-37.652 17.844-66.25 11.883-50.027-10.422-248.07-76.645-353.12-112.25-1.2188-0.62891-2.5195-1.0703-3.8516-1.3086-10.422-3.5352-19.848-6.7383-28.039-9.5312 2.5586-1.6602 5.0156-3.2773 7.4023-4.8516 12.539-8.2695 23.371-15.414 35.824-19.785 29.906-10.504 65.367 1.6758 65.973 1.8828 0.66797 0.23828 1.3359 0.40234 2.0156 0.52344l-14.617 21.34c-4.207 6.1484-2.6406 14.543 3.5 18.75 2.332 1.5898 4.9883 2.3633 7.6133 2.3633 4.2969 0 8.5234-2.0508 11.133-5.8633l18.012-26.289c10.938 4.4102 22.844 9.1641 35.406 14.168l-13.148 19.203c-4.2188 6.1523-2.6523 14.543 3.4961 18.75zm-140.07-100.56c4.457 1.7812 10.68 4.3555 19.207 8.0195-2.4961 0.65234-4.9961 1.4062-7.4727 2.2773-8.0273 2.8203-15.281 6.418-22.277 10.445zm-102.38 97.625c19.707-5.8281 35.621-12.488 49.02-19.273 6.7578 2.3125 16.082 5.4961 27.418 9.3555-47.426 28.504-131.3 47.359-222.37 49.312 8.5977-6.1133 15.652-14.094 23.863-23.41 41.664 1.3125 86.297-5.4062 122.07-15.984zm-257.77-97.156c-6.5898 30.75-3.2578 62.797 46.93 92.082 15.363 8.957 34.207 14.727 54.773 17.965-10.051 9.3008-19.414 12.781-40.828 12.781-24.375 0-60.652-16.297-102.75-46.031 4.2266-8.293 8.9102-16.777 14.152-25.457 12.867-21.301 21.52-38.387 27.723-51.34zm-53.371 101.66c15.414 10.672 32.859 21.512 50.688 30.207 0.40625 0.34375 0.82422 0.67188 1.2852 0.96875 53.695 35.516 89.137 99.316 96.281 172.29h-141.57c0.17187-3.0859-0.70313-6.2617-2.7305-8.9141-0.62109-0.82031-54.207-73.637-3.957-194.55zm228.87 271.79c-47.242-0.52734-84.551-0.95312-100.89-0.95312-72.746 0-101.6-9.4414-107.18-15.031-3.9023-3.9023-9.3867-14.387-14.309-25.367h262.88c56.766 0 179.45 20.449 260.63 33.973 23.289 3.8789 49.758 7.0703 76.922 9.6016-109.61 0.80469-270.15-1.0078-378.04-2.2227zm836.88-76.027c-8.7305 12.789-93.102 51.07-139.36 64.379-1.4453-0.066407-2.918 0.089843-4.3906 0.50391l-11.566 3.3477c-13.414 2.5156-19.273 2.2305-21.672 1.7695 0.29688-3.1992 2.5078-12.312 15.477-33.141 32.453-52.074 125.37-92.75 152.07-103.6 10.547 21.496 15.484 53.613 9.4492 66.742z" fill="#ff814a"/>
</svg>
