<svg xmlns="http://www.w3.org/2000/svg" xmlns:xlink="http://www.w3.org/1999/xlink" version="1.1" x="0px" y="0px" viewBox="0 0 100 100" enable-background="new 0 0 100 100" xml:space="preserve"><g><g><path fill="none" d="M27.636,42.308c-8.908,0-16.154,7.244-16.154,16.148c0,8.906,7.247,16.152,16.154,16.152    c8.906,0,16.152-7.246,16.152-16.152C43.788,49.552,36.542,42.308,27.636,42.308z M20.719,63.274    c-0.252,0-0.504-0.096-0.696-0.289c-0.385-0.385-0.385-1.008,0-1.392l11.017-11.017c0.385-0.385,1.008-0.385,1.392,0    c0.385,0.385,0.385,1.008,0,1.392L21.416,62.986C21.223,63.178,20.971,63.274,20.719,63.274z M33.847,56.995l-7.809,7.803    c-0.192,0.192-0.444,0.288-0.696,0.288s-0.504-0.096-0.697-0.288c-0.384-0.385-0.384-1.009,0.001-1.392l7.808-7.803    c0.385-0.385,1.008-0.385,1.393,0C34.231,55.987,34.231,56.612,33.847,56.995z"></path><path fill="none" d="M72.592,42.308c-8.906,0-16.151,7.244-16.151,16.148c0,8.906,7.246,16.152,16.151,16.152    c8.906,0,16.151-7.246,16.151-16.152C88.743,49.552,81.498,42.308,72.592,42.308z M66.378,63.274    c-0.252,0-0.504-0.096-0.696-0.289c-0.385-0.385-0.385-1.008,0-1.392l11.017-11.017c0.385-0.385,1.008-0.385,1.392,0    c0.385,0.385,0.385,1.008,0,1.392L67.074,62.986C66.882,63.178,66.63,63.274,66.378,63.274z M79.505,56.995l-7.809,7.803    c-0.192,0.192-0.444,0.288-0.696,0.288s-0.504-0.096-0.697-0.288c-0.384-0.385-0.384-1.009,0-1.392l7.808-7.803    c0.385-0.385,1.008-0.385,1.393,0C79.889,55.987,79.889,56.612,79.505,56.995z"></path><path d="M72.592,40.339c-8.598,0-15.802,6.023-17.648,14.068c-1.147-1.344-2.849-2.2-4.751-2.2c-1.969,0-3.725,0.916-4.872,2.341    c-1.793-8.116-9.036-14.21-17.685-14.21c-9.993,0-18.123,8.127-18.123,18.117c0,9.992,8.13,18.121,18.123,18.121    c9.812,0,17.808-7.843,18.094-17.588c0.104-0.156,0.18-0.334,0.18-0.536c0-2.359,1.921-4.277,4.283-4.277    c2.359,0,4.278,1.918,4.278,4.277v0.001v0.002c0,9.992,8.129,18.121,18.12,18.121c9.992,0,18.121-8.129,18.121-18.121    C90.713,48.465,82.584,40.339,72.592,40.339z M27.636,74.608c-8.908,0-16.154-7.246-16.154-16.152    c0-8.904,7.247-16.148,16.154-16.148c8.906,0,16.152,7.244,16.152,16.148C43.788,67.362,36.542,74.608,27.636,74.608z     M72.592,74.608c-8.906,0-16.151-7.246-16.151-16.152c0-8.904,7.246-16.148,16.151-16.148c8.906,0,16.151,7.244,16.151,16.148    C88.743,67.362,81.498,74.608,72.592,74.608z"></path><path d="M14.031,25.394c0.006,0,0.012,0,0.019,0c1.156,0.005,2.242,0.487,3.141,1.393c1.192,1.203,1.87,2.981,1.861,4.88    c-0.003,0.543,0.436,0.987,0.98,0.989c0.001,0,0.004,0,0.005,0c0.542,0,0.982-0.438,0.985-0.98    c0.012-2.417-0.874-4.705-2.432-6.276c-1.257-1.268-2.867-1.969-4.532-1.976c-0.009,0-0.018,0-0.028,0    c-3.847,0-6.99,3.672-7.012,8.202L6.914,58.223c-0.002,0.544,0.437,0.986,0.981,0.988c0.001,0,0.002,0,0.004,0    c0.542,0,0.983-0.438,0.985-0.981l0.103-26.595C9.003,28.19,11.264,25.394,14.031,25.394z"></path><path d="M92.982,31.627c-0.009-2.165-0.725-4.206-2.016-5.746c-1.335-1.592-3.101-2.508-5.024-2.456    c-1.903,0.007-3.679,0.893-4.999,2.494c-1.277,1.55-1.974,3.594-1.965,5.757c0.002,0.542,0.443,0.981,0.985,0.981    c0.001,0,0.003,0,0.004,0c0.544-0.002,0.983-0.445,0.98-0.989c-0.007-1.705,0.531-3.301,1.516-4.496    c0.941-1.141,2.179-1.773,3.488-1.778c0.007,0,0.013,0,0.019,0c1.302,0,2.54,0.621,3.487,1.752    c0.996,1.187,1.548,2.783,1.556,4.488l0.103,26.596c0.002,0.542,0.442,0.981,0.985,0.981c0.001,0,0.002,0,0.004,0    c0.544-0.002,0.983-0.444,0.981-0.988L92.982,31.627z"></path><path d="M32.433,50.576c-0.385-0.385-1.008-0.385-1.392,0L20.023,61.593c-0.385,0.385-0.385,1.008,0,1.392    c0.192,0.192,0.444,0.289,0.696,0.289c0.252,0,0.504-0.096,0.696-0.289l11.017-11.017C32.817,51.584,32.817,50.961,32.433,50.576z    "></path><path d="M32.454,55.603l-7.808,7.803c-0.385,0.384-0.385,1.008-0.001,1.392c0.192,0.192,0.445,0.288,0.697,0.288    s0.504-0.096,0.696-0.288l7.809-7.803c0.385-0.384,0.385-1.008,0-1.392C33.463,55.218,32.839,55.218,32.454,55.603z"></path><path d="M78.091,50.576c-0.385-0.385-1.008-0.385-1.392,0L65.682,61.593c-0.385,0.385-0.385,1.008,0,1.392    c0.192,0.192,0.444,0.289,0.696,0.289s0.504-0.096,0.696-0.289l11.017-11.017C78.475,51.584,78.475,50.961,78.091,50.576z"></path><path d="M78.112,55.603l-7.808,7.803c-0.385,0.384-0.385,1.008,0,1.392c0.192,0.192,0.445,0.288,0.697,0.288    s0.504-0.096,0.696-0.288l7.809-7.803c0.385-0.384,0.385-1.008,0-1.392C79.12,55.218,78.497,55.218,78.112,55.603z"></path></g></g></svg>