<svg xmlns="http://www.w3.org/2000/svg" data-name="Layer 1" viewBox="0 0 100 100" x="0px" y="0px"><title>Artboard 9</title><path d="M9.26,59.29A27.81,27.81,0,0,0,37,87.07h3.68V94H31.37a2.5,2.5,0,0,0,0,5H78.6a2.5,2.5,0,0,0,0-5H69.25V75c0-.1,0-.19,0-.28h19a2.5,2.5,0,0,0,0-5h-20a14.24,14.24,0,0,0-26.47,0H37a10.38,10.38,0,0,1-4.45-19.75,12.65,12.65,0,0,0,16.82-2.27l4,4a7,7,0,0,0,9.44.43l4.37,4.37a4.25,4.25,0,0,0,6,0l4.2-4.2a4.26,4.26,0,0,0,0-6L73.1,41.91a7,7,0,0,0-.43-9.44L45,4.84a2.5,2.5,0,0,0-3.54,0L25.82,20.53a2.5,2.5,0,0,0,0,3.54l5.72,5.73A12.77,12.77,0,0,0,29,32.71,27.83,27.83,0,0,0,9.26,59.29ZM55,65.69A9.27,9.27,0,0,1,64.25,75V94H45.72V75A9.27,9.27,0,0,1,55,65.69ZM39.74,47.14a7.69,7.69,0,1,1,7.69-7.69A7.7,7.7,0,0,1,39.74,47.14Zm30.53,5.29-3.83-3.83,3.14-3.14,3.83,3.83ZM31.12,22.3,43.27,10.15,69.14,36a2,2,0,0,1,0,2.84l-9.31,9.31a2.06,2.06,0,0,1-2.84,0L51.9,43.07A12.67,12.67,0,0,0,36.13,27.3Zm-4,16.51c0,.22,0,.43,0,.65a12.6,12.6,0,0,0,2,6.73,15.38,15.38,0,0,0,8,28.49h3.7c0,.09,0,.19,0,.28v7.12H37a22.78,22.78,0,0,1-10-43.27Z"></path><path d="M26.25,14,35,5.27a2.5,2.5,0,1,0-3.54-3.54l-8.73,8.73A2.5,2.5,0,1,0,26.25,14Z"></path><path d="M54.68,77.48l.3,0a2.51,2.51,0,1,0-.3,0Z"></path></svg>