<svg xmlns="http://www.w3.org/2000/svg" xmlns:xlink="http://www.w3.org/1999/xlink" version="1.1" x="0px" y="0px" viewBox="0 0 48 48" style="enable-background:new 0 0 48 48;" xml:space="preserve"><g><path d="M36.8,13.1V7h3.1c0.6,0,1-0.4,1-1V1c0-0.6-0.4-1-1-1H8.1c-0.6,0-1,0.4-1,1v5c0,0.6,0.4,1,1,1h3.1v6c0,4.5,2.4,8.6,6.2,10.9   c-3.8,2.3-6.2,6.4-6.2,10.9v6H8.1c-0.6,0-1,0.4-1,1v5c0,0.6,0.4,1,1,1h31.8c0.6,0,1-0.4,1-1v-5c0-0.6-0.4-1-1-1h-3.1v-6   c0-4.5-2.4-8.6-6.2-10.9C34.4,21.7,36.8,17.6,36.8,13.1z M9.1,5V2h29.8v3H9.1z M38.9,43v3H9.1v-3H38.9z M28,23.1   c-0.8,0.3-0.8,1.5,0,1.9c4.1,1.7,6.8,5.6,6.8,10v6H13.2v-6c0-4.4,2.7-8.3,6.8-10c0.8-0.3,0.8-1.5,0-1.9c-4.1-1.6-6.8-5.6-6.8-10V7   h21.5v6C34.8,17.5,32.1,21.4,28,23.1z"></path><path d="M31.3,12.1c-14.2,2-14.8,2.9-15,3.4c-0.2,0.3-0.2,0.7-0.1,1c1.6,3.6,4.4,4.4,7.4,5.6c0.4,0.1,0.6,0,0.7,0   c2.6-1.1,7.7-2.5,8.1-8.4C32.5,12.1,31.6,12,31.3,12.1z M24,20c-2.4-1-4.2-1.4-5.5-3.6c1.9-0.6,7-1.5,11.9-2.2   C29.6,18.2,26.5,19,24,20z"></path><path d="M24.4,26c-0.2-0.1-0.5-0.1-0.7,0c-2.5,1-8.1,2.6-8.1,9v2.7c0,0.6,0.4,1,1,1h14.9c0.6,0,1-0.4,1-1v-2.7   C32.5,28.8,27.3,27.2,24.4,26z M30.5,34.9v1.7H17.5v-1.7c0-4.9,4.2-6.1,6.5-6.9C26.1,28.8,30.5,30,30.5,34.9z"></path></g></svg>