<svg xmlns="http://www.w3.org/2000/svg" xmlns:xlink="http://www.w3.org/1999/xlink" version="1.1" x="0px" y="0px" viewBox="0 0 100 100" style="enable-background:new 0 0 100 100;" xml:space="preserve"><style type="text/css">
	.st0{fill:none;stroke:#000000;stroke-width:2;stroke-linecap:round;stroke-linejoin:round;stroke-miterlimit:10;}
</style><path d="M21.9,55.1c0.4,1.3,0.2,2.6-0.6,3.7c-1.7,2.2-1.7,5-0.1,7.2c1.6,2.2,4.3,3,6.8,2.1c1.3-0.4,2.6-0.3,3.7,0.5  c1.1,0.8,1.7,2,1.6,3.3c-0.1,2.7,1.5,5,4.1,5.9c2.6,0.8,5.2-0.1,6.8-2.3c0.8-1.1,2-1.7,3.3-1.7c1.3,0,2.5,0.6,3.3,1.7  c1.2,1.7,2.9,2.6,4.9,2.6c0.6,0,1.3-0.1,1.9-0.3c2.6-0.8,4.2-3.1,4.1-5.9c0-1.3,0.6-2.5,1.6-3.3s2.4-1,3.7-0.5  c2.6,0.9,5.2,0.1,6.8-2.1c1.6-2.2,1.6-5-0.1-7.2c-0.8-1.1-1-2.4-0.6-3.7s1.4-2.2,2.7-2.6c2.6-0.8,4.3-3,4.3-5.7s-1.7-5-4.3-5.7  c-1.3-0.4-2.2-1.3-2.7-2.6c-0.4-1.3-0.2-2.6,0.6-3.7c1.7-2.2,1.7-5,0.1-7.2c-1.6-2.2-4.3-3-6.8-2.1c-1.3,0.4-2.6,0.3-3.7-0.5  c-1.1-0.8-1.7-2-1.6-3.3c0.1-2.7-1.5-5-4.1-5.9c-2.6-0.8-5.2,0.1-6.8,2.3c-0.8,1.1-2,1.7-3.3,1.7c0,0,0,0,0,0  c-1.3,0-2.5-0.6-3.3-1.7c-1.5-2.2-4.2-3.1-6.8-2.3c-2.6,0.8-4.2,3.1-4.1,5.9c0,1.3-0.6,2.5-1.6,3.3s-2.4,1-3.7,0.5  c-2.6-0.9-5.2-0.1-6.8,2.1c-1.6,2.2-1.6,5,0.1,7.2c0.8,1.1,1,2.4,0.6,3.7c-0.4,1.3-1.4,2.2-2.7,2.6c-2.6,0.8-4.3,3-4.3,5.7  s1.7,5,4.3,5.7C20.5,52.9,21.5,53.8,21.9,55.1z M17,46.8c0-1.4,0.8-3.2,2.9-3.8c1.9-0.6,3.4-2,4-3.9c0.6-1.9,0.3-3.9-0.9-5.5  c-1.3-1.7-0.9-3.6-0.1-4.8c0.8-1.2,2.5-2.1,4.6-1.4c1.9,0.7,3.9,0.4,5.5-0.8c1.6-1.2,2.5-3,2.5-5c-0.1-2.2,1.4-3.5,2.7-3.9  c1.4-0.4,3.3-0.3,4.5,1.5c1.1,1.6,3,2.6,4.9,2.6c0,0,0,0,0,0c2,0,3.8-1,4.9-2.6c1.2-1.8,3.1-2,4.5-1.5c1.4,0.4,2.8,1.7,2.7,3.9  c-0.1,2,0.9,3.8,2.5,5s3.7,1.5,5.5,0.8c2.1-0.7,3.7,0.2,4.6,1.4c0.8,1.2,1.3,3-0.1,4.8c-1.2,1.6-1.6,3.6-0.9,5.5  c0.6,1.9,2.1,3.3,4,3.9c2.1,0.6,2.9,2.4,2.9,3.8s-0.8,3.2-2.9,3.8c-1.9,0.6-3.4,2-4,3.9S71,58.4,72.2,60c1.3,1.7,0.9,3.6,0.1,4.8  c-0.8,1.2-2.5,2.1-4.6,1.4c-1.9-0.7-3.9-0.4-5.5,0.8c-1.6,1.2-2.5,3-2.5,5c0.1,2.2-1.4,3.5-2.7,3.9c-1.4,0.4-3.3,0.3-4.5-1.5  c-1.1-1.6-3-2.6-4.9-2.6c-2,0-3.8,1-4.9,2.6c-1.2,1.8-3.1,2-4.5,1.5c-1.4-0.4-2.8-1.7-2.7-3.9c0.1-2-0.9-3.8-2.5-5  c-1-0.8-2.3-1.1-3.5-1.1c-0.7,0-1.4,0.1-2,0.3c-2.1,0.7-3.7-0.2-4.6-1.4c-0.8-1.2-1.3-3,0.1-4.8c1.2-1.6,1.6-3.6,0.9-5.5  s-2.1-3.3-4-3.9C17.7,50,17,48.2,17,46.8z"></path><path d="M74.5,76.4c0-2.9-2.3-5.2-5.2-5.2s-5.2,2.3-5.2,5.2s2.3,5.2,5.2,5.2S74.5,79.3,74.5,76.4z M66.1,76.4c0-1.8,1.4-3.2,3.2-3.2  c1.8,0,3.2,1.4,3.2,3.2c0,1.8-1.4,3.2-3.2,3.2C67.5,79.7,66.1,78.2,66.1,76.4z"></path><path d="M79.2,78.7c-2.1,0-3.8,1.7-3.8,3.8s1.7,3.8,3.8,3.8s3.8-1.7,3.8-3.8S81.3,78.7,79.2,78.7z M79.2,84.2c-1,0-1.8-0.8-1.8-1.8  s0.8-1.8,1.8-1.8s1.8,0.8,1.8,1.8S80.2,84.2,79.2,84.2z"></path></svg>